<svg width="1637" height="1534" viewBox="0 0 1637 1534" fill="none" xmlns="http://www.w3.org/2000/svg">
<path d="M688 1507L696 1533.5V1500V1473.5L708.5 1453L715.5 1438.5L727.5 1422.5L750.5 1408.5L772.5 1404.5H793L807.5 1408.5L810 1386.5L812.5 1367L825 1349.5L845.5 1328L865 1311L886 1306.5H906.5L930.5 1301L958.5 1298L975 1306.5L987.5 1320.5L996 1334.5L1006.5 1349.5L1019 1364.5L1031 1378.5L1049 1396L1045 1362L1039.5 1342.5L1034.5 1325.5V1306.5V1290L1045 1268V1245L1042 1223L1045 1202L1054 1183L1066 1176.5H1075L1084 1186L1091 1195L1097 1176.5V1158L1105 1144.5L1116.5 1126L1131 1110L1142 1096L1146.5 1086V1071.5L1138.5 1056V1043.5V1019L1160.5 1009L1179.5 1002L1212 1009H1228.5L1245.5 1014L1259 1019L1274.5 1029.5L1280 1014L1288.5 1002L1300.5 992L1317.5 984.5L1340 976L1360.5 965.5L1380 955.5L1403.5 942L1428 928L1452 912.5L1473.5 901.5L1500 885.5L1514.5 872L1532 862L1549.5 868H1565V857V838V822.5L1571 804.5L1581.5 779L1590.5 762.5L1600 746.5L1609 729.5L1618 715.5L1625 700L1635 687H1625L1613 683.5L1600 671.5L1585 656.5L1576.5 642L1571 625V603L1559.5 587L1549.5 575L1540.5 563.5L1526.5 557L1514.5 542.5V523.5L1495.5 527.5L1473.5 532H1452L1432 523.5L1417.5 510L1404 503L1389.5 495L1375.5 484L1368 470.5L1350 477.5L1323.5 484L1299.5 488H1282L1268 477.5L1251 466L1227.5 458.5L1208.5 466L1187.5 470.5H1163L1167 458.5V445.5L1163 436L1158.5 423.5L1156 413L1153 401V388V375L1156 361.5L1158.5 348.5L1163 337L1169 326.5L1176 315L1183.5 302L1190 287.5L1194.5 272L1197 257.5L1192.5 261.5L1180 269L1171.5 274L1158.5 283.5L1147 291L1138 300L1125 302L1112 300L1102 295.5L1096.5 289L1090 281.5V272L1092.5 261.5L1102 245.5L1094.5 251L1084 254.5L1074 257.5H1063.5H1054.5L1051.5 261.5L1038.5 265H1026L1015.5 261.5L1011 254.5L1008.5 245.5L1004.5 236.5V226L1001 218.5V204V192V165L994 182.5L986.5 195L979.5 208.5L974 221L968.5 231.5L964 240.5L956.5 251L949.5 259.5L941.5 267L933 277L923 285.5L912.5 289L901.5 285.5L892.5 281.5L885 277L876.5 272L868 274L860.5 279L852.5 285.5L844 291L836 300L824 307.5L813 306L805.5 300L800.5 293.5L798 285.5V275L796.5 267V261L792 245.5L786 254.5L780 267L775.5 274L769.5 281.5L763.5 289L758.5 298L750 307.5H742L740 300L736.5 289L733 277L730.5 267L729 254.5L727.5 240.5L726 228L724 214L722 201.5L720 189V177L717 169V158.5V142L713 146.5L707 156L701.5 165L696.5 174L692 184.5L688 194.5L685 201.5L682.5 211.5L679.5 223.5L676.5 231.5L673 242L671 251L668.5 261L666 268.5L662.5 277L659.5 285.5L654 293.5L648.5 301L643.5 309.5L640 318L636 327L629 332.5L626.5 327L623 318L621 309.5L619.5 301L618 291L616 281.5L614 270L616 254V234.5L612.5 239L608.5 245.5L600 251L592 247.5L586 242L578 234.5L569.5 228L562.5 219L559.5 208.5L556.5 199.5V189L554 177L549 167L544 156L541 146.5V139L539 127.5L534.5 122.5L527 119.5L519 114L512 107L506 99L503 90L498.5 78L493 67.5L489 54L486.5 42L483 28L476 2L469.5 28V42L467.5 59L464.5 73L456 90L450.5 101H439L430 104.5V117L432.5 133.5L434.5 146.5V163V177L432.5 191.5L430 204.5L428 217L424.5 231.5L420.5 245.5L416 256L408.5 268.5L404 279L397 289L388.5 300L381 308.5L373.5 315L367 321H359.5L352.5 318.5L348 315L344 311.5L339.5 308.5L337 311.5L334 318.5L330 325.5L326 330L318.5 333.5L312.5 337L303 339L294 342L284 344.5H277H268.5L261.5 342L255 339L246.5 335L239.5 333.5V337L241.5 347.5L245.5 359L250.5 371.5L255 382.5L257 393.5V405.5V417L255 428V441L250.5 451L245.5 459.5L239.5 468.5L232 480L221 487L214.5 492.5L212.5 500.5L209.5 511L205 521L198.5 530.5L191 538.5L181 546L171.5 552.5L158 556.5L143.5 559H128.5L115 561L99.5 564L87 566L91.5 575L97 582.5L101.5 590.5L109 599L115 603.5L119 610L122.5 620.5L126.5 631.5L128.5 643L132 655V663V670.5L126.5 676.5L119 681.5L122.5 684L128.5 690L134 696.5V705.5V716.5L132 726L128.5 735.5L122.5 743L115 751L105 756.5L95 764L87 770.5L77.5 774L65.5 776L56.5 779L46 781.5L35 784L24.5 787L13.5 792L0.5 797H11.5L20.5 802L30.5 806L38.5 813.5L46 821L51 827L56.5 838L60 849V856.5H70.5H82L95 858L103.5 864.5L111.5 874L119 881.5L126.5 889L134 895.5L142.5 906.5L148.5 915.5L154.5 928.5L158 940L163 950.5L169 965.5L174.5 979L178 989.5V1001.5V1020V1034V1044L172.5 1059L163 1075L169 1071H178H189.5L198 1079.5L205 1089L209 1102L214 1110.5L217 1127L220 1142V1162V1177.5L217 1193.5L211.5 1211L209 1225.5V1239.5L205 1253L217 1257.5L225 1264.5L230.5 1278.5L236 1294L241 1308.5L244 1322L258.5 1318L277.5 1312.5H299L316.5 1314.5L332 1318L346 1325.5L356 1334.5L369.5 1348L393.5 1342.5L410 1338.5L424 1341L441 1348L458.5 1357.5L476.5 1373.5L491.5 1386.5L504 1400.5L521.5 1415L532.5 1426L554.5 1438.5H570.5L584.5 1434.5L602.5 1431H625L645 1438.5L663.5 1459L678.5 1481.5L688 1507Z" stroke="black"/>
</svg>
