<?xml version="1.0" standalone="no"?>
<svg id="SvgjsSvg1001" width="600" height="600" xmlns="http://www.w3.org/2000/svg" version="1.1" xmlns:xlink="http://www.w3.org/1999/xlink" xmlns:svgjs="http://svgjs.com/svgjs" class="svg-paper" viewBox="0 0 600 600"><title id="SvgjsTitle1329">x=x|y=(cos(max(sqrt(x*x + y*y),x)/y)+y)|dTest=0.0|sd=0.2|sm=0.2|ts=0.05 | generated with FlowLines</title><g id="SvgjsG1330"><polyline id="SvgjsPolyline1331" points="263.28,307.23 261.63,309.73 258.96,308.62 252.42,318.67 248.8,323.46 244.88,327.99 238.6,334.44 227.55,344.58 209.17,360.02 183.38,380.6 143.1,411.88 0,521.08" fill="none" stroke="#000000" stroke-width="1"/><polyline id="SvgjsPolyline1332" points="270.48,294.81 267.33,298.45" fill="none" stroke="#000000" stroke-width="1"/><polyline id="SvgjsPolyline1333" points="278.11,304.45 275.87,310.01 274.39,312.61 268.97,319.79 260.6,328.38 247.1,340.29 189.23,387.99 0.46,541.01" fill="none" stroke="#000000" stroke-width="1"/><polyline id="SvgjsPolyline1334" points="252.78,301.07 245.97,304.26 243.53,302.9" fill="none" stroke="#000000" stroke-width="1"/><polyline id="SvgjsPolyline1335" points="261.91,309.98 259.58,308.18 257.77,310.57 255.15,309.28 252.45,310.57 249.47,310.86 243.62,312.18 241.25,314.01 237.2,318.43 227.64,329.98 217.21,340.76 203.81,352.77 185.23,367.96 156.71,389.94 123.05,415.05 1.79,503.34" fill="none" stroke="#000000" stroke-width="1"/><polyline id="SvgjsPolyline1336" points="295.88,298.2 295,295.34 292.44,293.81 285.62,287.94 282.83,286.88 279.48,291.79 278.23,294.5" fill="none" stroke="#000000" stroke-width="1"/><polyline id="SvgjsPolyline1337" points="293.9,309.3 291.12,309.85 285.78,312.51 276.25,319.8 0.94,547.07" fill="none" stroke="#000000" stroke-width="1"/><polyline id="SvgjsPolyline1338" points="235.71,304.68 233.37,306.51 228.13,308.95 222.24,309.96 2.05,338.25" fill="none" stroke="#000000" stroke-width="1"/><polyline id="SvgjsPolyline1339" points="240.63,312.89 228.92,315.52 226.14,316.63 223.56,318.17 218.95,322.01 201.85,338.84 190.75,348.93 174.58,362.33 155.58,376.99 128.99,396.53 92.31,422.59 1.01,485.73" fill="none" stroke="#000000" stroke-width="1"/><polyline id="SvgjsPolyline1340" points="306.32,299.35 309.34,299.19" fill="none" stroke="#000000" stroke-width="1"/><polyline id="SvgjsPolyline1341" points="300.02,335.24 297.82,2.25" fill="none" stroke="#000000" stroke-width="1"/><polyline id="SvgjsPolyline1342" points="301,334.12 299.5,331.52 297.41,329.38 294.9,327.74 292.04,326.85 289.04,326.76 283.14,327.81 277.55,329.96 272.32,332.9 260.08,341.56 234.49,362.39 193.48,397.52 1.33,565.16" fill="none" stroke="#000000" stroke-width="1"/><polyline id="SvgjsPolyline1343" points="232.71,295.89 227.12,297.23 218.91,298.37 216.13,297.95 213.48,299.23 210.57,299.61 207.91,298.81 204.99,298.93 199.61,301.17 196.79,301.71 193.97,301.62 191.1,302.3 188.23,302.37 182.62,303.17 176.78,302.53 173.87,301.9 171.11,302.41 168.23,302.52 165.35,303.21 159.53,303.23 153.72,303.76 150.87,304.38 148,303.94 142.11,303.7 139.19,303.05 136.3,303.64 133.31,303.54 130.44,304.36 124.61,305.13 121.73,304.77 115.95,305.49 104.17,305.25 98.37,306.09 92.44,306.44 80.58,306.5 3,309.01" fill="none" stroke="#000000" stroke-width="1"/><polyline id="SvgjsPolyline1344" points="276.08,303.93 274.97,306.71 272.3,305.97 210.78,319.56 202.29,322.52 194.38,326.8 184.5,333.6 161.06,352.32 144.4,365.1 115.18,386.14 65.49,419.76 0.1,462.28" fill="none" stroke="#000000" stroke-width="1"/><polyline id="SvgjsPolyline1345" points="225.79,316.12 184.76,325.13 167.31,329.53 150.11,334.82 133.37,341.42 119.83,347.88 101.36,357.86 0.36,416.92" fill="none" stroke="#000000" stroke-width="1"/><polyline id="SvgjsPolyline1346" points="175.91,326.89 146.47,332.63 134.6,334.38 125.64,335.26 119.65,335.58 107.65,335.62 98.67,335.03 77.8,332.73 62.81,332.35 50.83,332.99 38.88,334.07 0.14,338.6" fill="none" stroke="#000000" stroke-width="1"/><polyline id="SvgjsPolyline1347" points="232.24,305.15 229.88,306.96 227.25,306.19 224.38,306.93 69.01,320.98 60.02,321.08 45.16,319.07 39.17,318.87 27.18,319.4 0.24,321.26" fill="none" stroke="#000000" stroke-width="1"/><polyline id="SvgjsPolyline1348" points="318.82,302.92 322.86,302.35" fill="none" stroke="#000000" stroke-width="1"/><polyline id="SvgjsPolyline1349" points="298.94,333.86 300.68,331.42 303.17,329.74 306.03,328.83 309.02,328.7 314.94,329.63 320.58,331.63 325.87,334.47 333.36,339.46 342.91,346.72 370.51,369.83 408.86,403.45 599.02,573.34" fill="none" stroke="#000000" stroke-width="1"/><polyline id="SvgjsPolyline1350" points="299.43,334.6 303.68,320.22 304.77,317.43 306.27,314.83 308.95,313.69 314.81,314.64 319.98,317.65 334.17,328.72 364.31,353.47 597.78,546.61" fill="none" stroke="#000000" stroke-width="1"/><polyline id="SvgjsPolyline1351" points="305.25,296.85 306.58,294.17 309.11,292.57 310.52,289.92 313.97,281.61 319.86,264.6 342.66,193.15 402.88,1.38" fill="none" stroke="#000000" stroke-width="1"/><polyline id="SvgjsPolyline1352" points="293.48,295.44 292.24,292.72 290.53,286.96 284.15,260.73 224.5,0.48" fill="none" stroke="#000000" stroke-width="1"/><polyline id="SvgjsPolyline1353" points="303.86,298.5 304.81,295.67 305.35,292.72 307.61,277.89 347.07,1.69" fill="none" stroke="#000000" stroke-width="1"/><polyline id="SvgjsPolyline1354" points="296.62,298.77 292.95,269 262.81,0.69" fill="none" stroke="#000000" stroke-width="1"/><polyline id="SvgjsPolyline1355" points="302.19,298.87 322.23,2.55" fill="none" stroke="#000000" stroke-width="1"/><polyline id="SvgjsPolyline1356" points="298.09,298.98 280.69,2.49" fill="none" stroke="#000000" stroke-width="1"/><polyline id="SvgjsPolyline1357" points="300.85,302.03 309.93,2.17" fill="none" stroke="#000000" stroke-width="1"/><polyline id="SvgjsPolyline1358" points="297.29,332.82 294.59,334.13 289.57,337.41 277.97,346.91 265.03,359.43 246.42,378.99 220.14,407.79 184.13,448.04 51.06,598.68" fill="none" stroke="#000000" stroke-width="1"/><polyline id="SvgjsPolyline1359" points="296.69,331.08 293.69,331.24 287.97,332.99 282.65,335.76 277.63,339.04 270.44,344.45 263.5,350.18 243.38,368.19 212.87,397.05 167.62,440.88 7.03,598.48" fill="none" stroke="#000000" stroke-width="1"/><polyline id="SvgjsPolyline1360" points="297.45,330.27 294.59,329.37 291.6,329.24 288.64,329.71 285.77,330.6 280.35,333.14 275.22,336.26 267.89,341.47 249.28,356.63 222.28,380.43 180.11,418.78 1.63,583.69" fill="none" stroke="#000000" stroke-width="1"/><polyline id="SvgjsPolyline1361" points="212.83,294.58 196.38,293.56 193.75,292.15 190.94,292.77 188.29,291.4 182.64,292.46 179.91,291.24 177.05,291.9 174.38,290.55 171.53,291.36 168.84,290.03 163.03,291.46 157.21,291.62 1.49,282.7" fill="none" stroke="#000000" stroke-width="1"/><polyline id="SvgjsPolyline1362" points="204.45,294.9 201.65,294.41 187.4,293.72 181.76,295.11 175.96,295.92 173.17,295.41 170.34,295.72 167.58,295.21 164.73,295.69 158.92,295.76 153.21,295.81 147.29,295.45 144.39,295.59 141.52,296.19 138.64,295.49 135.72,295.32 126.93,295.47 121.15,294.44 115.3,295.03 112.37,294.69 109.46,294.98 106.59,294.41 103.66,294.69 97.8,294.09 83.1,295.62 80.17,295.28 77.23,295.57 74.27,295.28 65.42,295.37 62.48,295 50.58,295.72 47.64,296.18 41.68,295.9 38.72,296.31 29.85,296.13 20.94,296.62 14.99,296.58 9.06,297.18 3.13,296.74 0.18,296.92" fill="none" stroke="#000000" stroke-width="1"/><polyline id="SvgjsPolyline1363" points="277.92,302.96 276.19,305.31 208.74,319.83 194.15,323.29 182.73,326.96 174.52,330.65 166.67,335.05 159.09,339.89 109.86,374.2 77.4,395.8 39.48,420.03 1.26,443.8" fill="none" stroke="#000000" stroke-width="1"/><polyline id="SvgjsPolyline1364" points="279.44,304.43 153.42,331.98 130.08,337.57 109.8,343.05 81.21,352.1 58.68,360.37 30.94,371.79 0.82,385.27" fill="none" stroke="#000000" stroke-width="1"/><polyline id="SvgjsPolyline1365" points="280.84,302.43 279.9,305.27 277.17,304.95 165.81,329.31 142.54,335.21 122.51,341.5 111.27,345.69 100.18,350.28 78.43,360.41 49.07,375.49 1.49,401.02" fill="none" stroke="#000000" stroke-width="1"/><polyline id="SvgjsPolyline1366" points="207.63,320.06 151.9,332.05 128.37,336.76 107.68,340.35 89.84,342.73 74.89,343.97 56.9,344.43 41.91,344.02 14.95,342.54 2.95,342.33" fill="none" stroke="#000000" stroke-width="1"/><polyline id="SvgjsPolyline1367" points="331.89,297.66 336.18,298.28" fill="none" stroke="#000000" stroke-width="1"/><polyline id="SvgjsPolyline1368" points="299.34,331.86 301.97,333.29 306.68,337 317.37,347.53 329.34,360.96 346.59,381.73 374.71,416.87 408.09,459.31 516.84,598.96" fill="none" stroke="#000000" stroke-width="1"/><polyline id="SvgjsPolyline1369" points="298.81,332.5 301.73,331.8 304.69,332.21 310.27,334.39 315.43,337.45 322.67,342.79 329.57,348.57 347.17,364.88 374.89,392.32 416.85,435.2 574.92,599.51" fill="none" stroke="#000000" stroke-width="1"/><polyline id="SvgjsPolyline1370" points="303.45,330.72 306.45,330.67 309.4,331.21 312.25,332.15 317.64,334.78 322.72,337.96 329.99,343.27 336.99,348.92 355.07,364.71 381.52,389.13 429.4,434.55 598.01,596.8" fill="none" stroke="#000000" stroke-width="1"/><polyline id="SvgjsPolyline1371" points="325.81,304.69 326.96,307.46 329.58,306.33 334.95,317.05 338.44,321.93 342.38,326.45 350.96,334.84 366.78,348.64 392.25,369.63 434.3,403.5 598.58,534.32" fill="none" stroke="#000000" stroke-width="1"/><polyline id="SvgjsPolyline1372" points="302.82,299.11 303.2,296.13 305.76,295.28 315.01,287.64 319.97,284.27 322.93,283.91 327.45,287.79 330.94,292.57" fill="none" stroke="#000000" stroke-width="1"/><polyline id="SvgjsPolyline1373" points="311.47,290.53 320.34,282.46 328.37,273.55 341.61,257.25 359.77,233.37 412.86,160.7 526.69,2.37" fill="none" stroke="#000000" stroke-width="1"/><polyline id="SvgjsPolyline1374" points="314.64,287.08 319.57,279.56 325.35,269.05 345.35,228.73 382.81,150.21 453.3,1.03" fill="none" stroke="#000000" stroke-width="1"/><polyline id="SvgjsPolyline1375" points="306.9,294.76 309.62,286.19 315.91,259.93 374.36,2.49" fill="none" stroke="#000000" stroke-width="1"/><polyline id="SvgjsPolyline1376" points="306.03,296 307.21,293.24 309.92,292.02 311.87,289.75 313.48,287.21 317.53,279.18 324.64,262.65 354.52,187.36 427.46,0.06" fill="none" stroke="#000000" stroke-width="1"/><polyline id="SvgjsPolyline1377" points="308.75,292.35 310.88,286.74 313.54,278.15 323.24,243.48 389.02,0.21" fill="none" stroke="#000000" stroke-width="1"/><polyline id="SvgjsPolyline1378" points="293.62,294.82 284.58,286.94 278.78,280.06 268.45,265.32 257.16,247.62 215.35,178.24 111.7,2.54" fill="none" stroke="#000000" stroke-width="1"/><polyline id="SvgjsPolyline1379" points="288.19,289.67 285.25,284.44 280.34,273.5 267.03,240.05 176.41,1.69" fill="none" stroke="#000000" stroke-width="1"/><polyline id="SvgjsPolyline1380" points="295.19,296.61 293.24,294.34 290.88,292.49 289.5,289.83 286.3,281.42 281.63,267.16 260.57,198.31 200.89,0.1" fill="none" stroke="#000000" stroke-width="1"/><polyline id="SvgjsPolyline1381" points="295.62,297.75 294.33,295.06 293.65,292.14 289.88,271.48 243.97,2.37" fill="none" stroke="#000000" stroke-width="1"/><polyline id="SvgjsPolyline1382" points="306.64,292.66 316.82,239.64 360.8,0.65" fill="none" stroke="#000000" stroke-width="1"/><polyline id="SvgjsPolyline1383" points="303.31,298.29 334.54,2.94" fill="none" stroke="#000000" stroke-width="1"/><polyline id="SvgjsPolyline1384" points="300.66,329.96 283.98,396.91 234.75,597.97" fill="none" stroke="#000000" stroke-width="1"/><polyline id="SvgjsPolyline1385" points="298.25,334.35 292.91,341.59 284.61,354.09 259.3,394.87 213,472.05 137.91,598.42" fill="none" stroke="#000000" stroke-width="1"/><polyline id="SvgjsPolyline1386" points="300.9,331.72 298.33,333.27 293.77,337.16 285.5,345.85 273.93,359.64 257.25,380.87 201.32,455.17 94.26,599.87" fill="none" stroke="#000000" stroke-width="1"/><polyline id="SvgjsPolyline1387" points="297.97,333.01 295.42,334.58 290.67,338.25 279.85,348.62 267.69,361.89 248.13,384.64 188.98,456.41 73.75,598.57" fill="none" stroke="#000000" stroke-width="1"/><polyline id="SvgjsPolyline1388" points="301.43,332.63 298.53,331.87 295.57,332.34 290.03,334.6 284.9,337.72 277.7,343.11 270.85,348.94 253.35,365.37 225.83,393 186.23,434 29.19,599.29" fill="none" stroke="#000000" stroke-width="1"/><polyline id="SvgjsPolyline1389" points="240.69,293.6 238.42,291.66 235.9,292.7 233.73,290.63 231.17,291.88 228.95,289.86 226.3,291.15 224,289.23 221.29,290.46 218.88,288.69 216.1,289.75 213.51,288.25 210.6,288.91 207.98,287.48 200.63,282.3 195.31,279.53 186.88,276.4 175.29,273.29 137.25,264.7 2.4,235.38" fill="none" stroke="#000000" stroke-width="1"/><polyline id="SvgjsPolyline1390" points="254.59,295.69 252.71,293.37 249.79,293.57 160.52,282.09 151.63,280.69 148.72,279.98 140.23,277 124.09,269.04 115.84,265.45 98.84,259.55 84.42,255.43 66.98,250.95 2.69,236.05" fill="none" stroke="#000000" stroke-width="1"/><polyline id="SvgjsPolyline1391" points="151.77,280.97 127.95,277.97 116,276.9 104.02,277.35 89.2,279.59 77.21,279.44 2.5,272.83" fill="none" stroke="#000000" stroke-width="1"/><polyline id="SvgjsPolyline1392" points="190.33,323.93 175.81,327.69 164.44,331.52 153.45,336.32 142.84,341.93 127.41,351.2 56.49,396.2 0.04,430.4" fill="none" stroke="#000000" stroke-width="1"/><polyline id="SvgjsPolyline1393" points="134.31,335.95 60.91,351.37 1.99,362.69" fill="none" stroke="#000000" stroke-width="1"/><polyline id="SvgjsPolyline1394" points="318.63,284.89 323.77,281.81 326.6,280.83 329.59,280.88 332.21,282.33 336.13,286.85 338.52,288.58 341.31,289.29 347.17,289.49 350.13,289.04 599.34,235" fill="none" stroke="#000000" stroke-width="1"/><polyline id="SvgjsPolyline1395" points="299.2,330.45 306.6,350.11 323.71,398.15 394.15,599.17" fill="none" stroke="#000000" stroke-width="1"/><polyline id="SvgjsPolyline1396" points="301.43,334.08 306.6,341.44 314.66,354.09 339.22,395.33 381.26,468.05 455.81,598.22" fill="none" stroke="#000000" stroke-width="1"/><polyline id="SvgjsPolyline1397" points="301.5,333.52 307.63,340.11 316.95,351.86 329.34,368.82 343.14,388.45 393.96,462.73 486.31,599.47" fill="none" stroke="#000000" stroke-width="1"/><polyline id="SvgjsPolyline1398" points="300.73,332.18 303.55,333.19 308.73,336.21 318.07,343.73 330.99,356.25 349.49,375.92 375.56,404.92 413.22,447.71 545.06,599.43" fill="none" stroke="#000000" stroke-width="1"/><polyline id="SvgjsPolyline1399" points="303.98,335.31 310.32,341.69 320.08,353.08 331.26,367.19 349.39,391.09 404.5,466 501.45,599.52" fill="none" stroke="#000000" stroke-width="1"/><polyline id="SvgjsPolyline1400" points="303.72,332.72 306.48,333.88 311.64,336.92 316.48,340.48 323.36,346.27 338.56,360.76 355.31,377.95 382.02,406.37 422.67,450.5 557.96,599.15" fill="none" stroke="#000000" stroke-width="1"/><polyline id="SvgjsPolyline1401" points="332.34,306.32 333.76,308.96 336.03,307.32 337.57,309.89 339.96,308.18 341.7,310.61 346.43,307.07" fill="none" stroke="#000000" stroke-width="1"/><polyline id="SvgjsPolyline1402" points="331.88,306.15 333.29,308.8 335.52,307.21 337.04,309.79 339.41,308.05 341.12,310.51 343.55,308.85 346.14,310.34 356.55,325.01 364.48,334.01 377.57,346.37 393.59,359.93 419.39,380.52 462.14,413.5 598.56,516.6" fill="none" stroke="#000000" stroke-width="1"/><polyline id="SvgjsPolyline1403" points="311.99,290.1 319.02,284.48 326.47,279.43 331.79,276.67 337.46,274.74 340.42,274.26 346.42,274.19 349.4,274.52 355.09,276.36 365.47,282.37 368.33,283.24 371.31,283.5 377.28,282.91 397.86,278.74 597.21,235.46" fill="none" stroke="#000000" stroke-width="1"/><polyline id="SvgjsPolyline1404" points="302.32,299.13 303.98,296.69 325.03,279.78 337.37,271.27 350.29,263.65 363.61,256.76 380.05,249.43 396.9,243.11 411.19,238.55 425.66,234.59 440.26,231.18 457.93,227.73 475.7,224.88 511.43,220.5 598.02,212.02" fill="none" stroke="#000000" stroke-width="1"/><polyline id="SvgjsPolyline1405" points="319.56,283.82 351.4,256.43 402.99,210.61 599.22,34" fill="none" stroke="#000000" stroke-width="1"/><polyline id="SvgjsPolyline1406" points="317.98,284.15 323.52,277.05 331.94,264.64 355.53,226.32 401.32,148.84 487.61,1.21" fill="none" stroke="#000000" stroke-width="1"/><polyline id="SvgjsPolyline1407" points="319.04,284.12 329.98,273.86 342.57,260.99 356.89,245.64 381.04,218.94 454.56,135.78 573.1,0.33" fill="none" stroke="#000000" stroke-width="1"/><polyline id="SvgjsPolyline1408" points="322.14,279.98 329.61,270.58 338.42,258.44 368.68,213.72 413.09,145.98 507.84,0.04" fill="none" stroke="#000000" stroke-width="1"/><polyline id="SvgjsPolyline1409" points="318.69,284.32 327.24,275.9 339.34,262.58 352.96,246.6 373.92,221.11 443.29,134.46 549.45,0.4" fill="none" stroke="#000000" stroke-width="1"/><polyline id="SvgjsPolyline1410" points="315.23,286.87 320.63,279.67 327,269.5 344.63,238.12 384.2,164.02 469.5,2.12" fill="none" stroke="#000000" stroke-width="1"/><polyline id="SvgjsPolyline1411" points="314.31,286.87 318.78,279.06 324.07,268.29 340.07,232.72 439.89,1.33" fill="none" stroke="#000000" stroke-width="1"/><polyline id="SvgjsPolyline1412" points="288.73,290.7 279.21,283.4 273.88,280.66 270.95,280.04 268.01,280.57 263.04,283.91 258.97,288.31 256.43,289.78 253.49,289.7 1.33,235.14" fill="none" stroke="#000000" stroke-width="1"/><polyline id="SvgjsPolyline1413" points="277.02,281.54 269.42,276.73 261.28,272.9 252.71,270.17 246.82,269.05 243.83,268.79 237.84,268.9 231.93,269.91 226.22,271.74 215.08,276.2 209.22,277.44 203.23,277.55 194.3,276.49 159.02,269.35 0.7,235.01" fill="none" stroke="#000000" stroke-width="1"/><polyline id="SvgjsPolyline1414" points="292.02,293.41 262.17,268.32 214.76,226.83 1.97,37.24" fill="none" stroke="#000000" stroke-width="1"/><polyline id="SvgjsPolyline1415" points="283.45,286.23 274.81,277.9 262.72,264.57 249.2,248.5 230.33,225.18 167.23,145.04 54.9,0.57" fill="none" stroke="#000000" stroke-width="1"/><polyline id="SvgjsPolyline1416" points="284.92,286.57 281.56,281.61 275.59,271.2 256.64,233.72 217.51,152.67 145.08,1.09" fill="none" stroke="#000000" stroke-width="1"/><polyline id="SvgjsPolyline1417" points="288.45,290.48 283.92,286.54 279.69,282.29 271.88,273.19 259.17,256.47 243.49,234.49 187.46,152.87 84.91,1.31" fill="none" stroke="#000000" stroke-width="1"/><polyline id="SvgjsPolyline1418" points="282.79,284.51 277.61,277.16 269.78,264.36 249.31,227.69 210.95,156.35 127.83,0.08" fill="none" stroke="#000000" stroke-width="1"/><polyline id="SvgjsPolyline1419" points="285.83,287.02 282.78,281.86 277.4,271.13 262.62,238.31 225.8,152.91 161,1.17" fill="none" stroke="#000000" stroke-width="1"/><polyline id="SvgjsPolyline1420" points="288.6,289.43 286.07,283.99 282.77,275.62 270.73,241.7 188.7,0.25" fill="none" stroke="#000000" stroke-width="1"/><polyline id="SvgjsPolyline1421" points="300.11,334.62 313.49,598.28" fill="none" stroke="#000000" stroke-width="1"/><polyline id="SvgjsPolyline1422" points="300.67,331.05 291.95,350.15 274.37,391.57 188.17,599.41" fill="none" stroke="#000000" stroke-width="1"/><polyline id="SvgjsPolyline1423" points="300.16,330.73 274.15,599.48" fill="none" stroke="#000000" stroke-width="1"/><polyline id="SvgjsPolyline1424" points="300.71,330.49 293.81,350.32 278.7,395.88 212.49,598.33" fill="none" stroke="#000000" stroke-width="1"/><polyline id="SvgjsPolyline1425" points="299.34,336.23 254.45,599.43" fill="none" stroke="#000000" stroke-width="1"/><polyline id="SvgjsPolyline1426" points="298.47,334.73 286.77,355.69 266.06,395.64 163.4,599.21" fill="none" stroke="#000000" stroke-width="1"/><polyline id="SvgjsPolyline1427" points="302.62,331.76 299.71,332.47 295.49,336.73 291.6,341.3 282.45,353.19 268.51,372.72 221.32,442.21 116.55,599.52" fill="none" stroke="#000000" stroke-width="1"/><polyline id="SvgjsPolyline1428" points="296.7,337.01 282.75,360.12 259.24,401.97 151.29,599.38" fill="none" stroke="#000000" stroke-width="1"/><polyline id="SvgjsPolyline1429" points="279.21,283.03 271.96,277.7 264.45,272.75 256.67,268.22 248.64,264.16 240.39,260.57 231.93,257.51 223.29,255 214.5,253.06 202.62,251.38 187.64,250.71 175.65,251.12 151.73,253.07 136.75,253.9 124.76,253.97 109.78,253.13 91.9,251.08 68.2,247.31 38.71,241.78 0.49,234.02" fill="none" stroke="#000000" stroke-width="1"/><polyline id="SvgjsPolyline1430" points="118.93,276.69 104.13,274.27 92.52,271.24 84.07,268.15 56.33,256.72 45.07,252.6 27.95,247.04 1.97,239.67" fill="none" stroke="#000000" stroke-width="1"/><polyline id="SvgjsPolyline1431" points="258.92,295.53 256.25,294.37 89.63,272.95 62.92,268.96 48.24,265.92 33.76,262 19.52,257.31 2.59,251.17" fill="none" stroke="#000000" stroke-width="1"/><polyline id="SvgjsPolyline1432" points="356.2,300.89 360.84,298.24 363.29,299.95 366.02,299 368.55,300.27" fill="none" stroke="#000000" stroke-width="1"/><polyline id="SvgjsPolyline1433" points="379.28,293.3 384.74,295.64" fill="none" stroke="#000000" stroke-width="1"/><polyline id="SvgjsPolyline1434" points="326.37,279.06 336.63,272.83 344.78,269.02 353.31,266.18 362.15,264.57 371.14,264.46 377.08,265.28 382.91,266.7 400.14,271.88 409.05,273.06 415.05,272.97 424,272.01 444.66,268.28" fill="none" stroke="#000000" stroke-width="1"/><polyline id="SvgjsPolyline1435" points="377.35,296.01 382.44,293.66 385.1,292.95 399.64,290.95 599.8,272.62" fill="none" stroke="#000000" stroke-width="1"/><polyline id="SvgjsPolyline1436" points="322.16,281.99 329.47,276.74 337.05,271.89 344.9,267.49 353.01,263.59 361.35,260.21 369.9,257.4 378.62,255.19 384.51,254.08 396.43,252.71 408.42,252.45 420.4,253.11 441.3,255.24 456.26,256.32 468.25,256.44 483.22,255.54 501.09,253.34 521.8,249.92 551.27,244.29 598.28,234.59" fill="none" stroke="#000000" stroke-width="1"/><polyline id="SvgjsPolyline1437" points="343.11,295.28 345.78,294.1 458.85,279.59 473.67,277.27 479.49,275.82 485.16,273.87 512.59,261.73 532.35,254.63 561.18,246.34 599.03,236.94" fill="none" stroke="#000000" stroke-width="1"/><polyline id="SvgjsPolyline1438" points="299.73,331.12 353.52,598.77" fill="none" stroke="#000000" stroke-width="1"/><polyline id="SvgjsPolyline1439" points="299.3,331.17 303.61,339.07 310.29,352.5 328.25,390.47 423.63,597.55" fill="none" stroke="#000000" stroke-width="1"/><polyline id="SvgjsPolyline1440" points="299.5,330.74 313.33,379.83 373.77,599.68" fill="none" stroke="#000000" stroke-width="1"/><polyline id="SvgjsPolyline1441" points="301.79,336.24 311.24,358.3 329.48,402.7 408.18,597.39" fill="none" stroke="#000000" stroke-width="1"/><polyline id="SvgjsPolyline1442" points="302.9,336.83 316.18,360.33 338.64,402.75 440.56,599.97" fill="none" stroke="#000000" stroke-width="1"/><polyline id="SvgjsPolyline1443" points="301.87,334.25 307.47,341.29 316.15,353.53 342.39,393.72 385.57,462.25 471.26,599.73" fill="none" stroke="#000000" stroke-width="1"/><polyline id="SvgjsPolyline1444" points="333.44,306.68 334.88,309.31 337.2,307.58 338.8,310.11 341.18,308.38 343.02,310.75 345.6,309.37 348.22,310.81 351.21,310.96 359.89,313.19 365.88,313.55 368.83,313.08 374.1,310.28 377.03,310.09 380.02,310.33 597.24,338.16" fill="none" stroke="#000000" stroke-width="1"/><polyline id="SvgjsPolyline1445" points="335.09,307.11 336.6,309.7 338.95,307.95 340.64,310.42 343.09,308.79 345.73,310.19 348.71,310.48 360.42,313.06 362.99,314.6 367.22,318.84 379.08,332.38 389.7,342.97 405.51,356.79 421.88,369.94 448.11,389.96 486.76,418.43 598.87,498.9" fill="none" stroke="#000000" stroke-width="1"/><polyline id="SvgjsPolyline1446" points="326.72,278.3 343.65,265.88 366.09,250.86 388.99,236.57 419.96,218.21 453.85,198.91 498.5,174.27 599.04,120.53" fill="none" stroke="#000000" stroke-width="1"/><polyline id="SvgjsPolyline1447" points="339.64,270.06 347.47,265.61 355.5,261.55 363.72,257.88 372.1,254.62 383.52,250.92 392.22,248.63 401.02,246.75 409.9,245.27 421.82,243.9 436.79,243.04 454.79,242.84 493.78,243.24 505.78,242.97 520.76,242.14 535.7,240.8 553.56,238.62 571.37,235.98 597.99,231.45" fill="none" stroke="#000000" stroke-width="1"/><polyline id="SvgjsPolyline1448" points="336.52,271.43 346.56,264.86 356.83,258.66 369.94,251.37 380.61,245.87 407.8,233.23 435.56,221.85 469.35,209.42 509.21,196.19 549.4,183.99 598.48,170.14" fill="none" stroke="#000000" stroke-width="1"/><polyline id="SvgjsPolyline1449" points="343.99,266.78 354.32,260.68 364.89,255 375.66,249.71 389.37,243.61 403.29,238.03 414.56,233.91 428.78,229.14 443.13,224.77 472.11,217.03 504.3,209.77 542.58,202.33 598.78,192.81" fill="none" stroke="#000000" stroke-width="1"/><polyline id="SvgjsPolyline1450" points="324.71,279.72 362.64,250.31 410.81,214.53 488.38,157.98 597.81,78.92" fill="none" stroke="#000000" stroke-width="1"/><polyline id="SvgjsPolyline1451" points="324.26,279.67 335.37,269.59 350.59,255.13 393.27,212.95 460.83,144.75 599.62,3.54" fill="none" stroke="#000000" stroke-width="1"/><polyline id="SvgjsPolyline1452" points="331.42,274.11 599.17,56.53" fill="none" stroke="#000000" stroke-width="1"/><polyline id="SvgjsPolyline1453" points="280.91,284.37 268.64,275.76 258.12,270 252.61,267.61 246.96,265.62 238.22,263.49 229.27,262.6 223.27,262.76 214.38,264.08 194.03,269.24 188.12,270.27 179.14,270.72 170.16,270.09 155.33,267.84 131.79,263.21 2.74,235.43" fill="none" stroke="#000000" stroke-width="1"/><polyline id="SvgjsPolyline1454" points="274.82,279.55 265.16,272.43 255.25,265.66 232.29,251.46 206.02,236.97 173.88,220.76 138.54,204.27 100.09,187.39 53.03,167.71 0.14,146.46" fill="none" stroke="#000000" stroke-width="1"/><polyline id="SvgjsPolyline1455" points="284.55,287.25 268.14,274.15 248.98,259.7 202.54,226.66 123.22,172.58 0.99,90.93" fill="none" stroke="#000000" stroke-width="1"/><polyline id="SvgjsPolyline1456" points="280.2,283.51 269.13,273.39 256.26,260.8 214.61,217.62 134.7,132.16 12.35,0.14" fill="none" stroke="#000000" stroke-width="1"/><polyline id="SvgjsPolyline1457" points="275.5,279.82 240.41,251.65 193.3,214.49 1.79,64.91" fill="none" stroke="#000000" stroke-width="1"/><polyline id="SvgjsPolyline1458" points="271.27,275.81 242.61,249.36 199.36,207.77 0.2,12.39" fill="none" stroke="#000000" stroke-width="1"/><polyline id="SvgjsPolyline1459" points="259.45,266.51 0.69,52.18" fill="none" stroke="#000000" stroke-width="1"/><polyline id="SvgjsPolyline1460" points="283.09,285.96 272.13,275.73 259.64,262.77 243.52,244.99 223.72,222.45 161.21,149.59 35.1,0.86" fill="none" stroke="#000000" stroke-width="1"/><polyline id="SvgjsPolyline1461" points="275.03,277.64 267.19,268.56 255.94,254.5 223.45,211.37 168.55,136.31 69.98,0.26" fill="none" stroke="#000000" stroke-width="1"/><polyline id="SvgjsPolyline1462" points="300.33,335.04 332.86,597.03" fill="none" stroke="#000000" stroke-width="1"/><polyline id="SvgjsPolyline1463" points="299.87,338.06 294.06,599" fill="none" stroke="#000000" stroke-width="1"/><polyline id="SvgjsPolyline1464" points="269.34,275.74 259.29,269.18 248.89,263.19 238.19,257.78 227.21,252.92 216.01,248.62 201.75,243.99 190.16,240.86 175.53,237.57 154.85,233.94 131.02,231.11 110.09,229.44 44.22,225.33 23.3,223.48 2.42,221.2" fill="none" stroke="#000000" stroke-width="1"/><polyline id="SvgjsPolyline1465" points="382.3,299.2 385.18,299.08 390.46,297.25 395.87,299.22 398.65,298.8 404.23,300.73 407.02,301.05 412.38,303.01 415.13,302.68 417.93,301.66 420.75,301.37 423.48,300.13 432.02,301.68 434.9,301.31 437.74,301.51 440.5,302.68 446.18,303.47 449.06,303.5 451.93,302.95 460.62,303.13 466.44,302.75 469.31,303.36 472.22,303.36 475.17,302.88 478.1,302.97 481,303.63 483.89,302.83 486.83,303.37 489.76,303.27 492.69,303.83 495.58,303.28 498.48,303.8 504.38,304.06 507.32,303.48 510.21,304.28 516.1,304.01 521.96,304.59 527.89,304.76 539.74,304.31 545.63,305.16 551.54,305.06 557.45,305.53 560.4,305.22 566.28,305.89 572.21,305.48 584.11,306.21 599.02,306.66" fill="none" stroke="#000000" stroke-width="1"/><polyline id="SvgjsPolyline1466" points="376.8,295.99 379.49,296.37 382.02,297.6 384.92,297.86 387.67,297.06 390.41,296.85 393.1,297.54 395.93,297.11 398.78,297.53 401.63,296.9 404.39,297.6 407.15,296.93 409.95,297.65 412.84,297.72 418.45,296.17 424.28,295.74 429.96,296.32 435.73,295.34 438.63,295.21 441.52,295.58 444.39,295.03 447.29,295.39 453.07,294.25 461.72,293.4 464.65,293.96 470.49,294.19 482.2,293.66 487.99,292.51 490.94,293 493.85,292.38 496.8,292.69 499.71,292.1 502.65,292.56 505.56,291.91 508.51,292.38 511.42,291.7 514.37,292.17 517.28,291.48 523.17,292.4 526.14,292.37 598.02,290.01" fill="none" stroke="#000000" stroke-width="1"/><polyline id="SvgjsPolyline1467" points="338.72,295.15 340.87,293.14 343.29,294.87 346.14,294.07 494.92,274.93 506.79,273.22 518.61,271.11 527.36,269.02 538.82,265.47 575.28,251.63 598,243.9" fill="none" stroke="#000000" stroke-width="1"/><polyline id="SvgjsPolyline1468" points="506.64,273.47 542.33,268.76 563.09,265.63 580.78,262.31 598.31,258.24" fill="none" stroke="#000000" stroke-width="1"/><polyline id="SvgjsPolyline1469" points="362.69,313.61 377.29,317.05 382.66,319.69 392.02,327.19 407.38,341.51 420.97,353.31 437.37,366.43 456.54,380.86 480.87,398.41 512.83,420.76 599.65,479.81" fill="none" stroke="#000000" stroke-width="1"/><polyline id="SvgjsPolyline1470" points="332.74,307.11 394.26,320.68 402.81,323.47 413.58,328.76 423.65,335.27 466.84,367.68 496.31,388.36 538.77,416.61 599.4,455.44" fill="none" stroke="#000000" stroke-width="1"/><polyline id="SvgjsPolyline1471" points="332.44,307.04 440.95,330.42 464.52,334.93 488.26,338.43 503.2,339.69 518.2,339.93 530.18,339.33 551.11,337.61 566.1,337.18 581.09,337.74 599.03,339.23" fill="none" stroke="#000000" stroke-width="1"/><polyline id="SvgjsPolyline1472" points="372.35,305.74 375.06,306.92 503.53,318.53 509.53,318.63 521.39,316.86 530.38,316.56 599.22,321.22" fill="none" stroke="#000000" stroke-width="1"/><polyline id="SvgjsPolyline1473" points="343.92,266.15 364.23,253.36 387.7,240.03 411.64,227.53 441.3,213.08 474.02,198.07 512.51,181.25 551.21,164.95 598.43,145.68" fill="none" stroke="#000000" stroke-width="1"/><polyline id="SvgjsPolyline1474" points="336.76,270.52 353.72,258.14 375.88,242.72 425.89,209.57 504.28,159.53 598.37,100.64" fill="none" stroke="#000000" stroke-width="1"/><polyline id="SvgjsPolyline1475" points="326.8,277.6 358.02,249.5 401.87,208.55 599.78,20.51" fill="none" stroke="#000000" stroke-width="1"/><polyline id="SvgjsPolyline1476" points="259.99,269.26 249.78,262.96 239.32,257.08 225.95,250.27 215.06,245.23 201.25,239.38 187.25,233.99 161.69,225.31 130,216.12 92.13,206.78 53.99,198.67 0.92,188.7" fill="none" stroke="#000000" stroke-width="1"/><polyline id="SvgjsPolyline1477" points="273.99,278.84 257.09,266.38 234.7,251.3 211.84,236.93 180.92,218.5 152.29,202.08 105.09,175.84 2.08,120.38" fill="none" stroke="#000000" stroke-width="1"/><polyline id="SvgjsPolyline1478" points="255.24,265.96 245.02,259.68 231.97,252.28 210.59,241.37 183.25,229.03 155.43,217.82 121.6,205.51 87.44,194.14 47.33,181.7 1.23,168.31" fill="none" stroke="#000000" stroke-width="1"/><polyline id="SvgjsPolyline1479" points="257.16,266.69 237.07,253.56 219.09,242.71 192.97,227.95 163.85,212.43 129.09,194.74 91.38,176.25 45.34,154.32 1.83,134.04" fill="none" stroke="#000000" stroke-width="1"/><polyline id="SvgjsPolyline1480" points="255.94,265.25 238.76,253.16 216.35,238.11 165.8,205.79 91.68,160.24 1.68,106.14" fill="none" stroke="#000000" stroke-width="1"/><polyline id="SvgjsPolyline1481" points="272.77,278.13 260.38,269.68 250.1,263.49 236.87,256.44 226.01,251.32 212.18,245.53 198.09,240.38 183.8,235.82 169.35,231.81 154.77,228.28 140.09,225.19 122.38,221.99 104.59,219.23 71.87,214.99 0.32,206.93" fill="none" stroke="#000000" stroke-width="1"/><polyline id="SvgjsPolyline1482" points="323.17,304.98 408.14,323.66 422.55,327.81 433.67,332.31 441.68,336.41 452,342.53 524.65,390.39 555.09,409.61 598.56,436.27" fill="none" stroke="#000000" stroke-width="1"/><polyline id="SvgjsPolyline1483" points="322.69,304.88 425.24,327.4 442.64,331.99 459.68,337.78 468,341.21 478.88,346.27 500.13,357.42 598.83,414.47" fill="none" stroke="#000000" stroke-width="1"/><polyline id="SvgjsPolyline1484" points="413.97,324.76 446.18,331.93 466.59,336.89 486.83,342.48 503.98,347.95 526.52,356.2 545.95,364.14 570.62,375.12 597.74,387.94" fill="none" stroke="#000000" stroke-width="1"/><polyline id="SvgjsPolyline1485" points="431.16,328.47 489.89,340.74 528.29,347.53 549.09,350.39 566.99,352.31 584.94,353.6 599.93,354.16" fill="none" stroke="#000000" stroke-width="1"/><polyline id="SvgjsPolyline1486" points="435.19,329.54 455.56,334.65 469.95,338.89 484.13,343.78 500.82,350.5 517.19,357.97 536.01,367.31 599.59,401.08" fill="none" stroke="#000000" stroke-width="1"/><polyline id="SvgjsPolyline1487" points="380.21,317.42 465.21,335.99 511.94,346.96 552.52,357.78 572.66,363.73 598.4,371.85" fill="none" stroke="#000000" stroke-width="1"/></g></svg>