<?xml version="1.0" standalone="no"?>
<svg id="SvgjsSvg1001" width="600" height="600" xmlns="http://www.w3.org/2000/svg" version="1.1" xmlns:xlink="http://www.w3.org/1999/xlink" xmlns:svgjs="http://svgjs.com/svgjs" class="svg-paper" viewBox="0 0 600 600"><title id="SvgjsTitle1492">x=sin((x-y*min(y,(sin(y)+sqrt(x*x + y*y)))))|y=x|dTest=0.0|sd=0.2|sm=0.2|ts=0.05 | generated with FlowLines</title><g id="SvgjsG1493"><polyline id="SvgjsPolyline1494" points="0,521.08 0.06,524.08" fill="none" stroke="#000000" stroke-width="1"/><polyline id="SvgjsPolyline1495" points="0.02,283.26 10.82,339.23 13.03,354.06 14.02,366.02 14.05,375.02 13.35,383.99 11.99,392.88 8.52,410.54 7.66,416.48 7.21,422.46 7.26,428.46 7.81,434.43 11.61,455.08 12.37,464.04 12.05,470.03 8.9,487.75 8.41,493.72 8.68,499.71 11.35,514.47 12.21,523.42 11.98,529.41 9.83,541.21 9.17,547.17 9.46,553.16 11.62,564.96 12.08,570.94 11.49,576.9 9.51,588.72 9.49,591.72 10.24,597.67" fill="none" stroke="#000000" stroke-width="1"/><polyline id="SvgjsPolyline1496" points="10.57,2.01 10.85,4.99 10.56,10.98 8.89,19.82 8.21,25.78 8.54,31.76 10.69,43.56 10.99,49.55 10.35,55.51 8.16,67.31 7.81,73.29 8.33,79.26 10.98,94.02 11.23,100.01 10.73,105.99 7.53,123.7 7.08,129.68 7.65,138.65 11.38,159.31 11.88,165.29 11.86,171.29 10.46,183.2 6.44,203.81 5.13,212.71 4.4,221.68 4.33,230.68 5.15,242.65 7.78,260.45 13.02,286.93 25.96,348.59 28,360.42 29.33,372.34 29.6,381.33 29.06,390.31 27.75,399.21 23.58,419.79 22.83,425.75 22.58,431.74 23.24,440.71 27.23,461.32 27.96,470.28 27.56,476.26 24.24,493.95 23.82,499.93 24.24,505.91 27.08,520.63 27.6,526.61 27.17,532.59 24.86,544.36 24.37,550.33 24.89,556.3 26.68,565.12 27.42,571.07 27.07,577.05 24.87,588.84 24.7,591.84 25.25,597.8" fill="none" stroke="#000000" stroke-width="1"/><polyline id="SvgjsPolyline1497" points="0.07,346.98 1.2,358.92 1.54,367.92 1.27,376.91 0.34,385.86" fill="none" stroke="#000000" stroke-width="1"/><polyline id="SvgjsPolyline1498" points="0.15,459.87 0.26,468.86" fill="none" stroke="#000000" stroke-width="1"/><polyline id="SvgjsPolyline1499" points="0.12,565.89 0.01,568.89" fill="none" stroke="#000000" stroke-width="1"/><polyline id="SvgjsPolyline1500" points="22.41,0.39 23.07,6.35 23.1,9.35 22.83,12.33 20.62,24.12 20.36,30.11 21.14,36.05 22.87,44.88 23.22,50.87 22.57,56.83 20.29,68.6 19.91,74.59 20.45,80.56 23.19,95.3 23.45,101.29 22.89,107.26 19.57,124.94 19.15,130.93 19.81,139.89 23.66,160.53 24.12,169.51 23.72,175.49 22.89,181.44 18.72,202.02 17.31,210.9 16.53,219.87 16.47,228.87 17.79,243.8 20.3,258.59 31.65,311.38 41.47,355.3 43.69,367.09 45.12,379 45.33,387.99 44.62,396.96 43.09,405.83 39.27,423.41 38.26,432.35 38.3,438.35 38.93,444.31 42.62,461.93 43.76,470.85 43.26,479.82 40.21,494.5 39.52,500.46 39.7,506.45 43.1,524.11 43.43,530.1 42.76,536.05 40.84,544.85 40.08,550.79 40.39,556.77 42.8,568.53 43.29,574.5 42.61,580.45 40.75,589.25 40.45,595.24 40.78,598.22" fill="none" stroke="#000000" stroke-width="1"/><polyline id="SvgjsPolyline1501" points="34.6,1.55 35.1,7.52 34.88,10.51 32.58,22.28 32.2,28.26 32.94,34.21 34.77,43.02 35.21,48.99 34.6,54.96 32.21,66.71 31.76,72.69 32.27,78.66 35.14,93.38 35.43,99.37 34.86,105.34 31.4,123 30.97,128.98 31.69,137.94 34.75,152.62 35.68,158.55 36.06,167.53 35.58,173.51 34.65,179.43 30.88,197.04 29.33,205.9 28.44,214.85 28.34,223.85 29.33,235.8 31.86,250.58 47.87,323.86 57.49,364.74 59.72,376.53 60.71,385.47 60.82,394.47 60.31,400.44 58.77,409.31 54.72,426.84 53.63,435.77 53.68,441.77 54.37,447.72 58.29,465.29 59.4,474.21 59.39,477.21 58.73,483.17 55.49,497.81 54.89,503.77 55.25,509.76 58.42,524.41 59.07,530.37 58.65,536.35 56.06,548.06 55.49,554.03 56.09,559.99 58.1,568.76 58.91,574.7 58.48,580.67 56.03,592.41 56.07,598.4" fill="none" stroke="#000000" stroke-width="1"/><polyline id="SvgjsPolyline1502" points="46.87,0.48 47.04,6.47 46.79,9.46 44.38,21.21 44.03,27.19 44.84,33.13 46.74,41.93 47.14,47.91 46.45,53.86 43.96,65.6 43.56,71.58 44.17,77.54 47.13,92.24 47.34,98.23 46.66,104.18 43.52,118.85 42.75,127.8 43.66,136.74 47.37,154.35 48.02,163.32 47.66,169.31 46.78,175.24 41.22,201.66 40.25,210.6 40.15,219.6 41.25,231.54 43.38,243.35 52.69,284.3 62.27,331.33 72.98,375.04 74.58,383.89 75.25,389.86 75.41,398.85 74.87,404.82 73.21,413.66 68.96,431.15 67.97,440.09 68.53,449.06 69.66,454.95 73.21,469.52 73.99,475.47 74.07,478.46 73.54,484.43 70.13,499.04 69.36,504.98 69.34,507.98 70.06,513.93 72.88,525.59 73.7,531.53 73.39,537.51 70.68,549.2 69.96,555.14 70.48,561.11 72.6,569.86 73.55,575.77 73.2,581.75 70.58,593.45 70.53,599.44" fill="none" stroke="#000000" stroke-width="1"/><polyline id="SvgjsPolyline1503" points="58.91,2.46 58.69,8.44 56.17,20.17 55.85,26.15 56.75,32.08 58.71,40.86 59.07,46.84 58.28,52.78 55.71,64.49 55.36,70.47 56.07,76.43 58.71,88.13 59.31,94.09 59.24,97.09 58.44,103.03 55.17,117.67 54.53,123.63 54.52,126.63 55.63,135.55 58.38,147.23 59.45,153.13 59.91,162.11 58.92,171.05 54.24,191.52 52.66,200.38 52.04,206.34 51.91,215.34 52.68,224.3 54.16,233.18 64.31,277.01 73.96,330.14 77.95,347.69 86.36,379.6 88.1,388.43 88.81,394.39 88.93,403.38 88.3,409.34 87.17,415.23 82.63,432.65 81.34,441.55 81.38,447.54 82.17,453.49 86.57,470.94 87.52,476.86 87.68,479.85 87.25,485.83 83.69,500.39 82.77,506.32 82.9,512.3 84.02,518.2 86.93,529.83 87.33,535.81 86.5,541.74 84.22,550.45 83.39,556.38 83.87,562.35 86.75,573.99 87.19,579.96 86.85,582.94 84.07,594.6 83.81,597.59" fill="none" stroke="#000000" stroke-width="1"/><polyline id="SvgjsPolyline1504" points="70.87,1.48 70.58,7.46 68.52,16.22 67.63,22.14 68.03,28.12 70.69,39.81 70.99,45.79 70.1,51.72 67.43,63.41 67.15,69.4 67.97,75.34 70.72,87.01 71.25,92.98 70.76,98.95 67.35,113.56 66.41,119.48 66.24,122.48 66.29,125.47 67.01,131.43 71.08,148.96 71.87,157.91 71.49,163.89 70.51,169.81 66.24,187.3 64.51,196.13 63.81,202.08 63.63,211.08 64.44,220.04 66.02,228.89 73.27,258.01 76.98,275.62 78.93,287.46 83.49,320.14 86.6,337.87 90.74,355.38 98.82,384.27 100.63,393.08 101.33,399.04 101.32,408.03 100.53,413.98 99.22,419.83 94.5,437.19 93.48,446.12 93.54,449.12 94.27,455.07 98.88,472.47 99.97,478.36 100.19,481.35 99.83,487.33 95.47,504.79 94.96,510.75 95.62,516.71 99.4,531.22 99.87,537.19 99.02,543.12 96.61,551.79 95.71,557.71 96.19,563.68 99.24,575.28 99.73,581.24 99.37,584.22 96.43,595.84 96.16,598.83" fill="none" stroke="#000000" stroke-width="1"/><polyline id="SvgjsPolyline1505" points="82.83,0.56 82.46,6.53 80.27,15.26 79.4,21.19 79.9,27.15 82.67,38.82 82.9,44.8 81.9,50.71 79.65,59.42 78.88,65.37 79.28,71.34 82.73,85.93 83.18,91.91 82.55,97.87 78.41,115.37 77.94,121.35 78.06,124.35 78.94,130.28 83.17,147.77 83.76,156.73 82.69,165.66 77.55,186.01 76.36,191.89 75.35,200.83 75.3,206.83 75.74,212.81 77.18,221.69 85.38,253.65 88.93,271.3 90.92,286.16 94.46,321.99 97.12,339.78 101.1,357.33 110.36,389 111.67,394.86 112.57,400.79 112.8,409.78 112.11,415.73 110.82,421.59 105.81,438.88 104.6,447.78 104.62,450.78 105.32,456.73 106.71,462.57 110.15,474.07 111.35,479.94 111.61,482.93 111.28,488.91 109.96,494.76 106.7,506.3 106.14,512.26 106.83,518.22 110.81,532.67 111.31,538.63 110.41,544.56 107.87,553.19 106.93,559.1 107.47,565.06 110.69,576.62 111.14,579.58 111.17,582.58 110.78,585.55 107.68,597.13" fill="none" stroke="#000000" stroke-width="1"/><polyline id="SvgjsPolyline1506" points="95.43,1.42 91.89,15.99 91.47,18.96 91.77,24.93 94.71,36.56 95.16,42.53 94.24,48.45 91.25,60.07 90.87,66.04 91.74,71.97 94.78,83.58 95.39,89.54 94.82,95.5 90.44,112.95 89.88,118.92 89.97,121.91 90.84,127.85 95.3,145.28 95.73,148.25 95.94,154.24 94.79,163.15 89.37,183.44 88.15,189.31 87.38,195.26 87.24,204.25 87.82,210.22 89.49,219.06 97.39,248 99.35,256.78 100.87,265.65 102.7,283.55 104.69,322.5 105.9,334.44 107.23,343.34 108.99,352.17 111.17,360.9 120.87,392.44 122.78,401.23 123.41,407.19 123.34,413.19 122.53,419.13 121.1,424.95 115.89,442.18 114.98,448.1 114.87,451.1 114.99,454.1 115.91,460.02 121.06,477.26 122.12,483.16 122.26,486.15 121.6,492.11 117.37,506.49 116.52,512.42 116.97,518.39 121.14,532.79 121.96,538.72 121.3,544.67 118.66,553.27 117.42,559.13 117.35,562.13 117.68,565.11 121.03,576.62 121.86,582.55 120.97,588.46 118.36,597.07" fill="none" stroke="#000000" stroke-width="1"/><polyline id="SvgjsPolyline1507" points="107.42,1.78 104.34,13.36 103.51,19.29 104.25,25.23 107.29,36.83 107.33,42.81 106.81,45.76 103.59,57.32 102.92,63.27 103.59,69.22 107.39,83.72 107.64,89.7 106.69,95.62 102.67,110.06 101.92,116.01 101.93,119.01 102.73,124.95 107.45,142.31 108.21,148.26 108.25,151.25 107.1,160.17 102.17,177.47 100.11,186.23 99.31,192.18 99.11,198.17 99.5,204.15 101.05,213.02 110.05,244.76 111.9,253.56 113.2,262.47 113.96,271.44 114.31,280.43 114.11,313.43 114.36,325.42 115.22,337.39 116.39,346.31 118.08,355.15 120.27,363.88 131.18,398.18 132.42,404.05 133.08,410.01 132.98,416 132.09,421.93 130.54,427.72 125.84,441.97 124.59,447.83 124.29,450.82 124.44,456.81 124.89,459.77 126.36,465.59 130.96,479.86 131.91,485.77 131.63,491.76 130.21,497.58 126.59,509.01 125.94,514.96 126.69,520.91 131.11,535.23 131.67,541.19 130.66,547.09 127.85,555.63 126.83,561.53 126.95,564.53 127.47,567.48 130.23,576.04 131.52,581.89 131.54,584.89 131.08,587.85 127.66,599.33" fill="none" stroke="#000000" stroke-width="1"/><polyline id="SvgjsPolyline1508" points="120.24,0.58 117.56,9.17 116.8,15.1 117.63,21.03 120.98,32.54 121.43,38.51 120.58,44.44 117.14,55.93 116.48,61.88 117.28,67.82 119.94,76.41 121.31,82.25 121.47,88.23 120.36,94.12 116.09,108.49 115.39,114.44 115.46,117.44 116.43,123.36 119.97,134.82 121.45,140.63 122.11,146.59 122.06,149.59 120.59,158.45 115.27,175.65 113.8,181.46 112.82,187.38 112.48,193.37 112.81,199.35 113.75,205.28 115.99,213.99 121.5,231.13 123.91,239.8 125.72,248.61 126.82,257.54 127.26,266.53 127.06,278.53 124.71,311.44 124.19,323.43 124.32,335.43 125.37,347.38 126.85,356.25 128.92,365.01 132.47,376.47 140.35,399.14 141.83,404.95 142.74,410.88 142.88,416.87 142.15,422.82 140.67,428.63 134.88,445.67 133.82,451.57 133.67,454.56 133.79,457.56 134.79,463.47 140.49,480.53 141.67,486.41 141.8,489.4 141.03,495.34 136.35,509.58 135.48,515.51 136.09,521.46 140.74,535.71 141.55,541.64 141.31,544.63 140.67,547.56 137.72,556.06 136.47,561.91 136.48,564.91 136.94,567.87 140.7,579.26 141.31,582.19 141.46,585.18 141.09,588.16 140.3,591.05 137.46,599.58" fill="none" stroke="#000000" stroke-width="1"/><polyline id="SvgjsPolyline1509" points="132.4,0.95 131.15,6.81 130.95,9.8 131.24,12.78 131.94,15.7 134.78,24.24 135.39,27.17 135.48,33.15 134.29,39.03 129.56,53.26 128.57,59.16 128.65,62.16 129.13,65.12 133.49,79.46 133.93,85.43 132.94,91.33 128.36,105.61 127.41,111.53 127.39,114.52 128.26,120.45 133.62,137.63 134.44,143.56 134.45,146.56 134.18,149.55 132.98,155.42 127.34,172.51 125.76,178.3 124.7,184.2 124.34,190.19 124.72,196.17 126.48,204.99 134.05,227.76 136.48,236.42 138.15,245.26 138.98,254.22 139.03,263.22 138.21,275.19 133.56,310.89 132.4,322.83 131.96,337.82 132.77,349.78 134.17,358.67 137.07,370.31 139.89,378.86 147.19,398.55 148.94,404.28 150.23,410.14 150.79,416.11 150.44,422.1 149.92,425.05 148.32,430.83 144.12,442.07 142.32,447.79 141.31,453.7 141.21,456.69 141.4,459.69 142.57,465.57 148.53,482.54 149.63,488.43 149.35,494.41 147.79,500.19 143.8,511.5 143.11,517.45 143.97,523.37 147.99,534.67 149.36,540.5 149.45,543.49 149.06,546.47 148.29,549.36 145.19,557.81 144.44,560.72 144.11,563.69 144.27,566.69 144.88,569.62 147.94,578.08 149.34,583.9 149.34,586.9 148.8,589.84 145.78,598.32" fill="none" stroke="#000000" stroke-width="1"/><polyline id="SvgjsPolyline1510" points="143.49,1.91 143.98,7.88 144.71,10.79 147.73,19.26 148.34,22.2 148.51,25.19 147.61,31.11 141.63,48.08 140.17,53.89 139.74,56.86 139.69,59.86 140.08,62.83 144.72,77.08 145.41,83.02 144.53,88.94 140.57,100.26 138.94,106.03 138.38,112 138.62,114.99 139.96,120.83 144.85,135 145.83,140.91 145.88,143.91 145.63,146.9 144.4,152.76 138.42,169.74 136.72,175.49 135.6,181.38 135.22,187.36 135.65,193.34 137.58,202.13 145.61,224.74 148.05,233.4 149.19,239.29 150.05,248.24 149.97,257.24 149.17,266.2 147.37,278.06 140.3,316.41 138.88,328.33 138.34,340.31 138.71,349.3 139.37,355.26 141.71,367.03 145.24,378.49 154.77,403.75 156.34,409.54 157.26,415.46 157.28,421.45 156.31,427.37 154.56,433.1 149.22,447.12 147.85,452.95 147.55,455.94 147.55,458.94 148.43,464.86 150.2,470.59 154.54,481.78 156.03,487.58 156.33,490.57 155.75,496.52 154.96,499.41 150.72,510.64 149.55,516.51 149.55,519.5 149.97,522.47 150.72,525.37 154.95,536.6 156.1,542.47 156,545.47 155.43,548.41 151.33,559.68 150.71,562.61 150.56,565.6 150.92,568.58 151.71,571.47 154.93,579.87 155.73,582.76 156.08,585.74 155.85,588.72 155.12,591.63 152.94,597.22" fill="none" stroke="#000000" stroke-width="1"/><polyline id="SvgjsPolyline1511" points="154.81,2.18 159.76,16.32 160.17,19.29 160.06,22.29 158.63,28.1 154.2,39.25 152.35,44.96 151.35,50.87 151.28,53.86 151.52,56.85 152.84,62.7 157.08,73.92 157.85,76.82 158.23,79.79 158.16,82.79 156.84,88.63 151.61,102.68 150.68,108.59 150.75,111.59 151.93,117.46 157.22,131.49 158.51,137.34 158.69,140.33 158.54,143.33 157.38,149.21 155.46,154.89 151.02,166.04 148.38,174.64 147.44,180.56 147.37,186.55 148.18,192.49 149.7,198.29 158.29,220.7 160.82,229.33 162.26,238.21 162.51,247.2 161.76,256.16 159.69,267.98 150.28,305.82 147.17,320.5 145.44,332.37 144.77,344.34 145.45,356.32 147.64,368.11 151.16,379.58 160.06,401.86 162,407.54 163.45,413.36 164.1,419.32 163.74,425.3 163.17,428.24 161.41,433.98 155.84,447.9 154.33,453.7 153.97,456.68 153.92,459.68 154.75,465.61 156.55,471.33 162,485.29 163.07,491.18 163.03,494.18 162.58,497.15 160.76,502.85 157.38,511.2 156.06,517.03 156.01,520.03 157.16,525.91 161.55,537.07 162.4,539.94 162.86,542.9 162.83,545.9 162.28,548.85 158.03,560.06 157.32,562.97 157.1,565.96 157.41,568.94 158.18,571.83 161.53,580.19 162.42,583.05 162.87,586.01 162.72,589 162.01,591.91 159.78,597.48" fill="none" stroke="#000000" stroke-width="1"/><polyline id="SvgjsPolyline1512" points="167.38,2.15 170.82,10.45 171.61,13.35 171.83,16.33 171.48,19.31 170.69,22.2 165.99,33.24 163.97,38.88 162.9,44.78 162.87,47.77 163.21,50.75 164.81,56.53 169.55,67.55 171.49,73.22 172.12,76.15 172.34,79.14 172.05,82.12 171.33,85.04 166.69,96.1 164.73,101.76 163.99,107.7 164.24,110.69 165.79,116.47 171.52,130.32 172.65,136.2 172.67,139.2 172.32,142.18 170.77,147.97 163.76,164.54 161.84,170.23 160.63,176.1 160.36,182.08 161.09,188.03 162.65,193.82 164.77,199.43 170.82,213.16 173.86,221.62 175.74,230.42 176.19,239.4 175.75,245.38 174.85,251.31 172.1,262.99 159.43,303.03 154.67,320.38 151.92,335.12 151,347.08 151.1,353.08 151.6,359.06 152.52,364.99 153.85,370.84 157.53,382.25 167.81,407.21 169.55,412.95 170.58,418.86 170.58,424.85 169.49,430.74 167.54,436.41 161.79,450.26 160.41,456.09 160.16,459.08 160.25,462.08 161.36,467.96 163.38,473.61 168.04,484.66 169.54,490.46 169.76,493.45 169.53,496.44 168.9,499.37 163.39,513.31 162.66,516.22 162.34,519.2 162.49,522.19 163.08,525.13 168.57,539.07 169.31,541.98 169.6,544.96 169.33,547.95 168.57,550.85 165.1,559.15 164.14,561.99 163.59,564.93 163.59,567.93 164.14,570.87 168.58,582.01 169.35,584.91 169.59,587.89 169.19,590.86 168.27,593.71 165.88,599.22" fill="none" stroke="#000000" stroke-width="1"/><polyline id="SvgjsPolyline1513" points="179.45,0.15 183.11,8.36 183.63,11.3 183.48,14.29 181.67,20 177.76,28.1 175.55,33.68 174.45,39.56 174.5,42.55 175.82,48.39 180.82,59.29 183.02,64.87 183.77,67.77 184.31,73.74 184.13,76.73 182.99,82.62 181.97,85.43 176.87,96.3 175.1,102.02 174.76,104.99 174.87,107.99 175.41,110.94 177.47,116.57 182.51,127.45 183.96,133.26 184.11,136.25 183.83,139.24 182.29,145.02 174.79,161.38 172.64,166.98 171.21,172.8 170.78,178.78 171.46,184.73 173.08,190.5 175.33,196.06 181.81,209.59 185.06,217.97 186.99,226.75 187.23,235.74 186.03,244.65 182.98,256.25 179.07,267.59 166.38,301.28 162.55,312.65 160.01,321.29 156.8,335.93 155.73,344.87 155.49,350.86 155.67,356.86 156.3,362.82 157.37,368.73 158.85,374.54 162.84,385.85 171.24,405.1 173.33,410.72 174.88,416.51 175.55,422.46 175.47,425.46 174.42,431.36 172.46,437.03 166.52,450.8 165.03,456.6 164.73,459.58 164.78,462.58 165.87,468.47 167.9,474.11 172.73,485.09 174.35,490.86 174.63,493.84 174.46,496.84 173.85,499.77 168.17,513.64 167.38,516.53 167,519.51 167.1,522.5 167.66,525.45 168.58,528.3 173.32,539.32 174.13,542.21 174.49,545.18 174.29,548.17 173.56,551.08 170,559.34 168.97,562.15 168.34,565.08 168.26,568.08 168.76,571.03 169.7,573.88 173.31,582.12 174.18,584.99 174.52,587.96 174.19,590.94 173.31,593.8 170.86,599.28" fill="none" stroke="#000000" stroke-width="1"/><polyline id="SvgjsPolyline1514" points="192.97,0.59 194.34,3.26 195.33,6.08 195.6,9.06 195.11,12.02 194.09,14.83 187.39,28.24 186.5,31.11 186.01,34.06 186.01,37.06 186.51,40.01 187.43,42.86 192.87,53.55 195.12,59.11 195.79,62.03 196,68.01 194.88,73.9 192.95,79.57 190.56,85.08 186.41,93.06 184.13,98.6 183.44,101.52 183.2,104.51 183.45,107.49 185.21,113.22 191.77,126.69 192.64,129.56 193.11,132.52 193.13,135.52 192.7,138.48 190.86,144.18 182.85,160.3 180.65,165.88 179.26,171.71 178.98,177.69 179.88,183.61 181.75,189.31 184.23,194.77 191.08,208.12 194.35,216.49 195.12,219.39 196.03,225.32 196.17,228.31 195.83,234.3 194.12,243.13 190.44,254.55 172.06,298.88 164.92,318.63 162.42,327.27 160.43,336.05 159.14,344.95 158.76,350.94 158.81,356.94 159.33,362.91 160.32,368.83 161.75,374.66 165.7,385.98 174.27,405.15 176.48,410.73 178.18,416.48 179.04,422.41 178.74,428.39 178.14,431.33 176.23,437.01 170.13,450.71 168.47,456.47 168.07,459.44 168.03,462.44 168.99,468.35 170.99,474 176.98,487.75 178.15,493.61 178.09,496.61 177.57,499.56 176.67,502.42 171.83,513.4 170.93,516.26 170.42,519.21 170.4,522.21 170.86,525.17 172.85,530.82 176.57,539.01 177.51,541.86 178.02,544.81 177.97,547.81 177.35,550.74 172.65,561.77 171.88,564.67 171.63,567.65 172,570.63 172.86,573.5 176.55,581.7 177.55,584.53 178.07,587.48 177.93,590.47 177.17,593.36 174.72,598.84" fill="none" stroke="#000000" stroke-width="1"/><polyline id="SvgjsPolyline1515" points="206.83,0.42 207.21,6.38 206.55,9.3 205.34,12.04 199.34,22.43 197.3,28.05 196.97,31.03 197.23,34.01 198.04,36.9 199.26,39.64 205.21,50.05 206.38,52.81 207.17,55.7 207.52,58.68 207.4,61.68 206.07,67.52 203.84,73.08 192.49,94.22 190.53,99.88 190.18,102.85 190.34,105.84 192.06,111.57 197.74,122.14 200.01,127.68 200.6,130.62 200.71,133.61 200.33,136.59 198.46,142.28 190.04,158.18 187.65,163.68 186.06,169.46 185.62,175.43 186.46,181.36 188.36,187.05 190.92,192.47 198.12,205.63 201.61,213.91 203.03,219.74 203.38,222.72 203.5,225.71 203.06,231.69 201.1,240.47 197.04,251.76 177.27,295.49 172.65,306.57 168.45,317.8 165.71,326.38 163.47,335.09 161.91,343.95 161.34,349.92 161.32,358.92 161.91,364.89 162.99,370.79 164.51,376.59 168.64,387.85 178.5,409.73 180.42,415.41 181.6,421.29 181.66,427.28 180.49,433.15 178.39,438.77 172.25,452.44 170.79,458.25 170.54,461.24 170.66,464.24 171.92,470.09 174.11,475.67 179.11,486.58 180.71,492.35 180.92,495.34 180.65,498.33 179.93,501.24 174,515 173.24,517.9 172.94,520.88 173.14,523.87 173.81,526.79 179.74,540.56 180.53,543.45 180.82,546.43 180.51,549.41 179.67,552.28 175.93,560.47 174.91,563.28 174.32,566.22 174.34,569.22 174.95,572.15 179.74,583.14 180.59,586.01 180.87,589 180.44,591.96 178.19,597.51" fill="none" stroke="#000000" stroke-width="1"/><polyline id="SvgjsPolyline1516" points="221.93,2.18 220.71,4.92 217.61,10.05 212.54,17.48 211.08,20.11 209.97,22.89 209.38,25.82 209.49,28.81 210.28,31.7 211.57,34.41 218.14,44.44 219.45,47.14 220.33,50 220.65,52.98 220.39,55.97 219.67,58.88 218.63,61.69 215.95,67.05 200.18,92.57 197.95,98.12 197.45,101.08 197.5,104.07 198.1,107.01 199.15,109.82 205.1,120.23 207.66,125.64 208.42,128.54 208.66,131.53 208.35,134.51 207.59,137.41 205.17,142.89 197.62,155.85 195,161.25 193.15,166.95 192.47,172.89 193.17,178.84 195.05,184.53 197.7,189.91 205.3,202.84 209.08,211 210.65,216.78 211.04,219.76 211.17,222.75 210.67,228.73 208.47,237.44 205.24,245.84 200.17,256.72 182.83,291.65 176.66,305.32 172.16,316.44 168.26,327.79 165.93,336.48 164.31,345.33 163.72,351.3 163.59,357.3 163.96,363.28 164.83,369.22 166.19,375.06 170.1,386.4 181.28,410.97 183.18,416.66 184.28,422.55 184.21,428.53 182.9,434.38 174.49,453.6 173.14,459.44 172.98,462.43 173.2,465.42 174.63,471.24 181.98,487.66 183.45,493.46 183.55,496.46 183.16,499.43 181.21,505.09 177.34,513.22 176.31,516.03 175.64,518.95 175.44,521.94 175.77,524.92 176.55,527.81 181.52,538.73 183.31,544.44 183.48,547.43 183.02,550.39 182.07,553.23 178.25,561.37 177.28,564.21 176.82,567.17 176.98,570.16 177.71,573.07 182.62,584.01 183.39,586.9 183.52,589.89 182.95,592.83 180.55,598.32" fill="none" stroke="#000000" stroke-width="1"/><polyline id="SvgjsPolyline1517" points="233.93,2.43 232.44,5.03 226.8,12.05 223.41,16.98 222.22,19.73 221.69,22.68 222.01,25.65 223.1,28.44 224.67,30.99 230.27,38.04 231.97,40.51 233.31,43.19 234.06,46.08 234.06,49.08 233.4,52 230.88,57.43 227.62,62.47 211.83,84.36 207.17,92.06 204.93,97.61 204.5,100.57 204.68,103.56 205.42,106.47 208.07,111.84 214.44,122 215.62,124.76 216.36,127.66 216.52,130.65 216.09,133.61 213.96,139.21 204.52,154.53 201.77,159.85 199.82,165.52 199.29,168.47 199.33,174.45 199.91,177.4 201.94,183.03 204.76,188.33 214.26,203.61 216.75,209.06 217.67,211.92 218.67,217.82 218.72,220.82 217.99,226.77 215.39,235.38 211.78,243.62 187.87,288.66 181.32,302.15 176.47,313.13 172.14,324.32 169.41,332.89 167.3,341.64 166.02,350.54 165.77,359.53 166.25,365.51 167.24,371.43 168.72,377.24 172.86,388.5 181.84,407.48 184.16,413.01 185.93,418.74 186.77,424.67 186.73,427.67 185.67,433.56 183.58,439.18 177.2,452.75 175.56,458.51 175.23,461.49 175.28,464.49 176.45,470.36 178.65,475.94 183.85,486.75 185.65,492.47 185.98,495.44 185.81,498.44 185.16,501.36 184.13,504.18 179.04,515.04 178.17,517.91 177.74,520.87 177.84,523.87 178.43,526.81 179.41,529.64 184.53,540.49 185.46,543.34 185.91,546.3 185.74,549.29 184.98,552.19 181.16,560.33 180.02,563.11 179.28,566.01 179.13,569 179.62,571.95 180.6,574.79 184.5,582.9 185.51,585.72 185.99,588.67 185.75,591.66 184.86,594.52 182.25,599.92" fill="none" stroke="#000000" stroke-width="1"/><polyline id="SvgjsPolyline1518" points="251.53,1.14 240.74,11.55 239.01,14 237.82,16.74 237.58,19.72 238.46,22.57 240.08,25.09 248.58,33.54 250.52,35.83 252,38.43 252.58,41.36 252.09,44.3 250.84,47.02 247.35,51.89 231.16,69.6 223.67,78.97 220.31,83.95 217.32,89.15 214.84,94.6 214.02,97.49 213.83,100.48 214.31,103.43 215.37,106.23 216.81,108.86 223.78,118.63 225.3,121.21 226.47,123.97 227.08,126.9 227.01,129.9 226.3,132.81 223.68,138.19 213.42,152.97 210.48,158.2 208.41,163.82 207.86,166.77 207.71,169.76 207.99,172.75 208.66,175.67 210.94,181.21 214.02,186.36 222.66,198.62 225.68,203.8 226.9,206.53 228.5,212.3 228.78,215.29 228.7,218.29 227.62,224.18 225.66,229.84 221.77,237.96 195.92,281.91 188.81,295.12 182.18,308.58 177.35,319.56 173.18,330.81 170.03,342.38 168.63,351.27 168.28,357.26 168.45,363.25 169.71,372.16 171.2,377.97 175.38,389.21 184.53,408.11 186.89,413.62 188.72,419.33 189.61,425.25 189.58,428.25 188.5,434.14 186.38,439.75 179.87,453.26 178.2,459.01 177.86,461.99 177.91,464.99 179.12,470.85 181.36,476.41 186.66,487.18 188.5,492.87 188.85,495.85 188.68,498.84 188.02,501.76 186.97,504.57 181.78,515.39 180.89,518.25 180.44,521.21 180.54,524.21 181.14,527.14 182.14,529.97 187.36,540.77 188.32,543.61 188.8,546.57 188.64,549.56 187.88,552.45 182.82,563.32 182.04,566.22 181.87,569.2 182.35,572.16 183.33,574.99 187.31,583.06 188.37,585.87 188.9,588.81 188.69,591.8 187.81,594.66 186.54,597.38" fill="none" stroke="#000000" stroke-width="1"/><polyline id="SvgjsPolyline1519" points="272.16,0.45 266.92,3.36 262.11,6.94 258.5,11.71 257.76,14.57 258.68,17.39 260.65,19.64 265.56,23.07 278.69,30.3 280.9,32.31 281.56,35.12 279.97,37.62 277.75,39.63 260.52,51.63 253.31,57.01 246.41,62.79 239.96,69.06 234.12,75.91 229.22,83.44 226.74,88.9 225.21,94.69 224.93,97.68 225.2,100.66 226.18,103.49 229.42,108.52 235.3,115.34 238.74,120.23 239.87,123.01 240.25,125.97 239.8,128.93 238.69,131.71 237.19,134.3 233.6,139.11 225.92,148.33 220.85,155.75 218.48,161.25 217.81,164.17 217.59,167.16 217.85,170.15 219.65,175.85 222.63,181.05 233.85,195.12 237.26,200.05 238.69,202.69 240.57,208.37 240.88,211.35 240.21,217.29 238.26,222.96 234.07,230.92 205.82,273.37 196.59,288.83 189.4,301.99 182.76,315.44 176.99,329.28 173.39,340.72 171.59,349.53 170.84,358.5 171.02,364.49 171.75,370.44 173.03,376.3 174.78,382.04 178.15,390.39 187.47,409.2 189.86,414.7 191.69,420.41 192.52,426.34 192.44,429.34 191.25,435.21 189.01,440.77 182.41,454.23 180.79,460 180.51,462.98 180.63,465.98 181.98,471.81 184.32,477.33 189.71,488.05 191.51,493.76 191.79,496.74 191.54,499.73 190.79,502.63 184.4,516.19 183.55,519.06 183.17,522.03 183.35,525.02 184.04,527.94 185.1,530.74 190.43,541.49 191.36,544.34 191.77,547.31 191.53,550.29 190.68,553.16 186.68,561.22 185.52,563.98 184.79,566.89 184.69,569.88 185.26,572.82 186.31,575.63 190.38,583.65 191.42,586.47 191.89,589.42 191.6,592.4 189.33,597.93" fill="none" stroke="#000000" stroke-width="1"/><polyline id="SvgjsPolyline1520" points="293.95,0.22 285.2,2.26 279.65,4.52 277.13,6.14 275.84,8.77 278.91,13.73 281.46,15.29 287.14,17.19 296.03,18.5 305.03,18.42 310.97,17.63 316.81,16.27 322.5,14.36 327.91,11.78 330.39,10.09 332.44,7.92 333.12,5.08 331.67,2.51 329.32,0.65" fill="none" stroke="#000000" stroke-width="1"/><polyline id="SvgjsPolyline1521" points="281.77,69.27 283.61,71.6 286.16,73.17 288.97,74.2 294.88,75.15 297.88,75.21 303.84,74.61 309.65,73.11 312.44,72.01 315.09,70.61 317.51,68.84 319.37,66.51 319.64,63.57 318.12,61.04 315.75,59.22 313.03,57.97 310.15,57.14 307.19,56.64 301.2,56.44 295.25,57.16 289.46,58.73 284.02,61.24 281.54,62.92 279.37,64.99 277.92,67.6 278.09,70.56 279.76,73.02 282.14,74.83 284.84,76.13 287.7,77.04 290.63,77.64 296.61,78.13 302.6,77.79 308.5,76.72 314.21,74.92 316.97,73.73 322.1,70.65 324.33,68.64 326.01,66.16 326.51,63.23 325.5,60.44 323.55,58.18 321.12,56.43 318.44,55.09 315.62,54.08 309.76,52.79 300.78,52.37 291.86,53.5 283.24,56.03 275.16,59.97 270.28,63.46 268.1,65.51 266.18,67.82 264.71,70.43 263.95,73.32 264.2,76.3 265.42,79.03 267.3,81.36 269.57,83.31 274.76,86.3 280.38,88.4 289.17,90.27 298.15,90.78 304.13,90.36 310.04,89.37 318.69,86.88 326.96,83.35 334.76,78.87 341.82,73.31 345.69,68.74 347.08,66.09 347.84,63.19 347.74,60.21 346.83,57.36 345.29,54.79 341.11,50.51 338.7,48.72 333.55,45.65 325.35,41.97 313.9,38.39 305.02,37.01 299.03,37.18 290.21,38.95 281.72,41.93 270.97,47.24 260.74,53.5 251.09,60.63 242.25,68.73 236.38,75.55 231.56,83.13 229.24,88.66 228.03,94.53 227.97,97.52 228.36,100.49 229.44,103.28 232.84,108.21 238.9,114.87 242.47,119.68 243.64,122.43 244.03,125.39 243.52,128.34 242.34,131.1 240.77,133.65 237.06,138.36 229.16,147.39 223.89,154.68 221.34,160.1 220.57,162.99 220.24,165.97 220.41,168.96 221.06,171.89 222.11,174.7 225.09,179.89 228.74,184.66 238.42,196.11 241.68,201.14 242.94,203.86 243.82,206.73 244.23,209.7 244.16,212.69 243.66,215.65 241.68,221.3 237.38,229.2 232.4,236.7 216.78,258.72 208.45,271.19 197.51,289.11 188.86,304.9 182.3,318.39 176.69,332.29 173.35,343.81 172.24,349.71 171.59,355.67 171.47,361.67 171.92,367.65 172.92,373.56 174.45,379.36 178.76,390.55 188.12,409.35 190.53,414.84 192.37,420.55 193.22,426.48 193.14,429.47 191.95,435.34 189.7,440.9 183.06,454.34 181.44,460.11 181.16,463.09 181.28,466.09 182.63,471.92 184.98,477.44 190.4,488.14 192.21,493.85 192.5,496.83 192.25,499.81 191.5,502.72 185.08,516.26 184.22,519.13 183.83,522.1 184.01,525.09 184.7,528 185.77,530.81 191.12,541.54 192.06,544.39 192.49,547.35 192.25,550.34 191.41,553.21 187.39,561.26 186.21,564.01 185.47,566.92 185.37,569.91 185.92,572.85 186.98,575.66 191.06,583.67 192.12,586.48 192.61,589.43 192.33,592.41 191.39,595.25 190.06,597.95" fill="none" stroke="#000000" stroke-width="1"/><polyline id="SvgjsPolyline1522" points="311.56,8.75 309.29,7.02 303.55,5.38 297.56,5.23 291.69,6.36 288.96,7.59 287.43,9.9 289.51,11.89 292.35,12.82 298.3,13.57 304.29,13.4 310.21,12.44 315.89,10.55 318.46,9.01 320.05,6.58 318.65,4.07 316.05,2.6 310.3,0.91 304.36,0.11" fill="none" stroke="#000000" stroke-width="1"/><polyline id="SvgjsPolyline1523" points="281.95,65.15 281.05,67.98 282.21,70.69 284.48,72.63 287.18,73.93 293.01,75.27 296,75.48 301.99,75.17 307.87,73.99 310.72,73.06 316.1,70.42 318.45,68.57 320.17,66.13 320.23,63.18 318.61,60.7 316.22,58.91 313.5,57.66 310.62,56.81 304.68,56.03 298.69,56.23 292.78,57.26 287.09,59.13 281.79,61.92 279.42,63.76 277.45,66.02 276.37,68.8 276.94,71.71 278.76,74.07 281.18,75.83 283.89,77.12 289.66,78.69 295.63,79.28 301.62,79.08 307.55,78.18 313.34,76.6 318.88,74.31 321.51,72.87 326.25,69.22 328.08,66.85 329.01,64.02 328.55,61.08 326.96,58.55 324.76,56.53 322.22,54.93 316.67,52.69 313.77,51.93 307.84,51.02 298.85,50.96 289.96,52.31 281.37,54.97 273.28,58.89 268.3,62.24 266,64.15 261.96,68.58 260.41,71.14 259.4,73.96 259.18,76.95 259.86,79.86 261.29,82.48 263.23,84.76 265.51,86.72 267.99,88.4 273.32,91.13 281.85,93.99 290.7,95.59 299.69,95.87 305.65,95.27 311.53,94.05 320.07,91.24 328.25,87.49 336.03,82.97 343.31,77.69 347.71,73.62 351.39,68.9 352.72,66.21 353.47,63.31 353.47,60.32 352.72,57.43 351.36,54.76 347.5,50.18 342.83,46.42 337.78,43.19 324.6,36.02 322.11,34.36 320.63,31.82 321.57,29.05 325.42,24.48 330.25,20.95 342.85,12.81 345.12,10.86 347.06,8.58 348.17,5.82 347.69,2.9 345.97,0.46" fill="none" stroke="#000000" stroke-width="1"/><polyline id="SvgjsPolyline1524" points="287.77,60.26 285.12,61.67 282.69,63.42 280.72,65.67 280.02,68.55 281.25,71.25 283.51,73.19 286.19,74.54 289.05,75.43 294.98,76.27 300.97,76.14 306.89,75.16 312.61,73.36 315.34,72.12 317.92,70.6 320.25,68.71 322.02,66.3 322.36,63.36 321.03,60.71 318.82,58.71 316.2,57.25 310.48,55.49 304.52,54.82 298.53,55.01 289.71,56.73 284.08,58.8 278.84,61.69 276.45,63.51 274.34,65.64 272.74,68.17 272.17,71.1 272.99,73.96 274.81,76.33 277.17,78.18 279.8,79.62 285.46,81.57 291.36,82.62 297.35,82.92 303.34,82.56 309.26,81.58 317.87,79.01 325.97,75.11 330.85,71.63 333,69.54 334.77,67.12 335.86,64.34 335.88,61.35 334.82,58.57 333.02,56.17 330.79,54.17 325.65,51.1 320.06,48.94 311.28,46.99 305.31,46.46 296.32,46.78 290.4,47.73 284.59,49.22 278.93,51.21 270.79,55.03 263.16,59.79 258.45,63.51 254.16,67.7 250.53,72.47 249.09,75.1 248.03,77.9 246.95,83.8 246.97,86.79 247.58,89.72 248.74,92.48 250.34,95.02 254.41,99.41 259.13,103.11 277.14,113.89 279.46,115.79 280.97,118.32 280.28,121.16 278.31,123.41 273.58,127.1 253.8,140.69 249.17,144.5 244.88,148.69 241.21,153.43 239.78,156.06 238.76,158.88 238.31,161.84 238.5,164.83 239.32,167.71 240.65,170.39 244.28,175.16 250.9,181.25 262.64,190.58 266.91,194.78 268.67,197.21 269.87,199.95 270.2,202.92 269.6,205.85 268.38,208.58 266.79,211.13 263.08,215.84 240.43,239.83 226.73,255.75 217.63,267.67 207.47,282.52 195.06,303.06 185.39,321.7 179.66,335.56 177.04,344.16 175.76,350.02 174.97,355.97 174.71,361.96 175.05,367.95 176.65,376.8 178.38,382.54 181.76,390.88 193.85,415.01 195.86,420.66 196.9,426.56 196.92,429.56 195.86,435.45 193.65,441.02 186.8,454.36 184.99,460.07 184.61,463.04 184.64,466.04 185.87,471.9 188.21,477.42 192.45,485.35 194.96,490.8 195.83,493.67 196.26,496.64 196.14,499.63 195.48,502.55 194.41,505.35 188.94,516.02 187.94,518.85 187.41,521.8 187.44,524.8 188.02,527.73 190.33,533.26 194.54,541.21 195.62,544.01 196.24,546.94 196.2,549.93 195.49,552.84 190.16,563.58 189.24,566.43 188.92,569.41 189.3,572.37 190.25,575.22 194.42,583.19 195.63,585.93 196.37,588.83 196.36,591.82 195.58,594.71 194.31,597.43" fill="none" stroke="#000000" stroke-width="1"/><polyline id="SvgjsPolyline1525" points="281.47,67.36 282.37,70.16 284.54,72.2 287.21,73.55 290.08,74.42 293.04,74.93 299.03,75.1 302.01,74.83 307.88,73.61 313.46,71.44 316.04,69.9 318.29,67.92 319.63,65.26 318.99,62.39 317,60.19 314.43,58.65 311.62,57.61 308.7,56.95 302.72,56.48 296.75,56.98 293.8,57.56 288.09,59.36 285.37,60.62 282.79,62.16 280.47,64.05 278.64,66.42 278.1,69.34 279.3,72.05 281.49,74.08 284.11,75.54 286.93,76.57 289.84,77.26 295.8,77.88 301.8,77.64 307.71,76.65 313.45,74.93 316.22,73.77 321.4,70.76 323.66,68.8 325.41,66.37 326,63.45 325.05,60.64 323.11,58.37 320.68,56.63 317.99,55.3 312.26,53.56 309.3,53.05 303.32,52.64 294.36,53.36 285.64,55.54 277.4,59.14 272.36,62.39 270.07,64.32 268,66.49 266.29,68.95 265.17,71.73 265,74.71 265.9,77.56 267.59,80.03 269.77,82.08 272.24,83.78 277.64,86.38 286.31,88.77 292.25,89.56 301.24,89.59 307.2,88.88 315.94,86.77 324.34,83.55 332.29,79.34 339.55,74.04 343.66,69.69 345.26,67.15 346.3,64.35 346.54,61.37 345.89,58.45 344.53,55.79 342.67,53.43 340.5,51.36 335.61,47.9 327.55,43.91 319.06,40.95 310.28,38.98 304.31,38.41 301.31,38.43 295.36,39.09 286.67,41.41 278.34,44.81 267.75,50.44 257.77,57.1 248.6,64.83 242.53,71.46 239.1,76.38 237.66,79.01 235.61,84.64 235.15,87.6 235.18,90.6 235.72,93.54 236.74,96.36 238.16,99 241.89,103.68 250.83,111.68 255.04,115.95 256.86,118.34 258.04,121.08 258.12,124.06 257.11,126.87 253.55,131.68 238.51,146.32 232.87,153.33 230.16,158.67 229.38,161.56 229.11,164.54 229.41,167.52 230.23,170.4 231.49,173.12 234.86,178.08 238.86,182.54 249.48,193.14 253.2,197.84 254.68,200.45 255.72,203.25 256.17,206.21 255.99,209.2 255.27,212.11 254.15,214.89 251.2,220.11 245.93,227.4 225.25,253.12 216.33,265.18 204.7,282.66 194.02,300.74 185.71,316.7 181.98,324.89 178.67,333.26 175.23,344.75 174.09,350.64 173.42,356.6 173.3,362.6 173.76,368.58 174.8,374.49 176.36,380.28 180.76,391.43 190.25,410.16 192.68,415.65 194.51,421.36 195.31,427.29 195.19,430.29 193.9,436.13 191.57,441.66 184.87,455.07 183.3,460.85 183.06,463.84 183.24,466.83 184.7,472.63 187.13,478.11 192.61,488.79 194.38,494.51 194.61,497.49 194.29,500.47 193.48,503.36 186.96,516.85 186.12,519.73 185.8,522.7 186.04,525.69 186.79,528.59 187.91,531.37 193.34,542.07 194.25,544.92 194.63,547.9 194.32,550.87 193.41,553.73 189.31,561.73 188.15,564.5 187.44,567.41 187.4,570.4 188.02,573.33 189.13,576.12 193.28,584.1 194.32,586.91 194.77,589.87 194.43,592.84 192.07,598.34" fill="none" stroke="#000000" stroke-width="1"/><polyline id="SvgjsPolyline1526" points="287.44,60.53 284.82,61.99 282.45,63.83 280.65,66.21 280.42,69.16 282,71.67 284.4,73.44 287.14,74.65 290.04,75.44 295.99,76.11 301.98,75.82 307.87,74.69 313.52,72.71 316.2,71.35 318.68,69.68 320.8,67.56 321.96,64.82 321.31,61.94 319.4,59.65 316.92,57.99 314.17,56.8 308.34,55.43 302.35,55.09 299.35,55.23 293.42,56.11 287.65,57.74 282.17,60.16 277.21,63.52 275.12,65.66 273.59,68.24 273.21,71.19 274.26,73.98 276.24,76.22 278.69,77.95 281.38,79.27 287.1,81.03 293.04,81.88 299.03,81.99 305.01,81.44 313.78,79.46 319.4,77.38 324.75,74.68 329.64,71.21 331.76,69.09 333.45,66.62 334.35,63.77 334.08,60.8 332.77,58.13 330.79,55.88 325.87,52.48 323.15,51.21 317.47,49.29 308.62,47.72 299.63,47.55 290.71,48.71 282.04,51.1 273.75,54.6 265.97,59.1 258.89,64.65 254.79,69.02 253.03,71.44 251.55,74.05 250.47,76.85 249.95,79.8 250.1,82.79 250.95,85.66 252.38,88.29 254.22,90.66 258.67,94.67 263.68,97.96 269,100.72 277.32,104.16 283.02,106.02 291.78,108.1 297.72,108.9 303.71,108.76 306.66,108.24 312.37,106.4 320.41,102.39 335.58,92.7 349.97,81.9 356.63,75.85 360.62,71.37 363.89,66.36 365.06,63.6 365.75,60.68 365.85,57.69 365.32,54.74 364.22,51.95 362.71,49.36 358.91,44.73 348.04,34.4 346.12,32.09 344.71,29.46 344.38,26.51 345.38,23.7 347.15,21.28 349.24,19.13 355.9,13.08 357.94,10.88 359.63,8.4 360.5,5.56 360.05,2.62 358.55,0.04" fill="none" stroke="#000000" stroke-width="1"/><polyline id="SvgjsPolyline1527" points="320.89,151.15 322.08,148.42 321.19,145.62 319.08,143.52 316.48,142.03 313.67,140.98 307.8,139.81 301.81,139.56 295.83,140.09 287.12,142.29 281.69,144.83 279.24,146.54 277.19,148.73 276.32,151.57 277.3,154.36 279.37,156.51 281.92,158.09 284.68,159.24 290.51,160.64 296.49,161.1 302.48,160.8 311.29,159.03 316.92,156.98 322.18,154.1 324.53,152.24 326.44,149.94 327.22,147.07 326.29,144.26 324.3,142.04 321.82,140.35 319.12,139.06 313.38,137.34 307.44,136.47 301.45,136.31 295.47,136.79 289.58,137.89 283.83,139.6 278.31,141.95 273.18,145.05 270.88,146.97 268.95,149.26 267.77,152.01 267.91,154.98 269.25,157.65 271.3,159.83 273.72,161.6 276.35,163.03 281.96,165.14 290.78,166.87 296.77,167.2 302.76,166.92 308.7,166.05 314.52,164.63 320.2,162.69 325.68,160.24 333.37,155.59 337.86,151.63 339.69,149.25 340.91,146.52 341.09,143.54 340.12,140.72 338.38,138.28 336.2,136.23 333.76,134.49 328.47,131.67 320.01,128.62 311.23,126.7 302.26,126.07 296.28,126.52 287.45,128.27 281.7,129.97 273.37,133.36 265.39,137.51 260.29,140.67 253.14,146.13 248.95,150.41 245.7,155.44 244.72,158.27 244.38,161.24 244.78,164.21 245.84,167.01 247.4,169.57 251.41,174.02 256.04,177.82 273.61,189.32 278.36,192.98 280.37,195.2 281.61,197.9 281.39,200.86 280.04,203.53 276.17,208.1 251.9,230.46 239.24,243.25 229.31,254.49 218.23,268.67 211.33,278.49 204.78,288.54 192.64,309.24 187.14,319.91 183.4,328.09 181.15,333.65 178.3,342.19 176.29,350.95 175.37,359.9 175.47,365.9 176.75,374.8 178.29,380.59 181.47,389.01 194.83,415.86 196.76,421.53 197.66,427.45 197.59,430.45 196.35,436.31 194.02,441.83 187.19,455.18 185.52,460.93 185.23,463.91 185.37,466.91 186.78,472.72 189.22,478.2 194.81,488.82 196.7,494.49 197.01,497.48 196.75,500.46 195.98,503.35 189.35,516.79 188.45,519.65 188.04,522.62 188.21,525.61 188.92,528.52 190.02,531.31 195.55,541.95 196.55,544.78 197.04,547.73 196.83,550.72 195.98,553.59 190.6,564.31 189.8,567.19 189.64,570.18 190.18,573.13 191.24,575.93 195.46,583.88 196.59,586.65 197.18,589.59 196.98,592.57 196.06,595.42 194.72,598.1" fill="none" stroke="#000000" stroke-width="1"/><polyline id="SvgjsPolyline1528" points="279.57,147.85 278.23,150.51 278.88,153.38 280.86,155.6 283.4,157.18 286.18,158.3 292.04,159.56 295.03,159.81 301.02,159.67 306.95,158.77 312.71,157.11 318.15,154.6 320.64,152.92 322.76,150.81 323.84,148.04 322.98,145.22 320.94,143.05 318.39,141.48 315.62,140.33 309.79,138.94 303.82,138.45 294.85,139.1 286.14,141.3 280.65,143.71 278.09,145.27 275.76,147.16 273.91,149.51 273.26,152.41 274.24,155.21 276.22,157.45 278.68,159.16 281.38,160.46 287.11,162.2 293.05,163.05 299.04,163.16 305.02,162.61 310.9,161.43 316.62,159.64 322.11,157.22 327.2,154.06 329.48,152.11 331.38,149.8 332.45,147.01 332.09,144.06 330.53,141.52 328.34,139.48 325.83,137.85 323.14,136.53 317.47,134.59 308.61,133.02 302.62,132.76 296.63,133.09 287.78,134.68 282.04,136.41 276.48,138.65 268.62,143.02 263.96,146.79 261.99,149.05 260.5,151.65 259.85,154.56 260.3,157.51 261.66,160.18 263.59,162.46 265.87,164.41 270.98,167.53 279.35,170.8 288.13,172.76 297.1,173.43 306.06,172.71 311.93,171.48 317.66,169.71 325.96,166.24 333.87,161.95 341.27,156.84 345.74,152.85 349.42,148.12 350.6,145.37 350.98,142.41 350.39,139.48 349.02,136.82 347.15,134.47 344.97,132.41 340.13,128.88 324.38,120.17 321.9,118.48 318.64,113.55 319.25,110.7 323.19,106.19 329.98,100.28 348.77,85.35 357.7,77.35 363.6,70.56 366.6,65.38 367.58,62.55 368.04,59.59 367.9,56.6 367.17,53.69 365.93,50.96 362.49,46.06 349.92,33.19 348.28,30.69 347.4,27.84 347.78,24.89 349.2,22.25 351.12,19.95 359.68,11.54 361.45,9.13 362.58,6.36 362.51,3.39 361.25,0.68" fill="none" stroke="#000000" stroke-width="1"/><polyline id="SvgjsPolyline1529" points="247.59,153.3 246.82,156.2 246.83,159.19 247.63,162.07 249.03,164.72 250.84,167.11 252.93,169.26 257.62,173 262.69,176.2 267.97,179.05 281.66,185.16 287.28,187.27 295.87,189.95 298.82,190.47 301.81,190.37 304.65,189.45 309.89,186.54 337.31,168.17 351.57,157.2 355.98,153.13 360.01,148.69 363.28,143.68 364.39,140.89 364.93,137.95 364.75,134.96 363.86,132.1 362.42,129.48 360.62,127.08 349.92,116.57 347.97,114.3 346.42,111.74 345.69,108.84 346.14,105.9 348.78,100.52 354.23,93.38 366.48,80.19 372.17,73.22 375.29,68.1 377.28,62.46 377.62,59.48 377.42,56.49 376.7,53.58 375.54,50.82 372.35,45.75 362.75,34.22 361.16,31.68 360.1,28.89 359.96,25.91 360.83,23.05 362.37,20.48 370.07,11.29 371.6,8.71 372.41,5.83 372.1,2.87 370.82,0.16" fill="none" stroke="#000000" stroke-width="1"/><polyline id="SvgjsPolyline1530" points="386.99,599.32 388.22,596.59 388.69,593.64 388.24,590.69 387.11,587.91 385.59,585.33 380.44,577.95 379.15,575.25 378.66,572.3 379.18,569.36 380.4,566.62 385.37,559.13 386.8,556.49 387.71,553.64 387.85,550.65 387.24,547.72 386.07,544.97 384.56,542.38 377.61,532.59 376.27,529.91 375.56,527.01 375.73,524.02 376.66,521.18 378.06,518.53 384.76,508.58 386.03,505.87 386.81,502.97 386.95,499.98 386.46,497.03 384.14,491.52 380.84,486.51 375.33,479.39 371.95,474.44 370.62,471.75 369.77,468.88 369.6,465.89 370.13,462.94 372.63,457.51 381.34,445.3 384.24,440.06 385.92,434.32 386.13,431.33 385.32,425.4 384.4,422.54 381.86,417.12 378.68,412.03 373.21,404.89 363.19,393.73 336.2,365.58 328.28,356.56 322.62,349.57 317.26,342.34 312.31,334.82 307.9,326.98 306.95,324.14 307.33,321.17 308.59,318.46 310.25,315.96 314.1,311.36 328.61,296.19 336.64,287.27 344.11,277.88 349.18,270.45 353.6,262.61 357,254.29 358.39,248.46 358.73,245.48 358.47,239.49 356.85,233.73 353.96,228.49 350.12,223.88 343.25,218.08 335.62,213.32 324.79,208.17 313.45,204.29 307.57,203.08 304.59,202.8 298.6,203.1 289.93,205.46 284.45,207.88 276.72,212.48 266.99,219.5 255.44,229.07 244.49,239.32 234.18,250.21 224.54,261.7 217.3,271.27 208.78,283.62 200.79,296.31 193.31,309.31 186.47,322.66 181.73,333.68 178.84,342.2 176.79,350.96 175.83,359.9 175.91,365.9 177.16,374.8 178.7,380.6 181.87,389.02 195.28,415.84 197.24,421.51 198.18,427.42 198.13,430.42 196.92,436.28 194.6,441.81 187.73,455.13 186.02,460.88 185.72,463.86 185.83,466.85 187.22,472.67 189.65,478.16 195.27,488.76 197.21,494.42 197.54,497.4 197.31,500.39 196.56,503.29 189.91,516.71 188.98,519.56 188.54,522.53 188.69,525.52 189.37,528.44 190.46,531.23 196.02,541.86 197.05,544.68 197.57,547.62 197.4,550.61 196.58,553.49 191.18,564.2 190.34,567.07 190.13,570.06 190.64,573.01 191.68,575.82 195.91,583.76 197.07,586.52 197.71,589.45 197.56,592.43 196.67,595.29 195.35,597.98" fill="none" stroke="#000000" stroke-width="1"/><polyline id="SvgjsPolyline1531" points="309.84,329.43 309.45,326.46 310.06,323.54 311.33,320.82 312.95,318.3 318.7,311.39 333.16,296.16 341.15,287.2 348.62,277.81 353.75,270.42 358.3,262.66 360.89,257.25 362.97,251.63 364.35,245.79 364.76,239.81 363.94,233.88 361.84,228.27 358.67,223.19 354.73,218.67 347.94,212.78 340.57,207.61 327.94,199.52 323.26,195.78 319.75,190.94 319.12,188.04 320.03,185.21 321.76,182.77 323.82,180.59 330.67,174.75 349.61,160.01 358.43,151.89 362.28,147.29 363.91,144.78 365.22,142.08 366.05,139.2 366.24,136.22 365.7,133.27 364.53,130.52 361.01,125.67 350.46,115.03 348.74,112.57 347.65,109.79 347.61,106.81 348.56,103.97 349.9,101.29 353.25,96.32 357.08,91.7 369.19,78.38 372.9,73.67 376.05,68.57 378.13,62.96 378.54,59.99 378.43,57 377.79,54.07 376.71,51.27 373.62,46.14 364.11,34.55 362.5,32.02 361.37,29.25 361.09,26.28 361.84,23.38 363.3,20.77 370.93,11.51 372.47,8.95 373.35,6.09 373.13,3.12 371.93,0.38" fill="none" stroke="#000000" stroke-width="1"/><polyline id="SvgjsPolyline1532" points="402,598.74 402.59,595.81 402.38,592.83 401.5,589.97 394.13,576.92 393.01,574.14 392.53,571.18 392.89,568.21 393.95,565.41 398.47,557.64 399.74,554.92 400.51,552.03 400.6,549.03 400,546.1 398.88,543.32 392.83,532.97 391.56,530.25 390.73,527.37 390.54,524.38 391.07,521.44 392.16,518.64 398.2,508.28 399.41,505.54 400.21,502.65 400.47,499.67 400.14,496.69 398.13,491.05 389.03,475.54 387.07,469.88 386.78,466.9 387.04,463.92 387.83,461.02 389,458.26 396.72,445.41 399.25,439.98 400.64,434.16 400.49,428.17 399,422.37 395.18,414.24 392.08,409.1 380.47,391.61 377.43,386.43 374.76,381.06 372.68,375.44 371.93,372.53 371.16,366.59 371.19,363.59 371.48,360.61 372.8,354.76 374.9,349.14 377.53,343.75 382.05,335.97 398.19,310.68 404.28,300.34 414.19,281.83 426.11,257.6 432.38,243.98 436.96,232.89 439.82,224.36 441.82,215.59 442.47,206.62 441.95,200.65 441.39,197.7 438.74,189.11 431.87,172.48 430.38,166.68 430.02,163.7 429.98,160.7 430.8,154.77 432.58,149.04 439.36,132.38 440.63,126.52 440.79,123.53 440.01,117.59 438.07,111.92 434.59,103.62 433.1,97.82 432.94,94.83 433.93,88.93 439.41,74.98 440.52,69.1 440.16,63.12 438.81,57.28 432.05,40.6 430.48,34.82 430.24,31.84 430.46,28.85 431.14,25.93 435.62,14.8 436.35,11.9 436.57,8.91 436.18,5.94 434.16,0.3" fill="none" stroke="#000000" stroke-width="1"/><polyline id="SvgjsPolyline1533" points="372.16,597.93 373.63,595.32 374.27,592.41 373.41,586.5 372.12,583.8 370.4,581.35 364.56,574.5 362.85,572.04 361.67,569.29 361.54,566.31 362.56,563.51 364.23,561.02 370.06,554.17 371.69,551.65 372.76,548.86 372.94,545.88 372.19,542.98 370.8,540.33 369.05,537.89 361.14,528.87 359.37,526.45 357.99,523.8 357.38,520.87 357.84,517.93 359.18,515.25 360.96,512.84 366.98,506.15 370.42,501.25 371.52,498.46 371.9,495.5 371.5,492.53 370.45,489.73 367.21,484.69 363.27,480.17 354.94,471.53 351.21,466.84 349.76,464.22 348.88,461.36 348.86,458.37 349.76,455.52 351.27,452.93 355.16,448.37 363.55,439.8 367.22,435.06 368.69,432.44 369.79,429.66 370.42,426.73 370.52,423.73 370.11,420.76 369.27,417.89 366.64,412.51 361.29,405.28 355.04,398.81 345.89,391.06 338.55,385.86 330.8,381.28 322.63,377.51 314.06,374.79 305.19,373.33 299.2,373.11 290.24,373.9 284.38,375.16 275.92,378.21 270.68,381.12 266.06,384.93 264.15,387.24 262.68,389.84 261.79,392.7 261.61,395.69 262.16,398.63 263.3,401.4 264.89,403.94 266.82,406.24 271.32,410.19 276.4,413.38 281.85,415.88 287.55,417.73 293.43,418.91 299.41,419.37 305.39,419.02 311.21,417.59 313.9,416.28 316.18,414.35 317.37,411.64 316.8,408.74 315.03,406.33 312.71,404.44 307.31,401.87 301.44,400.7 298.44,400.72 295.51,401.31 293.05,402.95 293.13,405.75 295.43,407.62 298.27,408.55 301.26,408.61" fill="none" stroke="#000000" stroke-width="1"/><polyline id="SvgjsPolyline1534" points="394.55,599.84 395.64,597.05 395.98,594.08 395.49,591.13 392.9,585.74 388.14,578.11 387.14,575.29 386.98,572.3 387.7,569.4 388.97,566.69 393.65,559 394.82,556.24 395.38,553.3 395.2,550.31 394.38,547.43 393.12,544.71 386.66,534.6 385.32,531.93 384.47,529.05 384.39,526.06 385.07,523.15 386.27,520.4 392.53,510.17 393.76,507.44 394.56,504.55 394.77,501.56 394.38,498.59 392.29,492.98 389.22,487.84 382.52,477.88 380.09,472.41 379.57,469.46 379.69,466.47 380.39,463.56 381.52,460.78 391,445.5 393.37,440 394.08,437.08 394.39,434.1 393.84,428.14 392.03,422.43 387.85,414.47 382.78,407.04 368.2,387.98 364.8,383.03 361.75,377.87 358.08,369.66 357.11,366.82 355.91,360.95 355.74,357.96 355.88,354.96 357.04,349.08 359.14,343.47 361.88,338.13 368.37,328.05 384.16,306.14 392.55,293.71 402,278.39 412.24,260.06 417.67,249.36 422.59,238.42 425.69,229.97 427.93,221.26 428.71,215.31 428.73,209.32 428.43,206.33 427.21,200.46 424.1,192.02 416.55,175.69 414.94,169.92 414.56,166.95 414.84,160.97 416.35,155.17 424.97,136.03 426.61,130.27 426.96,127.29 426.92,124.29 425.67,118.44 419.61,104.73 418.72,101.87 418.24,98.91 418.25,95.91 418.74,92.96 420.77,87.32 425.69,76.38 427.2,70.58 427.57,67.6 427.43,61.62 426.12,55.77 423.97,50.17 417.76,36.53 416.98,33.63 416.61,30.66 416.78,27.67 417.46,24.75 422.34,13.8 423.22,10.93 423.54,7.96 423.2,4.98 422.29,2.13" fill="none" stroke="#000000" stroke-width="1"/><polyline id="SvgjsPolyline1535" points="390.93,597.55 391.58,594.63 391.33,591.65 390.36,588.82 388.94,586.18 383.91,578.71 382.59,576.03 381.99,573.1 382.36,570.13 383.47,567.35 389.72,557.12 390.67,554.28 390.88,551.3 390.34,548.36 389.24,545.57 387.79,542.94 381.05,533.02 379.77,530.31 379.11,527.39 379.3,524.41 380.22,521.56 381.59,518.89 386.58,511.41 389.29,506.07 389.99,503.16 390.06,500.16 389.53,497.22 387.2,491.7 383.95,486.67 376.93,476.93 374.31,471.55 373.71,468.62 373.78,465.63 374.48,462.71 375.65,459.95 378.76,454.83 385.56,444.95 388.16,439.55 388.99,436.67 389.43,433.7 389.05,427.73 388.31,424.83 386.06,419.27 381.43,411.57 374.11,402.06 354.68,379.21 347.85,369.35 345.17,363.98 344.16,361.16 343.44,358.25 342.69,352.3 342.67,349.3 342.99,346.32 344.59,340.55 347.12,335.12 350.23,329.99 355.48,322.68 372.24,301.51 381.21,289.49 389.68,277.11 397.59,264.36 403.43,253.89 408.66,243.09 411.92,234.7 414.28,226.02 415.09,220.08 415.12,214.09 414.26,208.15 413.5,205.25 410.16,196.91 403.01,183.73 400.5,178.28 398.89,172.51 398.59,169.53 399.16,163.57 401.02,157.87 410.69,139.25 412.66,133.59 413.18,130.63 413.27,127.64 412.92,124.66 412.15,121.76 411.06,118.97 404.35,105.57 403.56,102.68 403.27,99.69 403.56,96.71 404.33,93.82 405.47,91.04 411.08,80.44 413.57,74.98 415.37,69.26 415.87,66.31 415.9,60.32 414.6,54.47 412.32,48.93 405.53,35.56 404.61,32.71 404.14,29.75 404.26,26.76 404.97,23.85 406.11,21.08 410.28,13.1 411.3,10.29 411.76,7.33 411.46,4.35 410.53,1.5" fill="none" stroke="#000000" stroke-width="1"/><polyline id="SvgjsPolyline1536" points="385.18,597.9 386.14,595.06 386.19,592.08 385.39,589.19 384.03,586.52 377.18,576.68 376.09,573.89 375.98,570.91 376.82,568.04 378.24,565.4 383.34,557.99 384.66,555.3 385.36,552.39 385.24,549.4 384.41,546.53 383.08,543.84 374.38,531.64 373.09,528.93 372.53,526 372.89,523.03 373.97,520.24 375.47,517.64 380.73,510.34 383.55,505.06 384.26,502.15 384.31,499.16 383.73,496.22 381.25,490.77 377.84,485.84 372.19,478.84 368.69,473.97 367.27,471.33 366.33,468.48 366.09,465.5 366.59,462.55 367.66,459.75 369.11,457.13 378.05,445.08 381.11,439.93 382.24,437.15 382.99,434.25 383.3,431.27 383.16,428.28 382.62,425.33 380.6,419.69 376.03,411.95 368.51,402.6 358.06,391.85 344.76,379.73 335.42,372.19 327.99,367.12 319.99,363.02 311.49,360.07 308.57,359.4 302.62,358.67 293.64,358.99 284.81,360.71 276.27,363.53 268.12,367.33 260.55,372.19 256.05,376.15 254.05,378.38 250.85,383.44 249.8,386.25 249.24,389.19 249.21,392.19 249.69,395.14 250.64,397.99 253.59,403.2 257.49,407.74 262.01,411.69 266.93,415.11 274.88,419.31 283.33,422.39 289.17,423.78 298.1,424.77 304.1,424.65 310.04,423.83 312.95,423.12 318.52,420.91 321.04,419.28 323.13,417.15 324.39,414.45 324.35,411.47 323.17,408.73 321.31,406.39 316.57,402.74 311.14,400.2 305.35,398.65 302.38,398.26 296.39,398.43 293.49,399.16 290.88,400.61 289.48,403.16 290.51,405.9 292.82,407.79 295.56,409 298.49,409.63 301.48,409.62 304.15,408.43" fill="none" stroke="#000000" stroke-width="1"/><polyline id="SvgjsPolyline1537" points="387.54,599.72 388.83,597.02 389.4,594.08 389.06,591.11 388,588.31 386.52,585.7 381.4,578.31 380.06,575.63 379.48,572.69 379.9,569.74 381.06,566.98 387.44,556.83 388.4,553.99 388.61,551.01 388.06,548.07 386.94,545.29 385.46,542.68 378.56,532.87 377.21,530.19 376.46,527.3 376.58,524.31 377.46,521.45 378.84,518.78 385.49,508.81 386.77,506.1 387.57,503.21 387.73,500.22 387.27,497.26 384.99,491.73 381.72,486.7 376.26,479.55 372.91,474.57 371.6,471.88 370.77,469 370.62,466.01 371.16,463.06 373.65,457.62 382.29,445.37 385.15,440.1 386.16,437.28 386.78,434.34 386.96,431.35 386.11,425.43 385.19,422.58 382.64,417.15 379.46,412.07 375.9,407.24 368.13,398.1 345.71,373.88 339.92,366.99 336.33,362.19 331.78,354.44 329.91,348.75 329.57,345.77 329.7,342.78 330.85,336.89 331.79,334.04 334.44,328.67 337.75,323.67 341.41,318.92 366.59,289.13 373.86,279.59 380.71,269.74 387.03,259.54 392.63,248.93 396.13,240.64 398.65,232.01 399.55,226.08 399.61,220.09 398.71,214.16 397.9,211.27 394.28,203.05 384.58,187.9 381.7,182.64 379.8,176.96 379.44,173.99 379.55,170.99 380.12,168.05 382.27,162.46 385.23,157.24 391.83,147.22 394.83,142.03 397.06,136.47 397.67,133.53 397.81,130.54 397.44,127.57 396.59,124.69 393.93,119.33 387.69,109.08 386.61,106.29 386.05,103.35 386.14,100.36 386.87,97.45 388.04,94.69 398.87,76.71 401.44,71.29 403.11,65.53 403.41,59.56 402.19,53.7 399.8,48.2 392.24,35.25 391.08,32.49 390.38,29.58 390.32,26.58 390.96,23.66 392.14,20.9 396.75,13.18 398.05,10.48 398.84,7.59 398.83,4.6 398.02,1.72" fill="none" stroke="#000000" stroke-width="1"/><polyline id="SvgjsPolyline1538" points="386.72,599.04 387.9,596.28 388.28,593.32 387.75,590.38 386.57,587.62 385.02,585.06 379.86,577.69 378.61,574.97 378.2,572.01 378.79,569.08 380.06,566.37 385.06,558.89 386.47,556.24 387.33,553.37 387.41,550.38 386.75,547.47 385.54,544.72 377.04,532.38 375.72,529.69 375.04,526.78 375.26,523.8 376.23,520.96 377.66,518.33 382.81,510.95 385.64,505.67 386.39,502.78 386.5,499.78 385.99,496.83 383.62,491.34 380.3,486.35 374.77,479.24 371.37,474.3 370.04,471.62 369.19,468.75 369.02,465.76 369.56,462.81 372.08,457.39 380.83,445.21 383.75,439.98 384.79,437.16 385.44,434.24 385.66,431.25 385.45,428.26 384.85,425.32 382.76,419.71 378.2,411.96 372.71,404.83 364.71,395.89 354.24,385.15 333,363.96 324.27,355.74 317.05,350.38 311.6,347.91 308.69,347.15 302.75,346.32 299.76,346.2 293.78,346.72 285.05,348.84 273.88,353.21 263.3,358.86 258.29,362.15 253.54,365.82 247.17,372.16 243.76,377.09 242.44,379.78 241.46,382.61 240.87,385.55 240.72,388.55 241.02,391.53 242.78,397.25 245.75,402.45 251.61,409.27 258.49,415.05 266.03,419.95 274.08,423.98 282.53,427.04 291.32,428.96 297.29,429.53 306.28,429.26 315.11,427.59 320.76,425.59 325.95,422.6 328.15,420.57 329.81,418.08 330.57,415.2 330.23,412.23 329.01,409.5 327.24,407.09 322.75,403.13 320.22,401.51 314.83,398.89 309.12,397.08 306.18,396.47 300.21,395.94 297.21,396.06 294.25,396.51 291.38,397.37 288.77,398.84 286.95,401.17 287.02,404.1 288.74,406.53 291.16,408.29 293.89,409.52 296.78,410.3 299.76,410.61 302.74,410.32 305.31,408.91 304.78,406.24 302.16,404.84 299.19,404.58" fill="none" stroke="#000000" stroke-width="1"/><polyline id="SvgjsPolyline1539" points="316.94,342.31 311.32,335.29 308.99,333.4 306.23,332.25 303.26,331.88 300.27,332.08 294.37,333.2 288.65,334.99 283.12,337.3 275.06,341.31 264.68,347.33 257.21,352.34 250.1,357.86 243.57,364.05 239.74,368.66 236.57,373.74 234.38,379.32 233.54,385.24 233.69,388.24 235.07,394.06 237.62,399.49 242.89,406.76 249.24,413.13 258.7,420.5 268.94,426.75 274.31,429.43 279.85,431.73 288.47,434.29 294.39,435.24 303.38,435.43 312.29,434.24 320.95,431.82 326.47,429.48 329.1,428.03 333.84,424.38 335.74,422.07 337.05,419.37 337.51,416.42 337.06,413.47 335.89,410.71 334.24,408.21 332.25,405.96 327.67,402.11 322.55,398.98 317.09,396.51 311.37,394.69 305.48,393.57 299.5,393.22 296.5,393.37 290.63,394.54 287.86,395.68 285.4,397.39 283.7,399.82 283.53,402.77 284.88,405.43 287.02,407.52 289.56,409.12 292.31,410.31 298.15,411.61 301.14,411.66 304.09,411.15 306.62,409.62 306.56,406.85 304.21,405.03 301.35,404.16 298.38,404.26" fill="none" stroke="#000000" stroke-width="1"/><polyline id="SvgjsPolyline1540" points="387.21,598.93 388.35,596.16 388.67,593.19 388.11,590.26 386.91,587.51 385.34,584.95 380.21,577.56 379.01,574.82 378.68,571.85 379.33,568.93 380.62,566.23 385.61,558.74 386.98,556.08 387.79,553.2 387.81,550.21 387.09,547.3 385.86,544.57 377.39,532.21 376.11,529.49 375.53,526.56 375.83,523.59 376.85,520.77 378.3,518.15 383.43,510.76 386.19,505.44 386.87,502.53 386.91,499.54 386.34,496.6 383.91,491.13 371.73,474.05 370.46,471.33 369.7,468.43 369.64,465.44 370.26,462.51 372.87,457.13 381.58,444.92 384.42,439.65 385.4,436.81 385.98,433.87 386.13,430.88 385.2,424.97 384.24,422.12 381.64,416.72 378.42,411.66 372.92,404.54 364.94,395.59 344.09,374.02 333.89,363.02 326.08,353.91 318.74,344.41 312.07,334.44 306.26,323.95 305.47,321.06 303.76,318.61 304.63,315.75 301.8,315.19 302.73,312.37 299.89,313.24 294.55,315.97 276.97,327.45 257.47,341.44 250.43,347.05 243.69,353.01 239.46,357.27 235.55,361.81 230.62,369.32 228.29,374.85 227.53,377.75 226.96,383.71 227.73,389.64 229.69,395.31 232.54,400.58 237.95,407.76 244.21,414.22 250.98,420.16 277.37,439.95 279.59,441.97 281.48,444.29 282.3,447.12 281.06,449.8 278.87,451.84 273.85,455.11 263.45,461.1 258.45,464.42 253.94,468.36 252.1,470.72 250.83,473.43 250.47,476.39 251.11,479.31 252.52,481.95 254.39,484.3 256.53,486.4 261.28,490.06 266.39,493.2 271.72,495.95 277.21,498.36 282.86,500.38 288.65,501.94 294.57,502.9 300.56,503.18 306.55,502.8 312.47,501.84 318.28,500.34 323.9,498.26 329.09,495.27 331.24,493.2 332.56,490.53 332.34,487.58 330.84,485 328.72,482.89 326.29,481.12 323.7,479.62 318.2,477.23 309.51,474.92 300.56,474.07 294.57,474.37 291.61,474.83 285.89,476.59 283.35,478.17 281.76,480.64 282.53,483.45 284.72,485.47 287.35,486.91 293.06,488.72 299.01,489.43 304.98,488.98 307.83,488.06 309.77,485.98 308.28,483.57 305.58,482.3 302.66,481.62 299.67,481.42 296.71,481.82" fill="none" stroke="#000000" stroke-width="1"/><polyline id="SvgjsPolyline1541" points="299.78,310.26 300.99,307.59 319.62,288.06 325.28,281.06 328.74,276.16 331.85,271.03 334.5,265.65 336.47,259.99 337.47,254.08 337.47,251.08 337.07,248.11 336.23,245.24 334.96,242.52 333.3,240.03 329.06,235.8 324.03,232.55 321.32,231.26 315.68,229.24 309.83,227.9 300.88,227.08 294.88,227.29 286,228.71 280.23,230.34 271.89,233.69 263.96,237.96 256.47,242.94 249.39,248.49 240.55,256.61 232.33,265.34 224.66,274.57 217.44,284.15 208.94,296.51 200.94,309.2 193.52,322.23 188.24,333 184.89,341.35 182.31,349.97 180.81,358.84 180.65,367.83 181.94,376.73 183.55,382.51 186.85,390.87 200.77,417.43 202.79,423.08 203.73,428.99 203.63,431.99 202.28,437.82 199.81,443.28 195.36,451.1 192.7,456.47 191.01,462.22 190.75,465.2 190.93,468.19 192.49,473.97 195.06,479.39 200.9,489.87 202.87,495.52 203.18,498.5 202.89,501.48 202.05,504.36 195.11,517.63 194.17,520.48 193.75,523.45 193.95,526.43 194.7,529.33 195.86,532.1 201.65,542.6 202.73,545.4 203.27,548.34 203.09,551.33 202.22,554.2 196.58,564.78 195.69,567.64 195.47,570.62 195.99,573.57 197.07,576.36 201.48,584.21 202.73,586.93 203.45,589.84 203.35,592.82 202.46,595.68 201.09,598.35" fill="none" stroke="#000000" stroke-width="1"/><polyline id="SvgjsPolyline1542" points="386.64,599.92 387.99,597.24 388.66,594.33 388.41,591.35 387.42,588.53 385.96,585.91 380.8,578.54 379.39,575.89 378.68,572.99 378.98,570.02 380.08,567.23 386.51,557.11 387.57,554.31 387.89,551.34 387.44,548.38 386.37,545.58 383.25,540.47 377.97,533.18 376.54,530.55 375.65,527.69 375.61,524.7 376.4,521.81 377.71,519.12 384.42,509.18 385.78,506.5 386.69,503.65 386.98,500.67 386.62,497.7 385.74,494.83 382.94,489.54 372.3,475.03 370.89,472.38 369.91,469.55 369.57,466.58 369.95,463.61 370.92,460.77 372.28,458.1 380.96,445.87 383.96,440.68 385.07,437.9 385.81,434.99 386.12,432.01 385.49,426.07 384.64,423.19 382.19,417.72 379.07,412.6 373.65,405.42 363.66,394.23 336.66,366.09 328.73,357.09 321.21,347.74 312.67,335.41 306.79,324.95 305.93,322.08 304.06,319.76 304.47,316.81 305.96,314.21 307.8,311.84 330.38,287.79 337.84,278.39 342.82,270.9 347,262.93 349.11,257.32 349.88,254.42 350.63,248.48 350.04,242.52 347.95,236.92 344.54,232 340.22,227.84 332.71,222.91 327.28,220.35 318.76,217.48 312.9,216.2 306.96,215.33 300.98,214.91 292.01,215.51 286.15,216.78 280.46,218.68 272.32,222.51 264.64,227.18 254.99,234.31 245.93,242.18 237.42,250.63 229.41,259.57 220.07,271.3 211.37,283.52 203.22,296.11 195.58,309.02 188.56,322.27 183.64,333.21 179.76,344.56 177.86,353.35 177.13,362.32 177.76,371.28 178.94,377.17 180.65,382.91 184.04,391.25 196.38,415.26 198.49,420.87 199.66,426.74 199.43,432.72 198.75,435.64 196.56,441.22 189.56,454.48 187.64,460.16 187.19,463.12 187.16,466.12 188.33,471.99 190.66,477.51 197.59,490.8 198.54,493.65 199.06,496.6 199.03,499.59 198.44,502.53 196.07,508.03 191.8,515.95 190.73,518.75 190.09,521.68 190.03,524.67 190.55,527.62 191.52,530.46 197.12,541.07 198.3,543.83 199.04,546.73 199.13,549.72 198.52,552.65 197.39,555.42 193.12,563.35 192.08,566.16 191.62,569.11 191.87,572.1 192.75,574.96 198.26,585.61 199.15,588.47 199.32,591.45 198.68,594.38 196.01,599.74" fill="none" stroke="#000000" stroke-width="1"/><polyline id="SvgjsPolyline1543" points="332.95,361.59 323.66,349.82 320.46,344.75 319.13,342.06 318.13,339.24 317.65,336.28 317.82,333.29 318.57,330.39 321.24,325.03 324.72,320.14 352.59,288.73 360.03,279.32 366.93,269.5 371.6,261.81 377.13,251.17 380.36,242.77 382.28,233.99 382.5,228 382.23,225.02 381.68,222.07 379.79,216.38 377,211.08 373.58,206.15 361.96,192.4 358.54,187.48 357.2,184.8 356.28,181.95 355.94,178.98 356.24,176 357.1,173.12 358.36,170.41 363.46,163 373.13,151.54 376.71,146.73 379.67,141.51 380.71,138.7 381.29,135.76 381.31,132.77 380.73,129.83 379.63,127.04 376.45,121.96 369.17,112.44 367.76,109.79 366.9,106.93 366.84,103.94 367.59,101.04 370.31,95.7 373.61,90.69 382.56,78.65 385.84,73.63 388.51,68.26 390.04,62.48 390.2,59.49 389.9,56.5 388.06,50.81 385.12,45.59 378.21,35.78 376.71,33.18 375.59,30.4 375.1,27.45 375.45,24.48 376.54,21.69 383.27,11.77 384.62,9.1 385.32,6.19 385.06,3.22 383.94,0.44" fill="none" stroke="#000000" stroke-width="1"/><polyline id="SvgjsPolyline1544" points="320.79,346.68 316.09,339.01 314.96,336.24 314.36,333.3 314.49,330.31 315.3,327.42 316.57,324.71 321.75,317.36 345.97,290.74 353.59,281.47 358.95,274.24 365.44,264.15 369.62,256.18 372.88,247.8 374.28,241.97 374.81,236 374.22,230.04 372.46,224.32 369.67,219.01 366.12,214.17 362.09,209.73 344.77,193.14 341.3,188.26 340.23,185.46 339.93,182.49 340.46,179.54 341.64,176.79 345.05,171.87 349.08,167.42 361.91,154.8 367.79,147.99 370.95,142.9 372.06,140.12 372.68,137.19 372.67,134.19 372,131.27 370.77,128.54 367.32,123.65 361.26,116.99 357.64,112.22 356.43,109.48 356.05,106.52 356.65,103.59 359.28,98.21 364.51,90.89 374.11,79.36 377.7,74.56 380.79,69.42 382.89,63.82 383.37,60.86 383.35,57.86 382.85,54.91 381.9,52.06 379.05,46.8 371.75,37.27 368.45,32.27 367.36,29.49 367.04,26.51 367.67,23.59 369.01,20.91 376.25,11.35 377.66,8.71 378.37,5.81 378.03,2.85 376.79,0.12" fill="none" stroke="#000000" stroke-width="1"/><polyline id="SvgjsPolyline1545" points="413.98,599.6 415.02,596.79 415.49,593.84 415.22,590.86 414.34,587.99 409.17,577.18 408.47,574.27 408.45,571.27 409.12,568.36 410.28,565.59 414.27,557.53 415.11,554.66 415.38,551.67 415.01,548.7 414.13,545.84 407.68,532.31 406.98,529.4 406.84,526.41 407.32,523.45 408.3,520.62 412.38,512.6 414.65,507.06 415.25,504.12 415.33,501.12 414.92,498.16 412.97,492.49 407.42,481.85 405.09,476.33 404.34,473.43 404.01,470.45 404.16,467.46 405.74,461.69 412.53,448.32 414.72,442.74 415.43,439.82 415.83,433.85 414.91,427.93 413,422.25 409.11,414.14 400.44,398.36 396.78,390.15 394.4,381.48 393.85,375.51 393.93,372.52 394.25,369.53 395.5,363.67 398.58,355.22 402.49,347.11 417.93,317.96 422.95,307.06 427.57,295.98 452.84,231.78 456.66,220.41 458.72,211.65 459.57,202.7 458.83,193.74 456.56,185.04 450.42,168.13 449.13,162.27 448.84,159.29 449.11,153.3 449.65,150.35 451.3,144.59 456.47,130.51 457.8,124.67 458.06,121.68 457.98,118.68 456.88,112.79 451.96,98.63 451.17,92.7 451.93,86.76 456.82,72.59 457.77,66.68 457.64,63.69 457.08,60.74 451.03,43.8 449.67,37.96 449.44,34.97 450.17,29.03 454.16,17.72 454.87,14.81 455.15,11.82 454.91,8.84 454.22,5.92 452.14,0.29" fill="none" stroke="#000000" stroke-width="1"/><polyline id="SvgjsPolyline1546" points="408.2,598.18 408.46,595.2 407.98,592.25 406.94,589.44 401.4,578.8 400.73,575.89 400.86,572.9 401.68,570.02 407.08,559.32 407.91,556.44 408.11,553.45 407.66,550.49 406.71,547.65 399.74,534.38 398.91,531.5 398.72,528.51 399.2,525.56 400.2,522.73 405.81,512.13 406.92,509.34 407.62,506.43 407.79,503.44 407.43,500.46 405.52,494.79 396.89,479.01 395.87,476.19 395.26,473.26 395.18,470.26 395.62,467.3 397.68,461.67 403.52,451.19 406.06,445.76 407.61,439.98 407.77,434 406.62,428.12 403.22,419.8 398.79,411.97 389.32,396.66 385.25,388.64 383.2,383 382.48,380.09 381.98,377.13 381.79,371.15 382.61,365.21 384.1,359.4 387.31,351 391.41,342.99 405.07,319.7 413.57,303.83 421.29,287.58 437.05,251.9 446.15,229.7 448.9,221.13 450.79,212.34 451.35,203.37 450.23,194.45 447.62,185.85 443.15,174.71 441.21,169.03 440.02,163.16 439.82,160.17 439.91,157.17 440.94,151.27 442.79,145.56 448.2,131.58 449.54,125.73 449.77,122.74 449.19,116.78 447.46,111.05 443.26,99.81 442.45,93.89 443.26,87.96 448.42,73.88 449.48,67.99 449.37,65 448.09,59.14 441.7,42.32 440.2,36.52 439.93,33.54 440.1,30.54 440.69,27.6 444.9,16.37 445.64,13.47 445.92,10.49 445.65,7.51 443.84,1.8" fill="none" stroke="#000000" stroke-width="1"/><polyline id="SvgjsPolyline1547" points="356.26,599.07 360.17,594.53 361.2,591.73 360.73,585.8 359.42,583.12 357.56,580.77 346.76,570.37 345.18,567.84 344.74,564.91 345.85,562.15 347.76,559.84 354.44,553.81 356.52,551.65 358.26,549.21 359.29,546.41 359.18,543.43 358.06,540.66 356.33,538.21 352.11,533.95 340.73,524.2 338.8,521.91 337.5,519.22 337.59,516.26 339.05,513.66 341.11,511.47 352.57,501.82 354.52,499.54 356.03,496.95 356.79,494.06 356.57,491.09 355.51,488.29 353.9,485.76 351.96,483.47 347.57,479.39 342.81,475.74 335.31,470.77 324.98,464.66 314.4,458.99 308.97,456.46 303.25,454.67 300.27,454.39 297.28,454.55 291.39,455.71 282.79,458.34 271.67,462.83 266.36,465.62 261.45,469.07 259.33,471.18 257.69,473.69 256.92,476.57 257.32,479.52 258.67,482.19 260.57,484.51 265.19,488.32 270.34,491.39 275.78,493.91 284.31,496.76 290.18,498 296.14,498.68 302.14,498.77 308.11,498.26 314,497.11 319.67,495.18 322.32,493.78 324.66,491.92 326.12,489.34 325.76,486.42 323.99,484.02 321.65,482.15 316.32,479.41 313.49,478.42 307.66,477.03 301.69,476.4 298.69,476.39 292.74,477.08 289.86,477.91 287.22,479.31 285.7,481.77 287.01,484.36 289.5,486.02 295.2,487.82 301.17,488.23 304.14,487.84 306.88,486.69" fill="none" stroke="#000000" stroke-width="1"/><polyline id="SvgjsPolyline1548" points="366.51,599.91 368.41,597.58 369.95,595.02 370.65,592.12 370.23,589.17 368.98,586.45 367.27,583.99 359.15,575.16 357.52,572.65 356.9,569.73 357.63,566.85 359.15,564.27 366.89,555.11 368.29,552.46 368.87,549.53 368.46,546.57 367.29,543.82 363.75,538.99 353.24,528.3 351.59,525.8 350.84,522.91 351.39,519.98 352.79,517.34 354.62,514.96 362.79,506.19 364.52,503.73 365.78,501.02 366.3,498.07 366.01,495.1 365.03,492.27 363.58,489.65 359.85,484.95 353.29,478.8 341.74,469.23 337.6,464.9 336.19,462.26 336.01,459.29 338.02,453.67 339.75,451.22 344.03,447.03 355.38,437.23 359.26,432.67 360.82,430.1 361.96,427.33 362.58,424.4 362.61,421.4 362.08,418.45 359.77,412.93 356.4,407.98 352.41,403.5 345.71,397.5 338.41,392.24 330.62,387.74 322.4,384.1 316.69,382.24 310.85,380.9 301.91,379.94 295.91,380.06 289.96,380.8 281.31,383.23 275.95,385.91 273.52,387.66 271.36,389.75 269.65,392.2 268.61,395.01 268.45,397.99 269.15,400.9 270.54,403.55 272.38,405.91 274.55,407.99 276.93,409.81 282.14,412.77 284.9,413.95 290.63,415.7 296.55,416.66 299.54,416.81 305.52,416.35 308.42,415.61 311.15,414.37 313.32,412.34 313.89,409.47 312.53,406.84 310.28,404.88 307.64,403.45 304.81,402.46 301.87,401.91 298.87,401.85 295.96,402.5 294.11,404.61 295.67,406.99 298.44,408.09 301.41,408.07" fill="none" stroke="#000000" stroke-width="1"/><polyline id="SvgjsPolyline1549" points="379.16,534.47 377.57,531.92 376.37,529.18 375.9,526.23 376.31,523.26 377.39,520.47 378.88,517.87 385.51,507.88 386.65,505.11 387.25,502.17 387.21,499.18 386.56,496.26 384.05,490.82 380.68,485.86 375.19,478.73 371.93,473.7 370.73,470.95 370.08,468.03 370.14,465.04 370.85,462.13 372.05,459.38 375.24,454.31 382.24,444.56 384.98,439.24 385.89,436.38 386.4,433.43 386.47,430.43 385.42,424.54 384.41,421.71 381.75,416.34 378.5,411.3 374.88,406.52 365,395.23 342.33,371.26 332.69,359.77 329.24,354.86 326.31,349.63 324.49,343.93 324.26,340.94 324.56,337.96 326.46,332.29 331.16,324.62 336.77,317.59 360.34,290.39 369.47,278.48 376.22,268.57 382.32,258.23 386.27,250.15 389.39,241.72 390.79,235.88 391.41,229.92 391.06,223.94 389.67,218.11 388.6,215.31 384.3,207.42 373.54,192.99 370.38,187.89 369.17,185.15 368.35,182.27 367.7,176.31 367.92,173.33 368.63,170.41 369.72,167.62 372.66,162.4 384.88,145.33 387.63,140 388.58,137.16 389.1,134.21 389.09,131.21 388.53,128.27 387.49,125.46 384.49,120.27 377.78,110.33 376.63,107.57 376.05,104.63 376.22,101.64 377.07,98.77 378.37,96.07 381.45,90.92 391.44,75.96 394.19,70.63 396.03,64.93 396.43,61.96 396.42,58.96 395.98,55.99 395.15,53.11 392.64,47.67 384.6,35.01 383.33,32.3 382.51,29.42 382.38,26.43 383.03,23.51 384.25,20.77 390.59,10.6 391.56,7.76 391.72,4.78 390.99,1.88" fill="none" stroke="#000000" stroke-width="1"/><polyline id="SvgjsPolyline1550" points="304.89,452.08 310,448.99 331.7,438.75 336.9,435.76 341.79,432.29 346.04,428.06 347.69,425.56 348.82,422.79 349.29,419.84 349.03,416.86 348.15,413.99 345.13,408.83 341.12,404.37 336.54,400.5 331.57,397.15 326.31,394.27 320.8,391.88 315.11,390.01 309.25,388.7 303.3,387.99 297.3,387.96 291.35,388.7 285.6,390.38 282.9,391.68 280.44,393.39 278.43,395.6 277.26,398.34 277.32,401.32 278.49,404.07 280.36,406.4 282.64,408.35 285.18,409.95 290.69,412.29 296.55,413.56 302.53,413.64 305.48,413.08 308.2,411.84 309.85,409.46 308.88,406.72 306.54,404.87 303.78,403.72 300.83,403.18 297.85,403.4" fill="none" stroke="#000000" stroke-width="1"/><polyline id="SvgjsPolyline1551" points="301.67,293.11 279.84,313.66 245.64,342.9 235.07,353.54 229.5,360.6 225.04,368.4 223.05,374.06 222.44,376.99 222.13,382.97 222.45,385.96 223.93,391.76 226.36,397.24 229.49,402.36 233.11,407.14 239.15,413.81 256.69,430.18 260.87,434.49 264.3,439.39 265.21,442.24 265.03,445.21 263.78,447.93 261.93,450.28 257.51,454.33 248.21,461.9 244.07,466.24 242.4,468.73 241.25,471.49 240.86,474.46 241.33,477.41 242.5,480.17 246.06,484.98 252.74,491 264.8,499.91 269.36,503.81 271.21,506.16 271.96,509.02 270.81,511.74 268.72,513.88 256.41,522.45 252.09,526.59 250.64,529.2 250.29,532.15 251.2,534.99 252.91,537.45 257.33,541.49 262.28,544.88 277.71,554.13 279.98,556.09 280.94,558.79 279.19,561.15 276.7,562.82 266.09,568.42 261.15,571.81 259.17,574.05 258.27,576.87 259.12,579.7 261.03,582 263.35,583.91 268.47,587.03 273.87,589.64 282.23,592.95 287.95,594.77 293.8,596.11 296.77,596.48 302.76,596.53 308.72,595.78 314.58,594.52 320.33,592.83 325.88,590.56 328.47,589.04 330.65,587 331.43,584.19 330.04,581.58 327.76,579.63 325.19,578.1 322.48,576.82 316.82,574.82 308.03,572.96 299.05,572.42 290.1,573.29 284.32,574.87 281.63,576.19 279.62,578.33 280.28,581.1 282.64,582.93 285.36,584.19 291.13,585.81 297.08,586.58 303.07,586.56 308.97,585.55 311.68,584.3" fill="none" stroke="#000000" stroke-width="1"/><polyline id="SvgjsPolyline1552" points="290.98,510.27 288.69,512.17 283.5,515.16 269.89,521.47 264.67,524.41 262.24,526.17 260.11,528.28 258.66,530.88 258.59,533.85 259.89,536.53 261.9,538.75 266.73,542.29 274.77,546.32 280.38,548.43 286.15,550.1 295.01,551.59 304,551.67 309.96,550.97 315.82,549.7 321.5,547.77 324.18,546.43 326.59,544.66 328.15,542.15 327.65,539.26 325.69,537.02 323.23,535.3 317.79,532.79 309.09,530.52 300.14,529.75 294.15,530.1 288.29,531.34 285.53,532.5 283.3,534.45 283.55,537.26 285.83,539.16 288.55,540.42 291.42,541.3 294.36,541.9 300.34,542.34 306.28,541.64 309.02,540.46" fill="none" stroke="#000000" stroke-width="1"/><polyline id="SvgjsPolyline1553" points="351.48,598.96 355.66,594.67 357.02,592.01 357.09,589.04 356,586.27 354.26,583.83 352.18,581.68 340.37,572.44 338.25,570.32 337.29,567.52 338.27,564.73 340.13,562.39 349.24,554.58 351.28,552.39 352.8,549.81 353.21,546.87 352.44,543.99 350.91,541.42 348.94,539.16 346.73,537.13 341.91,533.57 331.54,527.54 307.22,515.81 301.44,514.27 298.45,514.27 292.59,515.57 281.15,519.18 272.79,522.5 267.48,525.28 265.02,526.99 262.88,529.09 261.54,531.74 261.73,534.7 263.27,537.25 265.42,539.34 270.43,542.62 275.86,545.18 281.5,547.2 287.31,548.71 293.23,549.68 299.21,550.06 305.21,549.84 311.15,549.02 316.96,547.54 322.4,545.05 324.59,543.03 325.2,540.19 323.63,537.68 321.26,535.86 318.61,534.46 312.96,532.45 304.11,530.91 298.11,530.78 292.16,531.47 289.26,532.24 286.56,533.52 284.95,535.89 286.48,538.33 289.09,539.79 294.86,541.37 300.84,541.78 303.83,541.52 306.73,540.78 308.67,538.84 306.73,536.8 303.88,535.89 300.9,535.52 297.91,535.63 295.18,536.69" fill="none" stroke="#000000" stroke-width="1"/><polyline id="SvgjsPolyline1554" points="352.89,598.21 355.02,596.1 356.81,593.7 357.7,590.86 357.24,587.92 355.84,585.28 353.93,582.96 349.47,578.97 340.04,571.55 338.3,569.12 338.41,566.18 339.92,563.6 341.97,561.42 351,553.53 352.81,551.15 353.79,548.33 353.53,545.36 352.31,542.64 350.52,540.23 348.42,538.1 343.72,534.37 336.1,529.59 320.33,520.91 317.93,519.12 318.37,516.28 320.35,514.05 327.81,509.04 338.17,502.98 342.96,499.38 345.01,497.2 346.54,494.63 347.13,491.71 346.56,488.78 345.13,486.15 341.04,481.78 333.65,476.66 328.34,473.88 320,470.51 314.23,468.85 308.34,467.73 302.37,467.19 296.37,467.25 290.41,467.91 284.55,469.17 278.89,471.14 276.2,472.48 273.73,474.16 271.7,476.36 270.74,479.16 271.45,482.04 273.27,484.41 275.58,486.31 278.14,487.87 283.64,490.25 292.37,492.4 301.34,492.96 307.31,492.36 310.22,491.68 313.02,490.6 315.43,488.85 316.16,486.08 314.43,483.69 311.9,482.09 306.23,480.19 300.27,479.53 297.28,479.67 294.34,480.26 291.78,481.73" fill="none" stroke="#000000" stroke-width="1"/><polyline id="SvgjsPolyline1555" points="299.72,297.73 303.3,292.92 306.46,287.82 307.76,285.12 309.67,279.43 310.23,276.49 310.18,273.5 309.25,270.66 307.32,268.39 304.69,266.98 301.77,266.34 298.77,266.29 292.88,267.38 287.29,269.53 282.01,272.38 277.04,275.74 272.34,279.46 261.45,289.77 253.27,298.55 235.47,318.85 225.85,330.36 218.55,339.88 213.56,347.37 210.6,352.59 207.02,360.83 205.42,366.61 204.63,372.56 204.76,378.55 205.81,384.45 208.84,392.91 211.61,398.23 214.78,403.32 227.21,420.24 230.54,425.24 233.2,430.6 234.05,433.48 234.4,436.45 234.14,439.44 233.29,442.31 230.39,447.55 223.04,457.03 219.76,462.05 218.53,464.78 217.74,467.67 217.51,470.66 217.9,473.63 218.81,476.48 220.11,479.19 223.41,484.19 232.53,496.08 233.93,498.73 234.81,501.6 234.88,504.58 234.07,507.46 232.64,510.09 225.24,519.54 223.66,522.08 222.53,524.86 222.12,527.82 222.55,530.78 223.67,533.55 227.02,538.52 232.72,545.48 234.38,547.98 235.58,550.72 235.89,553.69 235.09,556.56 233.56,559.14 227.87,566.11 226.24,568.62 225.17,571.41 225.04,574.39 225.9,577.26 227.39,579.85 234.91,589.2 236.33,591.84 236.82,594.77 236.03,597.65" fill="none" stroke="#000000" stroke-width="1"/><polyline id="SvgjsPolyline1556" points="298.98,302.83 307.25,294.14 314.63,284.68 319.05,276.86 320.99,271.19 321.43,268.22 321.27,262.23 320.62,259.31 319.35,256.6 317.5,254.25 315.2,252.33 312.59,250.84 309.8,249.75 306.9,249 300.94,248.36 294.95,248.65 289.05,249.69 283.29,251.37 275.01,254.88 269.75,257.77 262.28,262.78 255.28,268.43 248.7,274.57 240.49,283.32 230.87,294.83 219.96,309.14 211.31,321.4 204.82,331.49 200.39,339.32 196.57,347.46 193.64,355.97 192.01,364.81 191.81,370.8 192.37,376.77 194.56,385.49 196.78,391.06 199.43,396.44 213.38,419.55 215.86,425.01 217.28,430.83 217.37,433.82 216.98,436.79 216.15,439.67 213.54,445.07 205.6,457.79 203.46,463.37 202.98,466.33 203.01,469.33 203.54,472.28 204.48,475.13 207.18,480.48 215.14,493.18 216.31,495.94 217.04,498.85 217.12,501.84 216.49,504.77 215.32,507.53 208.92,517.67 207.6,520.36 206.73,523.23 206.5,526.21 206.96,529.17 207.99,531.98 209.39,534.64 215.84,544.75 217,547.51 217.52,550.46 217.19,553.43 216.1,556.22 209.79,566.41 208.81,569.24 208.6,572.22 209.23,575.15 210.46,577.88 215.39,585.41 216.84,588.03 217.79,590.87 217.84,593.85 216.93,596.7 215.44,599.3" fill="none" stroke="#000000" stroke-width="1"/><polyline id="SvgjsPolyline1557" points="426.59,600 427.4,597.11 427.62,594.13 427.18,591.17 426.24,588.32 422.53,580.12 421.64,577.26 421.28,574.29 421.57,571.31 422.42,568.43 426.11,560.23 427.06,557.39 427.55,554.43 427.46,551.44 426.84,548.51 425.83,545.68 420.98,534.71 420.24,531.81 420,528.82 420.31,525.84 421.1,522.95 425.98,511.99 426.93,509.15 427.51,506.21 427.63,503.21 427.29,500.24 425.55,494.51 419.36,480.85 417.88,475.05 417.69,472.06 417.94,469.07 419.54,463.3 424.57,452.41 426.76,446.83 428.04,440.97 428.07,434.98 426.94,429.1 424.99,423.43 415.98,404.47 412.59,396.13 410.42,387.41 409.95,381.43 410.04,378.44 411.55,369.58 414.43,361.06 428.41,331.17 433.03,320.1 436.13,311.65 451.31,262.96 465.52,223.44 468.05,214.81 469.77,205.98 470.2,197 469.05,188.09 467.49,182.29 461.74,165.24 460.59,159.36 460.37,156.36 460.41,153.37 461.26,147.43 462.88,141.66 467.67,127.45 468.73,121.55 468.83,118.55 468.11,112.61 463.52,98.34 462.48,92.44 462.87,86.47 464.45,80.68 467.37,72.17 468.49,66.29 468.5,63.29 468.1,60.32 463.54,46.04 462.33,40.17 462.15,37.18 462.85,31.23 466.56,19.83 467.25,16.91 467.54,13.93 467.36,10.93 466.76,8 464.85,2.31" fill="none" stroke="#000000" stroke-width="1"/><polyline id="SvgjsPolyline1558" points="298.98,298.87 303.63,291.18 306.09,285.72 306.47,282.75 304.48,280.61 301.51,280.54 298.67,281.48 296.03,282.9 291.21,286.47 286.69,290.42 235.68,341.22 227.83,350.29 222.64,357.64 218.51,365.62 216.66,371.32 216.09,374.27 215.75,380.25 216.52,386.19 218.28,391.92 220.85,397.34 223.99,402.45 229.44,409.61 243.54,425.16 247.38,429.78 250.58,434.84 251.64,437.64 252.03,440.6 251.57,443.56 250.36,446.3 246.75,451.07 238.3,459.59 234.49,464.22 232.97,466.8 231.91,469.6 231.51,472.57 231.85,475.54 232.83,478.37 236.01,483.44 240,487.92 250.68,498.45 252.54,500.8 253.97,503.43 254.52,506.36 253.81,509.25 252.2,511.77 250.18,513.99 243.58,520.1 239.7,524.67 238.43,527.37 238.06,530.34 238.75,533.24 240.18,535.87 242.03,538.23 253.01,548.44 255.04,550.65 256.64,553.17 257.13,556.09 256.06,558.86 254.14,561.17 245.25,569.21 243.48,571.63 242.53,574.45 242.88,577.41 244.29,580.04 248.4,584.4 257.46,592.26 259.17,594.71 259.57,597.62" fill="none" stroke="#000000" stroke-width="1"/><polyline id="SvgjsPolyline1559" points="335.37,598.86 342.78,593.76 345.09,591.85 347.02,589.56 348,586.76 347.36,583.86 345.65,581.41 343.48,579.35 338.62,575.83 325.81,568.03 323.44,566.19 321.68,563.81 322.32,561.01 324.55,559.02 337.51,551.48 339.94,549.72 342.08,547.63 343.59,545.05 343.76,542.09 342.54,539.37 340.59,537.1 338.31,535.15 333.29,531.87 327.96,529.12 322.44,526.78 316.76,524.84 310.95,523.36 305.02,522.48 299.03,522.25 293.04,522.67 287.13,523.66 281.33,525.2 275.76,527.42 273.18,528.93 270.94,530.91 269.72,533.6 270.5,536.45 272.5,538.66 274.95,540.4 280.35,542.98 289,545.44 297.93,546.48 306.91,546.06 312.76,544.78 315.54,543.65 317.92,541.86 318.35,539.06 316.35,536.88 313.73,535.42 310.92,534.38 305.06,533.12 299.07,532.8 293.14,533.57 290.38,534.72" fill="none" stroke="#000000" stroke-width="1"/><polyline id="SvgjsPolyline1560" points="439.2,599.31 439.6,596.35 439.39,593.36 438.65,590.45 435.25,582.13 434.35,579.27 433.9,576.3 434.04,573.31 434.72,570.39 439.03,559.21 439.54,556.25 439.54,553.26 438.13,547.44 433.66,536.31 433,533.39 432.79,530.4 433.09,527.42 433.83,524.51 438.32,513.39 439.15,510.51 439.63,507.55 439.69,504.55 438.59,498.67 431.99,481.94 430.89,476.05 430.89,473.05 432.01,467.17 437.65,453.28 439.46,447.57 440.29,441.63 440.26,438.63 439.37,432.71 437.65,426.96 429.42,407.65 426.48,399.15 424.84,390.31 424.72,384.32 425.41,378.36 427.67,369.66 430.86,361.24 441.47,336.42 444.54,327.96 447.23,319.37 450.29,307.77 456.88,278.5 460.55,263.96 464.86,249.59 475.45,218.34 477.73,209.63 478.77,203.73 479.25,194.75 478.72,188.78 476.73,180.01 471.28,162.86 470.24,156.95 470.06,153.96 470.13,150.96 471,145.03 476.34,127.85 477.63,121.99 477.93,119.01 477.92,116.01 477.04,110.09 472.66,95.75 471.93,89.8 472.59,83.85 476.94,69.5 477.67,63.56 476.91,57.62 473.41,46.15 472.64,40.21 473.1,34.24 476.55,22.76 477.74,16.89 477.76,13.89 477.36,10.92 474.74,2.31" fill="none" stroke="#000000" stroke-width="1"/><polyline id="SvgjsPolyline1561" points="451.94,599.72 451.25,593.77 450.46,590.87 447.3,582.45 446.6,579.53 446.38,576.55 446.71,573.57 447.49,570.67 450.65,562.25 451.36,559.33 451.63,556.35 451.4,553.36 449.81,547.59 446.6,539.18 445.46,533.31 445.54,530.31 446.07,527.36 451.02,513.22 451.77,507.28 451.55,504.29 450.12,498.47 444.91,484.41 443.83,478.52 443.8,475.52 444.78,469.61 449.98,455.55 451.64,449.79 452.35,443.84 452.29,440.84 451.4,434.92 449.75,429.15 443.19,412.39 440.4,403.84 438.86,394.98 438.76,388.99 439.42,383.03 441.57,374.3 444.58,365.82 453.31,343.46 457.68,329.12 460.89,314.47 466.5,278.91 469.35,264.19 473.87,246.77 483.92,215.34 486.09,206.6 487.05,200.68 487.41,191.7 486.81,185.73 484.79,176.97 480.34,162.65 478.83,153.79 478.77,150.79 479.38,144.83 480.76,138.99 485.13,124.65 486.11,118.73 486.22,115.74 485.56,109.78 481.38,95.38 480.51,89.46 480.95,83.48 485.08,69.07 485.92,63.14 485.33,57.19 481.98,45.67 481.47,42.71 481.34,39.72 481.63,36.74 483.03,30.91 485.63,22.29 486.3,16.35 485.43,10.42 482.83,1.81" fill="none" stroke="#000000" stroke-width="1"/><polyline id="SvgjsPolyline1562" points="464.15,599.41 463.04,593.52 460.13,585.01 458.93,579.15 459.03,576.15 459.6,573.21 463.29,561.8 463.71,558.83 463.66,555.84 462.38,549.99 458.6,538.61 458.15,535.64 458.12,532.65 459.26,526.77 463.1,515.41 463.9,509.47 463.75,506.48 462.49,500.62 457.65,486.43 456.69,480.52 456.68,477.52 457.61,471.6 463.3,454.53 464.34,448.63 464.37,442.64 462.68,433.81 455.69,414.01 454.02,408.25 452.55,399.39 452.45,393.39 453.08,387.43 455.13,378.67 465.09,350.38 469.05,335.92 470.78,327.08 472.07,318.18 475.74,279.35 478.32,261.54 482.34,244 492.68,209.52 493.98,203.67 494.85,197.73 495.17,191.74 494.41,182.79 493.14,176.92 488.12,159.64 487.12,153.73 486.94,150.74 486.99,147.74 487.78,141.79 492.68,124.48 493.78,118.59 493.99,115.6 493.91,112.6 492.95,106.68 489.6,95.16 488.6,89.25 488.82,83.27 490.15,77.42 492.72,68.8 493.67,62.88 493.27,56.91 490.07,45.35 489.31,39.41 490.07,33.48 492.59,24.84 493.57,18.93 493.02,12.97 489.86,1.4" fill="none" stroke="#000000" stroke-width="1"/><polyline id="SvgjsPolyline1563" points="476.32,598.05 472.83,586.58 471.66,580.71 471.72,577.71 472.23,574.76 475.68,563.27 476.07,560.3 476.03,557.3 474.83,551.43 472.03,542.88 470.95,536.99 471.36,531.02 475.64,516.66 476.27,510.71 475.55,504.76 470.34,487.54 469.64,481.59 469.74,478.6 470.81,472.7 474.52,461.29 476.07,455.49 476.81,449.55 476.81,446.55 475.47,437.66 469.02,417.68 467.47,411.89 466.14,403 466.12,397 466.79,391.04 468.03,385.17 470.58,376.55 477.23,356.63 479.56,347.93 481.35,339.12 482.61,330.21 483.41,321.24 484.94,279.27 486.64,261.36 488.68,249.53 490.7,240.77 500.57,206.15 501.76,200.27 502.51,194.32 502.52,185.33 501.71,179.39 500.37,173.54 496.26,159.12 494.91,150.23 494.88,147.23 495.49,141.27 496.82,135.42 500.15,123.89 501.3,118.01 501.55,115.02 501.54,112.02 500.71,106.08 497.5,94.53 496.45,88.62 496.35,85.63 497.08,79.68 500.27,68.12 501.24,62.2 500.92,56.23 497.86,44.63 497.08,38.69 497.77,32.75 500.2,24.08 501.16,18.17 500.6,12.21 498.21,3.54 497.69,0.59" fill="none" stroke="#000000" stroke-width="1"/><polyline id="SvgjsPolyline1564" points="488.97,599.95 485.05,585.48 484.62,582.51 484.61,579.52 485.03,576.55 488.26,565 488.66,562.03 488.66,559.03 487.59,553.14 484.97,544.53 483.95,538.63 484.34,532.65 488.34,518.21 488.88,512.24 488.16,506.3 483.32,488.97 482.79,483 482.97,480.01 484.09,474.12 487.59,462.65 488.92,456.8 489.43,450.83 489.33,447.83 487.83,438.97 482.57,421.75 481.09,415.94 480.08,410.03 479.79,401.04 480.43,395.08 481.62,389.2 490.2,360.46 493.24,345.78 494.29,336.84 494.89,324.86 494.16,279.87 494.51,267.88 495.25,258.91 496.45,249.99 498.13,241.15 500.24,232.4 507.55,206.41 509.37,197.6 510.04,191.64 510.14,185.64 509.6,179.67 508.47,173.78 503.81,156.4 502.72,147.48 502.79,144.48 503.55,138.53 508.1,121.12 509.01,115.2 509.12,112.2 508.55,106.23 504.82,91.71 504.11,85.76 504.58,79.79 508.27,65.26 508.83,59.29 508.11,53.35 505.76,44.66 504.82,38.75 505.27,32.78 508.25,21.16 508.65,18.19 508.68,15.19 508.31,12.21 505.46,0.57" fill="none" stroke="#000000" stroke-width="1"/><polyline id="SvgjsPolyline1565" points="500.96,599.38 498,587.77 497.34,581.82 498.23,575.9 500.63,567.23 501.2,561.27 500.35,555.34 497.22,543.76 496.78,537.79 497.67,531.87 500.81,520.29 501.39,514.33 500.76,508.37 496.24,490.96 495.76,484.99 495.94,481.99 497.01,476.1 500.99,461.64 501.82,455.7 501.91,452.7 500.9,443.77 495.29,423.54 494.01,417.68 493.25,411.73 493.12,405.74 493.65,399.76 494.72,393.86 501.24,370.77 503.4,362.03 504.99,353.18 505.95,344.23 506.33,335.24 506.13,323.24 503.67,287.33 503.15,275.34 503.22,263.34 504.11,251.38 506.53,236.58 509.36,224.92 514.91,204.67 516.7,195.85 517.39,189.89 517.5,183.89 516.99,177.92 515.9,172.02 511.41,154.59 510.41,145.66 510.49,142.66 511.27,136.72 515.67,119.27 516.46,113.33 516.51,110.33 515.84,104.37 512.24,89.82 511.7,83.85 512.32,77.89 515.29,66.27 516.2,60.34 515.9,54.36 513.04,42.72 512.35,36.77 513.04,30.82 515.31,22.11 516.12,16.18 515.5,10.22 513.27,1.5" fill="none" stroke="#000000" stroke-width="1"/><polyline id="SvgjsPolyline1566" points="512.86,597.86 510.59,589.15 509.95,583.2 510.79,577.27 513.05,568.56 513.58,562.6 512.75,556.67 509.82,545.04 509.46,539.06 510.36,533.13 513.3,521.51 513.76,515.53 513.07,509.58 509.35,495.05 508.57,489.11 508.56,486.11 509.28,480.16 513.62,462.7 514.24,456.74 514.22,453.74 513.02,444.83 508.39,427.44 507.13,421.57 506.36,415.62 506.21,409.63 506.69,403.65 507.7,397.74 513.85,374.54 515.81,365.76 517.15,356.86 517.83,347.89 517.92,338.89 517.32,326.91 512.85,285.15 511.94,273.18 511.65,261.19 512.23,249.21 513.31,240.27 514.94,231.42 521.65,205.27 523.6,196.49 524.48,190.55 524.84,184.57 524.6,178.57 523.76,172.64 519.44,155.17 518.1,146.28 518.18,140.28 518.53,137.3 519.7,131.42 522.7,119.8 523.69,113.89 523.88,110.9 523.51,104.91 520.07,90.32 519.27,84.38 519.59,78.4 523.01,63.8 523.61,57.84 523,51.88 520.81,43.15 519.89,37.23 520.28,31.26 522.42,22.52 523.43,16.61 523.11,10.64 520.98,1.9" fill="none" stroke="#000000" stroke-width="1"/><polyline id="SvgjsPolyline1567" points="525.34,598.19 523.2,589.45 522.84,583.47 523.21,580.5 525.91,568.81 526.14,562.83 525.14,556.92 522.97,548.19 522.32,542.23 522.89,536.27 526.18,521.64 526.3,515.65 525.4,509.73 521.95,495.14 521.51,489.16 521.67,486.16 522.63,480.25 526.16,465.67 526.84,456.71 525.78,447.78 521.42,430.32 520.25,424.44 519.57,418.48 519.49,412.48 520.02,406.51 521.04,400.6 526.88,377.32 528.57,368.48 529.61,359.55 529.95,347.56 529.55,338.57 528.4,326.62 521.41,276.11 520.49,264.14 520.3,255.15 520.91,243.17 522.06,234.24 524.42,222.48 530.89,196.27 531.87,190.35 532.39,184.38 532.33,178.38 531.67,172.42 526.94,151.97 525.93,143.04 525.98,140.04 526.68,134.08 530.78,116.56 531.49,110.61 531.5,107.61 530.82,101.65 528.02,89.99 527.13,84.06 527.3,78.07 530.56,63.44 531.25,57.49 530.77,51.51 528.68,42.76 527.71,36.85 527.97,30.87 530.64,19.18 531.05,16.2 530.83,10.22 528.79,1.46" fill="none" stroke="#000000" stroke-width="1"/><polyline id="SvgjsPolyline1568" points="537.72,598.41 536.34,592.57 535.63,586.62 536.24,580.66 538.28,571.9 538.85,565.94 538.18,559.98 535.55,548.28 535.22,542.3 536.03,536.36 538.65,524.65 539.01,518.67 538.33,512.72 535.02,498.09 534.46,492.12 534.54,489.12 535.34,483.18 538.7,468.57 539.46,459.61 538.53,450.67 534.41,433.15 533.32,427.25 532.63,418.29 532.91,412.3 533.73,406.35 539.18,382.99 540.84,374.14 542.02,362.21 542.09,353.21 541.31,341.24 539.84,329.33 530.97,276.06 529.64,264.14 529.05,252.16 529.25,243.16 530.49,231.23 532.73,219.44 538.38,196.12 539.84,187.24 540.25,181.26 540.08,175.26 539.32,169.31 535.29,151.78 534.08,142.87 534.55,133.89 538.48,116.33 539.3,110.39 539.39,107.4 538.88,101.42 535.62,86.79 535.1,80.82 535.63,74.85 538.32,63.15 539.1,57.21 538.77,51.23 536.16,39.52 535.76,36.55 535.88,30.56 538.44,18.85 539.01,12.89 538.26,6.94 536.85,1.11" fill="none" stroke="#000000" stroke-width="1"/><polyline id="SvgjsPolyline1569" points="550,598.58 548.8,592.7 548.35,586.73 549.16,580.79 551.06,572 551.34,566.02 550.48,560.08 548.52,551.3 547.94,545.34 548.46,539.37 551,527.64 551.55,521.67 551.1,515.7 547.53,498.07 547.29,492.08 547.94,486.12 551.14,471.46 551.97,462.51 551.16,453.56 547.27,435.99 546.24,430.08 545.63,421.11 545.95,415.12 546.77,409.18 551.97,385.75 553.43,376.87 554.18,367.91 554.23,358.91 553.38,346.94 551.79,335.05 549.21,320.27 542.33,284.93 539.88,270.14 538.49,258.22 537.93,246.24 538.43,234.25 539.56,225.32 541.24,216.48 546.68,193.11 548.02,184.21 548.33,178.22 547.71,169.25 546.65,163.35 543.31,148.73 542.37,139.79 543.11,130.83 546.4,116.2 547.5,107.28 547.17,101.29 544.05,86.63 543.39,80.67 543.74,74.69 546.84,60.02 547.24,54.04 546.52,48.09 544.52,39.31 543.89,33.36 544.47,27.39 546.46,18.62 547.13,12.66 546.53,6.7 545.17,0.86" fill="none" stroke="#000000" stroke-width="1"/><polyline id="SvgjsPolyline1570" points="562.19,598.78 561.17,592.86 560.99,586.88 563.21,575.1 563.8,569.13 563.26,563.17 560.87,551.41 560.56,545.42 561.3,539.48 563.66,527.72 563.94,521.73 563.27,515.77 560.3,501.07 559.92,495.09 560.41,489.11 563.9,471.46 564.3,462.48 563.18,453.56 559.46,435.95 558.69,430 558.45,424.01 558.78,418.02 559.6,412.08 563.99,391.55 565.47,382.67 566.27,373.71 566.22,361.71 565.12,349.77 562.82,334.95 552.63,284.97 549.39,267.27 547.82,255.37 547.06,243.4 547.39,231.41 548.41,222.47 550.02,213.62 555.25,190.2 556.17,184.27 556.66,178.29 556.6,172.29 555.97,166.33 552.22,148.73 551.06,139.81 551.49,130.83 555.16,113.22 555.87,107.26 555.74,101.27 555.35,98.3 552.82,86.57 552.01,80.63 552.17,74.64 555.12,59.94 555.67,53.97 555.14,48 553.22,39.21 552.46,33.27 552.85,27.29 554.75,18.5 555.54,12.56 555.11,6.58 553.83,0.72" fill="none" stroke="#000000" stroke-width="1"/><polyline id="SvgjsPolyline1571" points="574.3,599.07 573.47,593.13 573.5,587.14 575.7,575.35 576.07,569.37 575.37,563.41 573.57,554.6 572.99,548.63 573.44,542.65 575.75,530.88 576.24,524.91 575.81,518.93 572.96,504.21 572.43,498.23 572.48,495.23 573.16,489.28 576.06,474.56 576.6,465.59 575.63,456.65 571.65,436.04 571.09,427.06 571.41,421.07 572.2,415.12 576.4,394.55 577.74,385.65 578.38,376.68 578.28,367.68 577.22,355.73 574.91,340.91 571.43,323.25 562.02,279.25 559.22,264.51 557.16,249.66 556.47,237.68 556.69,228.69 557.6,219.73 559.12,210.86 564.16,187.4 565.02,181.46 565.44,175.48 565.31,169.48 564.63,163.52 560.98,145.9 560.03,136.96 560.66,128 563.72,113.31 564.72,104.38 564.37,98.4 561.44,83.69 560.9,77.72 561.33,71.74 563.75,59.99 564.45,54.04 564.14,48.05 561.43,33.31 561.62,27.33 564.3,12.58 564.07,6.6 562.89,0.71" fill="none" stroke="#000000" stroke-width="1"/><polyline id="SvgjsPolyline1572" points="586.37,599.51 585.65,590.55 585.89,587.56 588.01,575.76 588.2,569.77 585.7,554.99 585.32,549.01 585.92,543.04 588.1,531.25 588.4,525.26 587.81,519.29 585.11,504.54 584.8,498.55 585.29,492.58 588.46,474.87 588.77,468.88 587.99,459.92 584.16,439.28 583.58,430.3 583.86,424.31 584.61,418.36 588.62,397.75 589.85,388.83 590.37,379.85 590.15,370.86 588.95,358.92 586.52,344.12 572.35,276.59 568.93,258.92 567.21,247.04 566.33,235.08 566.42,226.08 567.21,217.12 568.62,208.23 573.48,184.73 574.3,178.79 574.67,172.8 574.2,163.82 570.25,143.2 569.48,134.25 570.26,125.29 573.23,110.59 573.92,104.63 573.97,101.63 573.45,95.66 571.08,83.9 570.35,77.95 570.53,71.96 573.3,57.22 573.74,51.24 573.15,45.28 571.34,36.46 570.74,30.5 571.24,24.53 573.47,12.74 573.47,6.75 572.45,0.85" fill="none" stroke="#000000" stroke-width="1"/><polyline id="SvgjsPolyline1573" points="598.13,597.14 597.88,591.15 599.79,579.32" fill="none" stroke="#000000" stroke-width="1"/><polyline id="SvgjsPolyline1574" points="599.78,565.12 598.16,556.27 597.83,550.28 598.43,544.32 599.56,538.43" fill="none" stroke="#000000" stroke-width="1"/><polyline id="SvgjsPolyline1575" points="599.66,517.41 597.64,505.59 597.45,499.6 598.02,493.63 599.68,484.78" fill="none" stroke="#000000" stroke-width="1"/><polyline id="SvgjsPolyline1576" points="599.85,458.08 597.13,443.33 596.42,434.37 596.59,428.37 597.25,422.41 599.98,407.66" fill="none" stroke="#000000" stroke-width="1"/><polyline id="SvgjsPolyline1577" points="599.91,351.08 581.42,259.94 578.96,245.15 577.82,233.2 577.79,221.21 578.59,212.25 580.02,203.36 584.15,182.78 584.98,176.83 585.39,170.85 585.01,161.86 584.13,155.93 581.23,141.21 580.48,132.26 581.24,123.3 584.09,108.57 584.71,102.61 584.74,99.61 584.18,93.64 581.9,81.86 581.27,75.9 581.53,69.91 583.74,58.12 584.48,52.17 584.27,46.18 582.09,34.38 581.66,28.41 582.28,22.45 584.34,10.63 584.4,7.64 583.67,1.69" fill="none" stroke="#000000" stroke-width="1"/><polyline id="SvgjsPolyline1578" points="599.82,289.82 591.25,245.65 589.7,233.75 589.17,224.77 589.34,215.77 590.22,206.82 595.13,180.27 595.94,174.33 596.34,168.34 595.96,159.36 592.32,138.68 591.68,129.71 592.08,123.73 595.23,106.01 595.73,100.04 595.46,94.05 592.85,79.28 592.38,73.31 592.8,67.33 594.98,55.53 595.52,49.56 595.11,43.58 593.45,34.73 592.78,28.77 593.13,22.79 595.21,10.98 595.41,7.98 594.95,2.01" fill="none" stroke="#000000" stroke-width="1"/></g></svg>