<?xml version="1.0" standalone="no"?>
<svg id="SvgjsSvg1001" width="600" height="600" xmlns="http://www.w3.org/2000/svg" version="1.1" xmlns:xlink="http://www.w3.org/1999/xlink" xmlns:svgjs="http://svgjs.com/svgjs" class="svg-paper" viewBox="0 0 600 600"><title id="SvgjsTitle1929">x=cos(max(sqrt(x*x + y*y),x*sin(y)/y))|y=(y+sqrt(x*x + y*y))|dTest=0.0|sd=0.2|sm=0.2|ts=0.05 | generated with FlowLines</title><g id="SvgjsG1930"><polyline id="SvgjsPolyline1931" points="0,521.08 10.51,492.98 15.09,478.7 18.27,467.13 20.99,455.44 23.2,443.65 24.93,431.77 26.46,416.85 27.61,395.89 27.87,371.89 27.37,344.89 25.32,278.93 24.84,251.93 24.88,215.93 25.5,188.94 26.79,158.97 29.35,120.05 40.1,0.54" fill="none" stroke="#000000" stroke-width="1"/><polyline id="SvgjsPolyline1932" points="0.62,550.34 16.82,511.59 22.01,497.52 25.7,486.1 29.58,471.61 32.05,459.87 34.34,445.05 35.55,433.11 36.58,412.14 36.47,388.14 35.37,361.17 31.87,301.27 30.24,265.31 29.44,229.32 29.58,196.32 30.86,157.34 33.24,118.41 36.19,82.53 43.61,1.87" fill="none" stroke="#000000" stroke-width="1"/><polyline id="SvgjsPolyline1933" points="0.09,486.33 7.02,463.36 11.84,442.92 15.37,422.23 17.94,398.37 19.16,377.4 19.7,356.41 19.49,245.41 20,215.42 21.05,185.44 22.48,158.48 25.03,122.57 36.15,0.07" fill="none" stroke="#000000" stroke-width="1"/><polyline id="SvgjsPolyline1934" points="0.84,579.69 6.73,565.9 25.33,524.92 31,511.04 35.04,499.74 39.29,485.36 41.96,473.66 44.36,458.85 45.55,446.91 46.33,425.93 45.7,401.94 44.33,380.99 38.6,315.24 35.97,279.34 34.15,240.38 33.61,201.39 34.41,162.4 36.64,120.46 39.96,78.59 47.07,0.91" fill="none" stroke="#000000" stroke-width="1"/><polyline id="SvgjsPolyline1935" points="0.08,440.54 3.13,425.85 6.05,408.09 8.22,390.23 9.77,372.29 11.53,336.34 13.53,240.36 14.69,207.38 16.05,180.42 20.14,123.56 31.4,1.08" fill="none" stroke="#000000" stroke-width="1"/><polyline id="SvgjsPolyline1936" points="6.09,597.89 15.77,575.93 36.91,532.84 45.03,513.48 48.89,502.12 52.69,487.62 54.84,475.81 56.45,460.9 56.99,442.92 56.68,430.92 55.96,418.94 53.73,395.05 45.52,326.54 41.87,290.72 39.99,266.8 38.75,245.83 37.61,209.85 37.52,188.86 37.85,167.86 38.57,146.87 39.84,122.9 43.23,78.03 50.3,0.36" fill="none" stroke="#000000" stroke-width="1"/><polyline id="SvgjsPolyline1937" points="0.06,315.1 5.09,219.23 8.06,174.33 12.33,123.51 20.71,36.91 23.73,1.04" fill="none" stroke="#000000" stroke-width="1"/><polyline id="SvgjsPolyline1938" points="18.37,599.54 27.67,580.72 47.6,543.75 52.82,532.95 57.51,521.91 61.48,510.58 64.59,499 66.77,487.2 68.21,472.27 68.32,454.28 66.81,433.34 63.35,406.56 52.29,335.42 47.64,299.72 45.44,278.84 43.66,257.91 42.33,236.96 41.46,215.97 41.06,176.98 41.57,152.98 42.6,129.01 45.93,81.12 53.21,0.45" fill="none" stroke="#000000" stroke-width="1"/><polyline id="SvgjsPolyline1939" points="0.11,125.4 7.6,50.78 11.56,2.94" fill="none" stroke="#000000" stroke-width="1"/><polyline id="SvgjsPolyline1940" points="31.72,599.29 39.07,586.22 58.91,552.64 64.52,542.03 69.52,531.13 73.72,519.89 76.91,508.33 79.01,496.52 80.03,484.57 80.16,475.57 79.62,463.58 78.44,451.64 76.79,439.75 73.21,419.06 59.55,348.37 55.57,324.7 52.52,303.93 48.32,268.18 46.52,247.25 45.36,229.29 44.38,205.31 44.04,181.31 44.23,160.32 45.12,133.33 47.93,88.42 55.63,1.76" fill="none" stroke="#000000" stroke-width="1"/><polyline id="SvgjsPolyline1941" points="45.08,599.88 71.06,559.52 77.01,549.1 82.27,538.32 86.58,527.12 89.7,515.55 91.2,506.67 92.08,494.71 91.99,485.71 91.36,476.74 89.87,464.83 87.83,453 84.13,435.39 67.74,365.28 62.33,338.83 58.12,315.2 54.54,291.47 52.29,273.61 50.13,252.73 48.69,234.78 47.37,210.82 46.71,186.83 46.7,162.83 47.29,138.84 48.42,114.87 50.22,87.93 57.87,1.26" fill="none" stroke="#000000" stroke-width="1"/><polyline id="SvgjsPolyline1942" points="59.97,598.76 82.57,566.98 88.94,556.82 94.58,546.23 99.14,535.14 102.34,523.58 103.73,514.69 104.27,502.71 103.82,493.72 102.78,484.78 101.28,475.91 98.76,464.18 94.3,446.74 81.28,400.54 75.11,377.35 69.48,354.02 65.07,333.49 60.65,309.9 57.35,289.16 54.24,265.36 51.84,241.48 50.15,217.54 49.16,193.56 48.87,163.57 49.35,139.57 50.55,112.6 52.34,85.66 59.69,1.98" fill="none" stroke="#000000" stroke-width="1"/><polyline id="SvgjsPolyline1943" points="74.93,598.48 89.85,579.68 96.98,570.03 103.55,559.99 107.89,552.11 112.55,541.06 114.99,532.4 116.39,523.52 116.78,514.53 116.54,508.54 115.53,499.6 113.91,490.75 111.08,479.09 105.96,461.83 90.91,416.25 83.77,393.34 77.21,370.25 70.66,344.06 65.62,320.6 61.31,296.99 57.74,273.26 55.23,252.41 52.83,225.52 51.35,198.56 50.77,171.57 51.02,144.57 52.02,117.59 53.65,90.64 56.01,60.73 61.41,0.97" fill="none" stroke="#000000" stroke-width="1"/><polyline id="SvgjsPolyline1944" points="89.92,598.96 103.72,583.13 111.21,573.75 118.03,563.89 122.44,556.05 125.99,547.78 128.43,539.13 129.64,530.21 129.64,521.22 129.06,515.25 127.5,506.39 125.3,497.66 122.67,489.06 117.69,474.91 102.59,435.72 93.3,410.37 85.73,387.59 78.12,361.69 72.2,338.43 67.07,314.99 62.24,288.43 58.76,264.68 55.49,234.86 53.56,207.93 52.49,177.95 52.46,150.95 53.35,120.97 55.07,91.02 57.64,58.12 62.76,1.35" fill="none" stroke="#000000" stroke-width="1"/><polyline id="SvgjsPolyline1945" points="104.8,600 115.23,589.21 123.25,580.29 130.65,570.85 135.5,563.27 139.41,555.17 142.05,546.58 142.98,540.66 143.13,531.67 142.49,525.7 141.37,519.81 139.01,511.13 136.08,502.62 129.26,485.96 112.09,447.63 102.77,425.52 93.16,400.29 85.52,377.54 77.95,351.62 72.14,328.34 66.59,301.92 62.06,275.3 58.2,245.55 55.55,215.67 54.17,188.71 53.73,155.71 54.41,125.72 56.15,92.77 58.92,56.88 64.03,0.11" fill="none" stroke="#000000" stroke-width="1"/><polyline id="SvgjsPolyline1946" points="121.85,599.67 130.6,591.47 139.01,582.91 144.87,576.09 150.08,568.75 154.23,560.78 156.17,555.1 157.29,549.21 157.57,543.23 157.4,540.23 156.55,534.29 155.12,528.47 153.27,522.76 149.93,514.41 143.5,500.86 124.1,463.61 112.27,439.34 102.64,417.36 92.92,392.17 85.28,369.42 77.04,340.58 70.81,314.31 65.14,284.85 60.36,252.2 57.33,222.36 55.5,192.41 54.83,159.42 55.43,126.43 57.3,90.48 59.83,57.58 64.93,0.81" fill="none" stroke="#000000" stroke-width="1"/><polyline id="SvgjsPolyline1947" points="138.89,599.84 150.25,590.05 156.73,583.8 162.7,577.08 166.22,572.22 169.16,567 170.35,564.24 171.99,558.48 172.56,552.52 172.08,546.54 170.75,540.7 168.79,535.03 163.72,524.15 156.33,511.11 136.07,477.78 125.68,459.53 113.34,435.52 102.29,410.89 96.73,396.96 91.56,382.88 83.25,357.19 75.41,328.23 68.97,298.94 66.24,284.19 63.4,266.41 59.37,233.66 56.84,200.76 55.75,167.78 55.99,134.79 57.55,98.82 60.14,62.92 65.73,0.17" fill="none" stroke="#000000" stroke-width="1"/><polyline id="SvgjsPolyline1948" points="158.33,598.92 167.83,591.58 174.62,585.68 180.84,579.19 184.4,574.36 187.14,569.03 188.67,563.25 188.74,557.26 187.52,551.4 184.08,543.09 178,532.76 146.83,488.66 138.58,476.14 130.72,463.36 123.28,450.34 116.27,437.08 104.79,412.64 97.92,396.01 91.67,379.13 86,362.05 80.88,344.79 75.58,324.47 71.59,306.92 67.55,286.31 64.6,268.56 61.04,241.79 58.28,211.92 56.74,181.97 56.36,151.97 57.02,121.98 58.76,89.03 61.28,56.12 66.11,2.34" fill="none" stroke="#000000" stroke-width="1"/><polyline id="SvgjsPolyline1949" points="177.89,598.82 187.83,592.1 194.94,586.59 199.34,582.51 203.19,577.92 206,572.64 206.76,569.74 206.99,566.75 206.68,563.77 205.93,560.87 204.84,558.08 201.97,552.81 196.75,545.48 163.73,506.62 154.46,494.83 145.6,482.73 137.19,470.31 129.26,457.58 121.8,444.56 114.83,431.28 107.09,415.03 100.01,398.49 93.57,381.68 87.73,364.65 82.46,347.44 77.74,330.07 72.89,309.64 68.71,289.06 63.87,259.46 60.03,226.69 57.85,196.77 56.84,163.79 57.16,130.79 58.62,97.82 61.2,61.92 66.52,2.15" fill="none" stroke="#000000" stroke-width="1"/><polyline id="SvgjsPolyline1950" points="197.46,599.91 208,594.18 215.71,589.54 220.62,586.09 225.09,582.1 226.97,579.77 228.38,577.13 229.02,574.21 228.72,571.24 227.67,568.43 224.35,563.45 220.34,558.99 187.34,528.4 174.71,515.57 164.68,504.43 155.12,492.87 146.06,480.92 137.51,468.59 127.94,453.35 119.1,437.67 110.98,421.61 103.55,405.22 96.78,388.54 89.68,368.78 83.38,348.74 78.58,331.4 73,308.06 69.96,293.37 66.76,275.66 62.11,242.99 60.23,225.09 58.8,207.14 57.81,189.17 57.25,171.18 57.33,135.18 58.64,102.21 61.59,60.32 66.92,0.55" fill="none" stroke="#000000" stroke-width="1"/><polyline id="SvgjsPolyline1951" points="222.24,599.6 247.47,589.99 258.41,585.07 260.92,583.43 262.78,581.13 262.17,578.32 260.04,576.23 257.59,574.49 234.25,560.93 221.59,552.89 209.35,544.21 195.29,532.98 181.95,520.9 169.35,508.05 157.52,494.49 148.25,482.69 137.85,468.01 126.67,450.23 116.52,431.85 107.35,412.96 99.12,393.64 91.77,373.98 85.24,354.02 78.71,330.92 74.44,313.44 70.67,295.84 67.39,278.14 64.58,260.36 62.24,242.52 60.09,221.63 58.74,203.68 57.72,182.7 57.3,164.71 57.32,143.71 58.64,104.73 61.76,59.84 67.09,0.08" fill="none" stroke="#000000" stroke-width="1"/><polyline id="SvgjsPolyline1952" points="211.36,599.44 222.22,594.35 230.21,590.2 235.27,586.98 237.57,585.06 239.46,582.74 241.22,577.05 240.78,574.11 239.37,571.47 237.5,569.12 233.19,564.95 209.69,546.32 198.15,536.73 187.01,526.7 176.31,516.18 164.13,502.93 154.54,491.4 145.48,479.45 135.29,464.61 125.86,449.28 118.57,436.17 109.21,417.38 101.93,400.91 94.27,381.36 88.38,364.35 81.42,341.39 76.13,321.07 72.15,303.51 68.66,285.85 66.12,271.07 63.12,250.29 60.74,229.42 59.2,211.49 58.1,193.52 57.43,175.54 57.32,139.54 58.81,100.57 61.55,61.67 66.87,1.9" fill="none" stroke="#000000" stroke-width="1"/><polyline id="SvgjsPolyline1953" points="254.83,599.96 266.71,598.32 278.67,597.38 311.67,596.95 323.66,596.5 335.59,595.27 344.43,593.6 350.21,592 355.84,589.91 361.19,587.21 366.05,583.71 368.15,581.57 369.9,579.14 371.09,576.4 371.51,573.44 371.01,570.49 369.67,567.82 367.74,565.52 362.91,561.99 357.47,559.49 348.83,556.98 339.97,555.45 328.02,554.34 316.03,553.9 277.03,553.51 265.06,552.77 256.12,551.73 244.33,549.52 232.79,546.22 224.38,543.02 213.56,537.85 200.72,530.11 188.63,521.24 175.08,509.4 162.51,496.52 150.86,482.8 140.1,468.38 128.6,450.8 118.2,432.56 107.58,411.05 99.32,391.74 90.97,369.24 83.71,346.37 77.43,323.21 71.49,296.87 66.65,270.31 62.88,243.58 60.41,219.71 58.58,192.77 57.78,168.78 57.8,138.79 58.67,111.8 60.43,81.85 62.79,51.95 67.35,1.15" fill="none" stroke="#000000" stroke-width="1"/><polyline id="SvgjsPolyline1954" points="228.33,599.38 245.44,593.79 271.32,586.09 276.94,583.99 279.36,582.34" fill="none" stroke="#000000" stroke-width="1"/><polyline id="SvgjsPolyline1955" points="238.16,599.57 255.68,595.45 270.51,593.21 285.47,592.28 312.47,591.96 324.42,590.92 330.32,589.84 336.07,588.15 338.82,586.95 341.34,585.33 343.03,582.89 342.22,580.09 340.04,578.06 337.39,576.66 334.57,575.65 328.72,574.36 316.77,573.31 292.77,573.07 280.79,572.44 268.91,570.78 257.24,568.01 245.95,563.96 235.07,558.9 224.59,553.07 212,544.91 197.64,534.07 184.06,522.26 169.22,507.41 155.46,491.55 142.77,474.82 131.15,457.33 120.58,439.19 111,420.5 102.39,401.35 93.65,379 86.01,356.25 79.38,333.19 73.7,309.87 68.91,286.36 64.55,259.71 61.23,232.92 59.15,209.01 57.85,185.05 57.31,161.05 57.54,134.06 58.56,107.08 60.23,80.13 66.92,2.42" fill="none" stroke="#000000" stroke-width="1"/><polyline id="SvgjsPolyline1956" points="363.94,599.37 375.21,595.28 380.61,592.67 385.77,589.61 390.61,586.07 395.01,581.99 398.77,577.33 400.34,574.77 402.63,569.24 403.27,566.31 403.51,563.32 403.32,560.33 402.71,557.4 401.7,554.58 398.63,549.43 396.69,547.15 392.23,543.15 384.6,538.4 376.33,534.86 367.72,532.24 355.97,529.83 344.07,528.34 329.1,527.36 275.11,526.75 263.12,526.2 251.17,525.16 239.29,523.43 227.57,520.88 216.1,517.38 204.98,512.88 191.72,505.87 179.29,497.49 167.73,487.94 161.21,481.74 154.98,475.24 143.4,461.47 136.27,451.82 131.22,444.37 121.84,429.01 112.01,410.45 103.28,391.36 95.54,371.84 87.8,349.12 81.12,326.07 75.43,302.76 70.66,279.24 66.34,252.59 63.4,228.77 61.29,204.87 59.99,180.9 59.46,156.91 59.72,129.91 60.61,105.93 62.24,78.98 68.9,1.26" fill="none" stroke="#000000" stroke-width="1"/><polyline id="SvgjsPolyline1957" points="247.88,599.45 259.7,597.39 271.63,596.08 283.61,595.5 313.61,595.19 322.59,594.64 331.52,593.54 340.31,591.6 345.98,589.64 348.7,588.38 351.28,586.86 353.62,584.98 355.44,582.61 356.04,579.7 354.08,574.09 352.08,571.87 349.6,570.19 346.9,568.89 344.09,567.86 338.28,566.37 329.38,565.06 320.4,564.42 284.41,563.99 272.42,563.38 260.51,561.92 248.8,559.33 237.42,555.54 226.47,550.65 215.97,544.85 205.91,538.31 191.61,527.38 182.58,519.49 176.05,513.29 161.67,498 148.41,481.71 136.26,464.59 123.7,444.15 112.48,422.93 102.53,401.09" fill="none" stroke="#000000" stroke-width="1"/><polyline id="SvgjsPolyline1958" points="343.7,599.77 355.37,596.99 361.04,595.05 366.54,592.65 374.23,588 378.69,583.99 380.56,581.66 382.08,579.07 383.12,576.26 383.91,570.32 383.64,567.34 382.72,564.49 381.25,561.88 379.36,559.56 377.16,557.53 372.18,554.19 363.93,550.61 355.26,548.21 343.43,546.23 334.47,545.37 322.49,544.77 286.49,544.51 271.5,544.1 256.55,542.93 244.68,541.16 233,538.45 224.42,535.73 213.32,531.18 205.29,527.11 192.55,519.2 185.3,513.88 178.33,508.18 165.22,495.85 159.06,489.29 151.24,480.19 138.58,463.45 127.13,445.85 116.83,427.55 107.58,408.7 99.32,389.4 91.97,369.73 84.6,346.89 78.24,323.75 72.82,300.37 67.79,273.84 64.23,250.11 61.49,226.27 59.57,202.35 58.44,178.37 58.07,157.38 58.38,130.38 59.31,106.4 60.97,79.45 67.66,1.74" fill="none" stroke="#000000" stroke-width="1"/><polyline id="SvgjsPolyline1959" points="392.35,599.65 400.31,595.45 405.37,592.24 412.5,586.75 416.86,582.63 422.65,575.75 425.88,570.7 428.48,565.3 430.35,559.6 431.36,553.69 431.42,547.7 430.5,541.78 428.62,536.08 425.89,530.75 422.44,525.85 418.4,521.41 411.53,515.61 406.55,512.27 401.33,509.31 390.38,504.42 376.08,499.92 361.39,496.88 346.51,495.01 331.55,494.01 274.56,493.32 262.57,492.81 250.61,491.83 238.72,490.24 226.95,487.91 215.38,484.74 204.1,480.64 193.22,475.59 180.32,467.96 168.3,459 157.22,448.89 147.08,437.84 137.83,426.04 129.42,413.62 120.33,398.09 112.22,382.02 103.85,362.76 96.53,343.08 89.28,320.21 83.11,297.01 77.93,273.58 73.22,247 69.99,223.22 67.64,199.33 66.15,175.38 65.47,151.39 65.55,127.39 66.44,100.41 67.82,76.45 70.37,43.55 74.1,1.71" fill="none" stroke="#000000" stroke-width="1"/><polyline id="SvgjsPolyline1960" points="382.66,599.51 390.67,595.41 395.73,592.19 400.5,588.55 404.88,584.46 408.77,579.89 411.98,574.83 414.31,569.31 415.07,566.41 415.95,560.48 415.88,554.49 414.49,548.66 413.33,545.9 411.91,543.26 408.36,538.43 404.1,534.21 399.34,530.57 391.55,526.07 383.27,522.54 371.8,519.05 360.05,516.63 348.16,515.05 330.2,513.82 276.21,513.24 261.22,512.59 249.27,511.54 237.39,509.85 225.65,507.37 214.14,504 202.95,499.67 197.51,497.14 189.58,492.89 177.02,484.69 165.36,475.27 154.61,464.82 144.73,453.54 133.94,439.13 124.24,423.98 115.5,408.24 106.43,389.31 98.42,369.9 90.44,347.26 84.38,327.16 78.41,303.92 72.83,277.5 68.83,253.84 65.69,230.05 63.41,206.16 61.95,182.2 61.28,158.21 61.4,131.21 62.35,104.23 63.96,77.28 70.34,2.55" fill="none" stroke="#000000" stroke-width="1"/><polyline id="SvgjsPolyline1961" points="415.18,599.69 425.08,592.91 431.99,587.15 438.33,580.77 443.99,573.78 448.84,566.2 452.74,558.1 455.54,549.55 456.73,543.67 457.4,534.71 457.07,528.72 456.11,522.8 453.54,514.18 449.73,506.04 444.86,498.47 439.13,491.54 432.72,485.23 425.77,479.51 418.41,474.33 410.72,469.67 402.75,465.48 394.57,461.73 386.21,458.4 377.69,455.49 366.14,452.26 357.35,450.31 348.49,448.78 330.59,446.89 315.6,446.3 279.61,446 267.62,445.38 258.67,444.52 246.81,442.67 238.03,440.68 226.57,437.15 218.22,433.8 207.51,428.4 197.38,421.97 187.91,414.6 179.14,406.42 171.06,397.55 161.9,385.69 153.68,373.14 146.29,360.09 138.36,343.93 130.19,324.59 122.97,304.87 116.56,284.88 110.87,264.66 105.22,241.34 100.48,217.81 96.69,194.12 94.16,173.27 92.39,152.34 91.45,134.37 90.99,110.38 91.27,89.38 92.41,62.4 94,38.46 96.97,2.58" fill="none" stroke="#000000" stroke-width="1"/><polyline id="SvgjsPolyline1962" points="408.03,599.22 415.51,594.23 422.47,588.53 426.76,584.33 432.52,577.43 437.31,569.82 439.85,564.38 441.76,558.7 442.96,552.82 443.5,543.84 443.13,537.86 441.97,531.98 438.82,523.56 435.89,518.33 430.46,511.16 426.3,506.85 419.42,501.05 409.38,494.49 404.09,491.67 395.9,487.94 381.75,482.96 373.06,480.65 364.25,478.78 349.42,476.57 334.47,475.32 316.48,474.74 274.49,474.4 253.54,473.05 241.64,471.49 229.87,469.17 218.3,465.99 207.03,461.89 201.53,459.48 193.51,455.41 183.26,449.17 171.27,440.16 162.38,432.11 152.15,421.15 142.85,409.38 134.43,396.97 126.81,384.05 118.61,368.04 110.18,348.81 102.81,329.14 95.53,306.28 89.33,283.09 84.13,259.66 79.88,236.04 76.57,212.28 74.43,191.39 72.82,167.44 72.06,143.46 72.1,119.46 72.71,98.47 74.16,71.51 76.16,44.58 79.83,2.74" fill="none" stroke="#000000" stroke-width="1"/><polyline id="SvgjsPolyline1963" points="437.56,598.25 444.64,592.69 449.12,588.7 455.46,582.32 459.41,577.8 464.86,570.64 468.16,565.63 473.88,555.09 478.31,543.94 480.7,535.27 481.82,529.37 482.55,523.42 482.87,517.43 482.79,511.43 482.3,505.45 481.41,499.52 480.12,493.66 476.45,482.25 471.45,471.35 468.52,466.11 463.68,458.52 456.52,448.9 446.71,437.55 434.13,424.68 410.38,401.77 404.14,395.28 398.24,388.49 392.89,381.26 389.77,376.13 386.04,367.96 384.29,362.22 382.81,353.35 382.55,341.36 383.42,329.39 386.56,299.56 387.61,284.6 388.06,263.6 387.3,242.62 385.49,221.7 382.39,197.9 369.33,121.01 366.22,100.24 364.02,82.37 362.15,61.46 361.19,43.48 360.85,22.49 361.26,1.49" fill="none" stroke="#000000" stroke-width="1"/><polyline id="SvgjsPolyline1964" points="429.92,598.6 436.99,593.04 443.59,586.92 449.64,580.26 455.06,573.08 459.76,565.41 463.63,557.29 465.71,551.66 467.98,542.96 469.16,534.04 469.44,525.05 469.07,519.06 467.57,510.19 464.97,501.58 461.37,493.34 456.89,485.53 451.68,478.2 445.86,471.34 439.55,464.92 430.53,457.01 420.99,449.74 411.04,443.03 400.79,436.8 387.64,429.58 376.9,424.22 363.25,418.01 349.35,412.37 338.03,408.4 326.48,405.17 317.63,403.51 311.67,402.88 287.68,402.24 281.74,401.45 275.93,399.98 270.44,397.56 267.94,395.92 265.7,393.92 263.88,391.55 262.68,388.81 262.36,385.84 263.07,382.94 264.68,380.43 266.89,378.41 269.45,376.84 272.2,375.65 277.99,374.1 283.93,373.28 292.92,372.84 310.92,372.66 316.9,372.26 322.84,371.42 328.67,369.99 334.27,367.87 342.06,363.38 346.75,359.64 353.04,353.21 356.76,348.51 361.73,341.01 366.01,333.1 369.68,324.88 373.7,313.58 376.11,304.91 378.05,296.12 379.55,287.25 381.17,272.34 381.86,254.35 381.21,233.37 379.35,212.45 377.03,194.6 373.77,173.86 363.65,114.72 359.24,82.02 357.56,64.1 356.36,43.13 355.99,22.14 356.38,1.14" fill="none" stroke="#000000" stroke-width="1"/><polyline id="SvgjsPolyline1965" points="426.27,599.31 435.74,591.95 442.27,585.76 448.22,579.01 453.49,571.72 457.98,563.93 461.59,555.68 463.44,549.98 465.29,541.18 465.95,532.21 465.36,523.23 463.51,514.43 461.62,508.74 457.86,500.57 453.16,492.9 447.66,485.78 441.53,479.2 434.88,473.14 425.39,465.8 417.91,460.8 407.54,454.75 396.87,449.28 385.93,444.35 374.73,440.02 363.31,436.35 348.76,432.74 339.9,431.17 330.97,430.06 316,429.13 280,428.67 265.06,427.39 256.19,425.9 247.45,423.77 238.91,420.92 233.38,418.61 225.36,414.53 217.75,409.73 208.33,402.3 201.86,396.05 195.89,389.32 188.7,379.72 182.3,369.57 176.6,359.01 169.12,342.64 162.61,325.87 154.93,303.13 147.17,277.27 139.31,248.32 132.92,222.09 127.93,198.61 123.75,174.98 120.85,154.18 118.97,136.28 117.52,115.33 116.83,94.34 116.85,73.35 117.49,52.36 118.83,28.39 120.87,1.47" fill="none" stroke="#000000" stroke-width="1"/><polyline id="SvgjsPolyline1966" points="416.98,598.89 424.28,593.64 431.08,587.74 437.26,581.2 442.68,574.03 447.21,566.26 449.64,560.77 451.54,555.08 453.25,546.26 453.49,537.27 452.78,531.32 451.38,525.48 448.08,517.12 445.16,511.89 439.87,504.61 433.72,498.05 426.89,492.19 419.55,486.99 414.43,483.86 406.48,479.64 398.27,475.95 381.33,469.89 372.67,467.46 363.89,465.47 349.09,463.06 331.16,461.48 316.17,460.99 277.17,460.68 256.22,459.34 244.33,457.71 232.58,455.29 223.92,452.88 212.63,448.82 201.75,443.76 191.37,437.74 181.58,430.81 170.24,421.01 161.89,412.39 152.34,400.83 143.72,388.56 134.47,373.12 126.27,357.1 117.84,337.87 110.46,318.21 103.99,298.23 97.59,275.1 92.18,251.72 87.72,228.14 84.22,204.4 81.67,180.54 80.2,159.59 79.42,138.61 79.3,114.61 79.93,90.62 81.18,66.65 83.13,39.72 86.49,0.87" fill="none" stroke="#000000" stroke-width="1"/><polyline id="SvgjsPolyline1967" points="423.68,599.55 433.22,592.29 439.8,586.15 445.79,579.44 451.09,572.17 455.58,564.38 459.15,556.12 461.64,547.48 462.65,541.56 463.11,532.58 462.68,526.6 460.94,517.78 457.94,509.3 453.83,501.3 448.78,493.86 442.95,487.01 436.51,480.72 429.58,474.99 422.26,469.75 414.63,464.98 406.75,460.64 395.92,455.48 387.59,452.08 376.25,448.14 367.6,445.66 352.95,442.46 344.05,441.1 335.1,440.17 320.13,439.39 281.13,438.95 263.2,437.48 254.31,436.06 245.53,434.07 236.92,431.47 228.53,428.22 217.8,422.86 210.17,418.09 200.62,410.83 191.85,402.66 181.86,391.46 174.59,381.92 167.99,371.9 160.57,358.87 152.68,342.69 144.58,323.32 137.39,303.59 130.04,280.75 122.72,254.76 117.03,231.44 112.17,207.94 108.21,184.27 105.55,163.44 103.64,142.53 102.5,121.56 102.08,100.57 102.32,79.57 103.12,58.59 104.8,31.64 107.21,1.74" fill="none" stroke="#000000" stroke-width="1"/><polyline id="SvgjsPolyline1968" points="454.88,599.69 461.75,593.88 468.25,587.66 478.18,576.43 483.56,569.21 488.47,561.67 492.88,553.83 496.79,545.73 500.16,537.38 502.97,528.84 505.21,520.12 506.87,511.27 507.64,505.32 508.29,496.35 508.34,487.35 507.8,478.37 506.19,466.48 503.63,454.76 500.22,443.26 496.08,432 491.33,420.98 484.74,407.51 460.31,362.74 449.74,341.2 445.07,330.14 439.9,316.06 435.47,301.74 431.64,287.23 425.19,257.94 409.11,175.49 402.61,140.08 398.01,110.44 394.92,83.62 393.09,56.68 392.59,29.69 393.3,2.7" fill="none" stroke="#000000" stroke-width="1"/><polyline id="SvgjsPolyline1969" points="449.23,598.65 456.01,592.73 462.38,586.38 466.38,581.91 471.97,574.86 475.42,569.95 480.13,562.28 484.26,554.29 486.67,548.79 488.79,543.18 491.4,534.57 493.29,525.77 494.14,519.83 494.95,504.86 494.79,498.87 493.92,489.91 492.34,481.05 489.17,469.48 484.92,458.27 479.75,447.44 473.84,437 467.35,426.91 458.68,414.67 437.19,385.79 427.23,370.8 421.4,360.32 417.59,352.16 414.36,343.76 410.96,332.26 408.47,320.52 406.68,308.66 401.03,251.94 396.85,219.21 392.58,192.55 381.06,127.56 378.29,109.78 375.92,91.93 373.57,68.05 372.37,47.09 371.99,26.09 372.48,2.1" fill="none" stroke="#000000" stroke-width="1"/><polyline id="SvgjsPolyline1970" points="436.21,598.95 440.92,595.24 447.63,589.23 455.8,580.45 462.95,570.82 468.92,560.42 473.54,549.36 475.28,543.62 476.62,537.77 477.53,531.84 478,525.86 478.02,519.86 477.58,513.88 476.69,507.95 475.35,502.1 473.59,496.37 470.2,488.03 467.5,482.68 462.85,474.97 459.41,470.06 453.81,463.01 447.78,456.33 441.43,449.95 428.06,437.91 413.98,426.7 387.6,406.88 376.12,397.23 371.88,392.98 368.04,388.38 364.88,383.29 362.76,377.69 361.97,371.75 362.04,368.75 362.88,362.82 365.19,354.12 371.8,334.19 375.25,322.7 378.16,311.06 380.47,299.28 381.79,290.38 383.02,278.44 383.68,266.46 383.83,254.47 383.51,242.47 382.77,230.49 379.89,203.65 376.81,182.88 365.2,114.86 362.62,97.05 360.49,79.18 358.91,61.25 357.84,40.28 357.57,22.28 357.97,1.28" fill="none" stroke="#000000" stroke-width="1"/><polyline id="SvgjsPolyline1971" points="446.32,598.37 450.91,594.51 457.44,588.32 461.55,583.95 467.3,577.03 470.85,572.19 475.7,564.61 479.94,556.67 482.41,551.21 484.57,545.61 487.22,537.01 489.55,525.25 490.45,513.29 490.35,507.29 489.5,498.33 487.11,486.58 483.4,475.18 478.52,464.22 472.67,453.74 466.05,443.74 458.85,434.14 447.36,420.29 425.7,395.39 414.64,381.19 409.71,373.67 405.37,365.78 401.81,357.52 399.1,348.95 396.78,337.18 395.6,325.24 394.23,265.26 393.11,247.3 391.39,229.38 389.14,211.52 385.97,190.76 373.2,116.86 369.85,93.1 367.9,75.2 366.52,57.26 365.75,39.27 365.58,21.28 366.06,0.28" fill="none" stroke="#000000" stroke-width="1"/><polyline id="SvgjsPolyline1972" points="437.9,599.4 447.14,591.75 453.54,585.42 457.53,580.94 461.27,576.25 466.38,568.85 472.18,558.35 474.59,552.85 477.54,544.35 480.13,532.65 480.81,526.69 481.06,520.69 480.88,514.7 480.27,508.73 479.23,502.82 477.77,497 473.7,485.73 468.26,475.04 465.1,469.94 459.91,462.59 450.27,451.1 439.75,440.42 428.64,430.34 401.2,407.03 394.57,400.95 388.3,394.5 382.68,387.48 377.87,379.87 375.4,374.41 373.76,368.64 373.28,365.68 372.92,359.7 373.54,350.72 374.99,341.84 381.4,309.47 384.17,288.66 385.42,267.7 385.22,246.71 383.79,225.76 380.99,201.93 376.83,175.25 366.66,116.12 363.66,95.33 361.9,80.44 360.08,59.52 359.18,41.54 358.88,23.54 359.24,2.55" fill="none" stroke="#000000" stroke-width="1"/><polyline id="SvgjsPolyline1973" points="433.49,599.21 440.55,593.62 445,589.6 451.27,583.15 455.13,578.56 460.42,571.28 463.57,566.17 466.39,560.88 469.94,552.61 472.61,544.02 473.86,538.16 474.66,532.21 474.97,523.22 474.58,517.23 473.71,511.3 472.37,505.45 469.52,496.92 467.11,491.43 464.33,486.11 457.8,476.06 450.21,466.76 439.63,456.14 428.17,446.47 413.65,435.84 401.13,427.57 370.53,408.62 358.07,400.26 353.38,396.53 349.14,392.29 347.37,389.87 346.02,387.19 345.29,384.29 345.26,381.3 345.84,378.36 346.82,375.52 349.41,370.12 358.39,354.52 363.98,343.9 369.98,330.16 373.91,318.82 377.06,307.24 379.95,292.53 381.76,277.64 382.62,262.67 382.7,250.67 382.14,235.68 380.96,220.73 379.27,205.82 375.32,179.12 364.22,114.06 361.26,93.27 359.24,75.38 357.78,57.44 356.93,39.46 356.69,21.46 357.11,0.47" fill="none" stroke="#000000" stroke-width="1"/><polyline id="SvgjsPolyline1974" points="433.43,598.3 440.43,592.65 446.97,586.46 452.97,579.76 456.63,575.01 461.57,567.49 464.45,562.23 466.98,556.79 470.04,548.33 472.14,539.58 472.97,533.64 473.32,527.65 473.17,521.65 472.03,512.73 470.66,506.89 468.83,501.18 465.28,492.91 459.25,482.55 455.76,477.67 450.04,470.73 439.47,460.09 427.95,450.49 413.27,440.07 395.39,429.08 382.28,421.78 350.35,405.16 342.51,400.73 337.61,397.28 333.46,392.96 332.05,390.33 331.97,387.37 333.07,384.59 336.55,379.71 348.17,365.96 355.26,356.29 362.96,343.43 368.14,332.6 373.37,318.55 377.3,304.08 380.04,289.34 381.91,271.44 382.4,259.45 382.28,244.45 381.47,229.47 379.74,211.56 375.55,181.86 363.07,107.9 360.64,90.07 358.71,72.17 357.36,54.22 356.62,36.24 356.48,18.24 356.89,0.25" fill="none" stroke="#000000" stroke-width="1"/><polyline id="SvgjsPolyline1975" points="429.66,598.97 439.03,591.47 445.49,585.21 451.38,578.41 456.62,571.1 461.11,563.31 464.76,555.08 467.47,546.51 469.12,537.66 469.64,528.69 468.98,519.72 467.14,510.91 465.29,505.21 461.66,496.98 457.13,489.21 451.83,481.93 445.92,475.16 439.49,468.85 430.31,461.13 420.59,454.1 410.46,447.67 400,441.79 386.55,435.15 372.75,429.28 361.47,425.19 352.87,422.54 344.15,420.33 329.37,417.82 314.42,416.6 287.42,416.28 272.48,415.11 260.72,412.74 255,410.95 249.43,408.72 244.07,406.03 238.96,402.88 231.88,397.33 227.61,393.12 223.72,388.56 220.23,383.68 217.14,378.53 213.25,370.42 210.18,361.97 207.85,353.28 206.15,344.44 204.95,335.52 203.64,317.57 202.56,284.59 201.6,266.62 200,248.69 198.14,233.81 194.34,210.11 181.71,142.28 178.54,121.52 176.38,103.65 174.42,79.73 173.54,55.75 173.66,31.75 174.97,1.78" fill="none" stroke="#000000" stroke-width="1"/><polyline id="SvgjsPolyline1976" points="431.88,598.99 438.94,593.42 445.55,587.31 451.62,580.67 455.34,575.96 460.36,568.5 464.64,560.59 468.09,552.28 469.87,546.55 471.72,537.75 472.36,531.78 472.39,522.79 471.78,516.82 470.68,510.92 468.13,502.3 465.87,496.74 461.74,488.75 456.83,481.22 453.18,476.45 449.29,471.89 443.04,465.41 436.4,459.34 429.44,453.63 422.22,448.26 412.28,441.54 394.23,430.81 383.64,425.16 370.2,418.5 345.53,407.54 317.54,396.76 317.55,394.01 321.03,389.23 337.33,376 343.75,369.7 347.75,365.23 355.07,355.72 358.38,350.72 362.89,342.94 369.27,329.36 372.41,320.93 375.08,312.34 378.51,297.74 380.01,288.87 381.11,279.94 382.03,267.97 382.37,252.98 381.94,237.99 380.87,223.02 379.26,208.11 377.25,193.25 364.3,116.33 361.28,95.55 359.5,80.66 357.65,59.74 356.72,41.76 356.4,20.77 356.74,2.77" fill="none" stroke="#000000" stroke-width="1"/><polyline id="SvgjsPolyline1977" points="432.69,598.25 439.7,592.6 446.23,586.42 452.23,579.72 457.61,572.51 462.29,564.82 466.18,556.71 469.19,548.23 470.66,542.42 471.99,533.52 472.21,524.53 471.31,515.58 470.08,509.71 468.38,503.96 464.98,495.63 460.7,487.72 455.65,480.27 449.98,473.28 441.64,464.67 432.61,456.76 425.49,451.25 415.65,444.39 402.92,436.47 389.82,429.17 376.44,422.39 362.83,416.08 349,410.27 337.76,406.07 326.3,402.53 320.45,401.19 314.52,400.31 308.53,399.94 296.53,399.81 290.55,399.31 284.74,397.88 282.14,396.39 282.5,393.69 285.03,392.19 290.91,391.14 302.91,390.89 308.88,390.36 314.74,389.1 320.32,386.91 325.61,384.08 333.03,378.99 339.88,373.16 344.14,368.93 350.07,362.17 355.46,354.96 361.8,344.78 365.93,336.79 369.55,328.55 373.58,317.25 376.05,308.6 378.65,296.88 380.86,282.05 382.05,267.1 382.31,249.1 381.51,231.12 379.85,213.2 377.54,195.35 374.28,174.61 364.15,115.47 361.55,97.66 359.39,79.79 357.58,58.87 356.68,40.89 356.39,19.89 356.75,1.9" fill="none" stroke="#000000" stroke-width="1"/><polyline id="SvgjsPolyline1978" points="429.74,599.74 436.88,594.27 443.57,588.26 449.74,581.7 455.3,574.63 460.18,567.07 464.28,559.07 467.51,550.67 469.76,541.96 470.95,533.04 471.01,524.05 469.91,515.12 468.55,509.28 465.61,500.78 461.7,492.68 456.96,485.04 451.51,477.88 443.38,469.06 434.48,461.01 425.01,453.65 415.1,446.89 404.85,440.64 391.68,433.46 378.18,426.93 364.38,421.06 347.42,415.04 338.75,412.63 329.94,410.78 324.01,409.92 315.04,409.22 294.04,408.97 285.06,408.46 279.11,407.67 273.25,406.4 264.79,403.36 259.57,400.42 257.15,398.64 252.88,394.44 249.35,389.59 247.86,386.99 246.69,384.23 245.47,378.37 245.46,375.37 245.88,372.41 246.71,369.53 247.93,366.79 249.51,364.24 251.4,361.91 255.9,357.96 258.43,356.35 263.84,353.76 272.47,351.27 281.38,350.01 290.36,349.54 314.36,349.21 326.28,347.9 332.12,346.55 337.79,344.6 345.75,340.42 350.55,336.82 354.88,332.68 358.74,328.08 362.13,323.14 365.1,317.93 367.69,312.52 369.93,306.95 372.7,298.39 376,283.77 377.31,274.86 378.18,265.91 378.81,247.92 378.23,229.93 376.7,212 374.46,194.14 371.25,173.39 361.17,114.24 358.58,96.43 356.44,78.56 354.85,60.63 353.77,39.66 353.5,21.66 353.89,0.66" fill="none" stroke="#000000" stroke-width="1"/><polyline id="SvgjsPolyline1979" points="428.93,598.44 438.27,590.91 444.69,584.61 450.53,577.76 455.69,570.39 460.07,562.54 463.57,554.25 466.08,545.61 467.49,536.73 467.71,527.74 467.18,521.77 465.37,512.96 462.41,504.46 458.42,496.4 453.55,488.84 447.95,481.8 441.75,475.28 435.08,469.24 425.6,461.88 418.15,456.84 407.85,450.68 397.22,445.11 386.31,440.12 375.16,435.69 363.78,431.89 355.11,429.49 346.32,427.54 331.49,425.36 316.52,424.48 286.52,424.16 271.57,422.99 262.7,421.51 256.86,420.13 248.29,417.39 242.75,415.09 234.77,410.93 227.29,405.94 222.63,402.17 216.15,395.92 212.2,391.41 206.81,384.2 200.4,374.06 196.2,366.11 191.36,355.13 187.24,343.86 182.85,329.51 178.3,312.1 153.54,203.9 148.17,177.44 144.14,153.78 142.06,138.93 139.82,118.05 138.54,100.09 137.85,82.11 137.71,64.11 138.07,46.11 139.02,25.13 140.63,1.19" fill="none" stroke="#000000" stroke-width="1"/><polyline id="SvgjsPolyline1980" points="426.06,599.93 435.58,592.63 442.16,586.5 448.18,579.81 453.54,572.59 458.15,564.86 461.89,556.68 464.65,548.12 466.31,539.28 466.77,533.3 466.42,524.31 464.83,515.46 462.06,506.91 458.21,498.78 453.44,491.15 447.9,484.06 441.75,477.5 435.09,471.44 425.62,464.08 415.61,457.47 407.83,452.95 397.15,447.47 386.19,442.59 374.98,438.32 366.42,435.54 357.74,433.16 348.95,431.21 340.08,429.72 331.14,428.71 316.16,427.95 286.16,427.66 277.18,427.17 268.23,426.22 259.36,424.67 253.53,423.27 247.79,421.53 239.4,418.28 231.36,414.24 223.76,409.42 216.67,403.88 210.14,397.7 204.17,390.97 198.76,383.78 193.88,376.22 188.13,365.69 181.94,352.03 175.63,335.17 169.3,315.15 162.81,292.05 153.01,254.3 144.6,219.3 138.35,189.96 134.16,166.33 131.6,148.51 129.33,127.63 128.01,109.68 127.21,88.7 127.14,67.7 127.6,49.71 128.82,25.74 130.54,1.8" fill="none" stroke="#000000" stroke-width="1"/><polyline id="SvgjsPolyline1981" points="474.51,598.36 481.01,592.13 487.16,585.57 492.97,578.7 500.16,569.09 506.68,559.02 511.12,551.19 515.17,543.15 519.95,532.15 523.06,523.71 525.77,515.12 528.74,503.5 530.49,494.67 531.83,485.77 532.99,473.83 533.41,464.84 533.37,452.84 532.7,440.86 531.04,425.96 528.57,411.16 525.42,396.5 521.72,381.96 516.76,364.66 497,301.69 486.28,264.19 481.09,243.84 475.03,217.53 470.23,194.02 466.01,170.39 462.87,149.63 460.33,128.79 458.45,107.87 457.31,86.9 456.92,68.91 457.13,47.91 457.96,26.93 459.51,2.98" fill="none" stroke="#000000" stroke-width="1"/><polyline id="SvgjsPolyline1982" points="466.12,599.88 472.7,593.74 478.91,587.24 484.76,580.39 490.21,573.23 495.25,565.78 501.3,555.42 505.31,547.36 508.87,539.1 511.95,530.64 514.55,522.03 516.64,513.28 518.24,504.42 519.32,495.49 519.9,486.51 520.01,474.51 519.61,465.52 518.37,453.59 516.36,441.76 513.67,430.06 510.39,418.52 506.61,407.13 501.33,393.09 475.6,332.32 469.09,315.54 464.08,301.4 458.59,284.26 452.05,261.17 445.51,234.97 438.92,205.71 432.87,176.32 427.49,146.81 423.47,120.11 420.75,96.27 419,72.33 418.27,48.35 418.45,27.35 419.63,0.38" fill="none" stroke="#000000" stroke-width="1"/><polyline id="SvgjsPolyline1983" points="454.52,599.17 465.52,588.98 471.57,582.32 477.18,575.29 485.47,562.79 489.75,554.88 493.47,546.69 495.63,541.09 498.37,532.52 500.47,523.77 501.92,514.89 502.71,505.92 502.86,499.93 502.71,493.93 501.92,484.96 500.5,476.08 497.65,464.43 493.83,453.05 489.17,442 483.83,431.25 476.46,418.19 449.27,375.04 438.92,356.78 433.72,345.97 429.19,334.86 425.36,323.49 422.18,311.92 419.54,300.21 416.78,285.47 406.36,220.3 390.41,131.72 385.96,102.06 383.06,75.22 381.55,51.26 381.13,24.27 381.78,0.28" fill="none" stroke="#000000" stroke-width="1"/><polyline id="SvgjsPolyline1984" points="462.91,599.63 469.53,593.54 475.78,587.06 481.64,580.24 487.1,573.08 492.12,565.61 496.69,557.86 500.8,549.85 504.42,541.61 507.53,533.17 510.13,524.56 512.2,515.8 513.73,506.93 514.7,497.99 515.13,489 515.01,480 514.36,471.02 513.21,462.1 510.92,450.32 507.85,438.72 504.12,427.32 499.84,416.11 493.88,402.35 467.8,348.31 461.71,334.61 457.18,323.5 452,309.42 446.49,292.28 441.66,274.94 436.64,254.55 428.26,216.47 418.75,169.42 412.94,136.94 409.01,110.22 406.15,83.38 404.56,56.43 404.28,29.43 405.17,2.45" fill="none" stroke="#000000" stroke-width="1"/><polyline id="SvgjsPolyline1985" points="430.39,598.83 437.47,593.28 444.08,587.18 450.15,580.54 455.6,573.38 460.34,565.73 464.28,557.64 467.31,549.18 469.34,540.41 470.27,531.47 470.25,525.47 469.24,516.53 467.09,507.8 463.86,499.4 459.69,491.44 454.7,483.95 449.05,476.95 442.85,470.43 433.91,462.42 424.39,455.12 414.43,448.43 404.12,442.29 390.86,435.29 377.24,429.01 363.3,423.48 354.78,420.58 346.13,418.07 331.46,415.02 316.53,413.64 292.53,413.37 280.56,412.61 274.62,411.76 268.75,410.5 263.01,408.76 257.46,406.5 252.17,403.67 247.25,400.25 242.79,396.24 238.89,391.68 235.66,386.63 234.32,383.95 231.08,375.56 229.74,369.71 229.17,363.75 229.34,357.75 230.22,351.82 232.77,343.2 235.22,337.73 238.2,332.52 241.64,327.61 247.58,320.85 251.98,316.77 259.12,311.3 266.81,306.64 274.95,302.8 283.44,299.84 289.26,298.38 304.1,296.28 309.97,295.04 318.37,291.86 323.54,288.82 325.96,287.04 330.4,283.02 336.04,276.02 339.11,270.86 341.67,265.44 343.76,259.82 345.45,254.06 347.77,242.29 348.95,230.36 349.25,218.36 348.67,203.38 347.64,191.42 345.41,173.56 334.32,105.46 331.83,87.63 330.12,72.73 328.58,54.8 327.66,36.82 327.36,21.83 327.62,0.83" fill="none" stroke="#000000" stroke-width="1"/><polyline id="SvgjsPolyline1986" points="428.59,599.78 438.05,592.4 444.59,586.22 450.57,579.5 455.92,572.26 460.54,564.54 464.33,556.39 467.19,547.86 469.02,539.05 469.72,530.08 469.26,521.1 468.29,515.18 465.88,506.52 462.42,498.21 458.03,490.36 452.86,483 447.04,476.14 440.7,469.76 431.61,461.93 421.95,454.81 411.87,448.3 401.46,442.34 388.06,435.6 374.31,429.62 363.06,425.42 348.71,421.08 334.03,418.05 319.11,416.58 292.11,416.23 280.13,415.55 271.22,414.29 265.37,412.99 259.63,411.25 254.05,409.05 248.69,406.34 243.63,403.13 238.91,399.43 234.61,395.25 230.77,390.64 227.43,385.66 224.63,380.36 222.35,374.81 219.94,366.15 218.64,357.25 218.35,348.25 219.04,336.28 220.3,327.37 222.08,318.55 225.02,306.91 232.27,280.91 236.22,263.35 237.65,254.46 238.9,242.53 239.4,224.54 238.48,206.57 236.49,188.68 233.81,170.88 224.26,114.69 221.77,96.86 219.8,78.97 218.26,58.03 217.61,40.04 217.61,19.04 218.16,1.05" fill="none" stroke="#000000" stroke-width="1"/><polyline id="SvgjsPolyline1987" points="428.7,599.01 438.09,591.55 444.56,585.3 450.47,578.51 455.71,571.2 460.19,563.4 463.82,555.17 466.47,546.57 468.05,537.72 468.48,528.74 468.09,522.75 466.5,513.9 463.77,505.33 459.98,497.17 455.3,489.49 449.86,482.32 443.81,475.67 437.26,469.49 427.93,461.95 418.07,455.12 407.8,448.92 397.2,443.29 386.33,438.21 375.23,433.67 363.9,429.71 355.26,427.19 346.51,425.1 331.7,422.73 316.74,421.73 286.74,421.38 271.8,420.1 262.95,418.48 257.15,416.96 251.46,415.06 245.92,412.75 240.58,410.03 233,405.18 226.06,399.46 221.83,395.21 217.93,390.65 212.71,383.32 209.65,378.16 205.65,370.1 202.28,361.76 199.48,353.21 197.14,344.52 194.58,332.79 191.99,318.02 185.71,276.49 182.27,255.78 177.82,232.19 165.26,170.46 161.6,149.78 158.93,131.98 157.12,117.09 155.72,102.16 154.73,87.19 154.16,72.2 153.99,57.2 154.26,39.2 154.98,21.22 156.26,0.26" fill="none" stroke="#000000" stroke-width="1"/><polyline id="SvgjsPolyline1988" points="465.98,507.98 462.65,499.62 459.89,494.29 456.75,489.18 451.43,481.93 443.38,473.04 434.5,464.97 425,457.64 412.48,449.39 399.42,442.02 383.2,434.23 369.29,428.61 355.05,423.91 343.42,420.98 331.59,418.96 322.63,418.11 313.64,417.73 289.64,417.51 277.67,416.69 265.85,414.67 257.22,412.12 251.67,409.86 246.33,407.14 241.26,403.93 236.51,400.26 232.14,396.15 228.19,391.64 224.68,386.78 221.63,381.61 217.91,373.42 215.18,364.85 213.36,356.04 212.33,347.1 211.96,335.11 212.44,323.12 216.09,284.3 217.14,269.33 217.51,254.34 217.12,239.35 216,224.39 213.41,203.55 210.53,185.79 200.54,129.67 197.48,108.89 195.42,91.01 193.78,70.08 192.97,49.1 192.95,28.1 193.92,1.12" fill="none" stroke="#000000" stroke-width="1"/><polyline id="SvgjsPolyline1989" points="429.34,599.73 438.77,592.33 445.3,586.14 451.28,579.41 456.62,572.17 461.24,564.45 465.05,556.3 467.08,550.66 469.3,541.94 470.45,533.02 470.58,527.02 469.81,518.06 467.88,509.28 464.87,500.8 460.89,492.74 456.07,485.14 450.55,478.03 444.47,471.4 435.66,463.25 426.25,455.82 416.37,449.01 406.14,442.74 392.95,435.59 379.42,429.13 365.57,423.38 348.52,417.62 333.93,414.15 325.03,412.87 319.05,412.38 292.05,411.93 280.09,411.06 274.17,410.1 268.34,408.69 259.91,405.57 254.62,402.73 249.74,399.25 245.4,395.12 243.47,392.82 240.21,387.79 238.91,385.08 237.06,379.39 236.54,376.43 236.34,370.44 236.69,367.47 237.32,364.53 239.42,358.92 240.86,356.3 246.12,349 250.42,344.82 252.79,342.99 257.89,339.84 263.35,337.35 269.04,335.48 274.89,334.16 286.82,332.86 310.81,332.5 319.79,331.86 325.71,330.95 331.53,329.5 339.88,326.16 347.44,321.3 351.9,317.29 355.84,312.78 359.28,307.86 362.23,302.64 364.75,297.2 367.8,288.73 369.42,282.96 371.3,274.16 373.21,259.28 373.92,241.3 373.3,223.32 372.03,208.37 369.4,187.54 357.08,113.56 354.48,95.75 352.34,77.88 350.75,59.95 349.76,41.97 349.38,20.98 349.67,2.98" fill="none" stroke="#000000" stroke-width="1"/><polyline id="SvgjsPolyline1990" points="491.77,598.27 497.96,591.74 503.86,584.93 511.24,575.48 516.42,568.12 521.29,560.55 527.3,550.16 532.76,539.48 536.49,531.29 539.91,522.96 543.99,511.68 547.54,500.22 549.85,491.52 552.48,479.81 554.61,468.01 557.19,447.17 558.21,432.2 558.61,414.21 558.24,396.22 557,375.25 553.79,342.41 544.37,268.01 540.37,232.23 537.43,196.35 536.05,166.39 535.74,148.39 535.84,130.39 537.2,94.42 539.3,64.49 544.91,1.74" fill="none" stroke="#000000" stroke-width="1"/><polyline id="SvgjsPolyline1991" points="485.08,598.52 491.29,592.02 499.09,582.89 504.55,575.74 509.68,568.35 514.47,560.73 520.32,550.25 525.55,539.46 529.07,531.17 532.23,522.74 535.89,511.32 540.21,493.85 542.31,482.04 543.49,473.12 544.56,461.16 544.98,452.17 545.07,434.18 544.36,419.19 542.63,401.28 540.11,383.46 534.01,351.03 516.99,274.91 509.81,239.63 506.1,218.96 502.82,198.22 500.04,177.41 498.09,159.51 496.59,141.58 495.44,120.61 495.04,105.62 495,87.62 495.42,69.62 496.26,51.64 497.88,27.7 500.13,0.79" fill="none" stroke="#000000" stroke-width="1"/><polyline id="SvgjsPolyline1992" points="472.6,598.79 479.03,592.49 487.06,583.58 492.65,576.53 497.87,569.2 502.69,561.6 507.12,553.77 511.12,545.71 514.7,537.45 517.85,529.02 520.56,520.44 523.48,508.8 525.14,499.96 526.35,491.04 527.11,482.07 527.42,473.08 527.18,461.08 526.21,449.13 524.05,434.28 521.65,422.53 517.94,408 510.74,385.1 484.99,314.67 479.21,297.62 473.83,280.44 467.26,257.36 461.32,234.11 455.26,207.8 450.39,184.3 446.04,160.7 442.32,136.99 439.37,113.17 437.54,92.25 436.46,71.28 436.17,47.28 436.68,26.29 437.96,2.32" fill="none" stroke="#000000" stroke-width="1"/><polyline id="SvgjsPolyline1993" points="480.45,599.48 488.81,590.87 494.7,584.07 500.25,576.99 505.46,569.65 510.31,562.07 516.22,551.63 520.23,543.57 525,532.56 528.13,524.12 531.73,512.68 535.85,495.16 537.77,483.32 538.78,474.37 539.57,462.4 539.75,453.4 539.34,438.41 538.09,423.47 536.11,408.6 532.92,390.89 529.04,373.31 525.43,358.75 505.13,283.44 496.59,248.47 492.11,227.95 487.5,204.4 483.96,183.7 480.93,162.92 478.8,145.05 476.9,124.13 475.7,103.17 475.24,85.18 475.34,64.18 475.94,46.19 476.93,28.22 478.93,1.29" fill="none" stroke="#000000" stroke-width="1"/><polyline id="SvgjsPolyline1994" points="467.91,512.24 465.17,503.67 462.77,498.18 459.96,492.88 453.27,482.92 445.43,473.85 436.72,465.6 427.36,458.1 414.98,449.63 402.05,442.03 388.69,435.21 372.2,428.01 358.09,422.92 343.65,418.88 334.82,417.12 322.91,415.69 313.93,415.26 289.93,415.01 280.95,414.43 269.1,412.57 260.46,410.07 254.91,407.8 249.6,405 244.62,401.67 240.03,397.81 235.9,393.46 232.31,388.66 229.3,383.47 226.91,377.97 224.49,369.31 223.66,363.37 223.42,357.38 223.75,351.39 224.61,345.45 225.94,339.61 227.72,333.88 232.38,322.83 239.7,309.74 246.29,299.71 263.57,275.2 268.23,267.5 271.02,262.19 274.65,253.95 278.35,242.54 280.28,233.76 281.86,221.86 282.38,212.88 282.36,200.88 280.81,179.94 277.58,156.17 268.43,99.9 266.08,82.06 264.26,64.15 263.2,49.19 262.59,34.2 262.4,19.21 262.69,1.21" fill="none" stroke="#000000" stroke-width="1"/><polyline id="SvgjsPolyline1995" points="428.88,599.91 436.05,594.48 444.89,586.37 450.89,579.66 456.25,572.44 460.9,564.74 464.73,556.6 467.64,548.09 469.54,539.3 470.33,530.34 469.96,521.35 469.06,515.42 466.77,506.72 463.42,498.37 459.14,490.46 454.07,483.03 448.34,476.09 439.9,467.57 433.09,461.69 423.53,454.44 413.53,447.81 403.2,441.71 389.91,434.76 376.27,428.52 362.31,423.04 348.02,418.48 333.38,415.22 327.45,414.37 318.48,413.61 291.48,413.21 279.52,412.35 273.59,411.43 267.75,410.09 262.04,408.25 256.53,405.87 251.31,402.91 246.48,399.36 242.14,395.23 240.19,392.95 236.78,388.02 234.12,382.65 232.26,376.95 231.66,374.01 231.11,368.04 231.44,362.05 232.64,356.18 234.66,350.54 237.44,345.22 240.9,340.33 244.95,335.91 249.51,332.01 254.48,328.66 262.49,324.55 268.05,322.31 273.8,320.6 279.67,319.39 285.63,318.65 291.62,318.3 309.61,318.07 318.57,317.26 327.35,315.31 335.66,311.88 338.26,310.4 343.14,306.91 347.51,302.81 351.35,298.2 354.65,293.2 357.46,287.89 359.8,282.37 361.74,276.69 364.57,265.04 366.54,250.18 367.18,235.19 366.63,217.21 365.36,202.26 362.7,181.43 350.93,110.4 346.61,77.69 344.98,59.76 343.97,41.79 343.57,23.8 343.83,2.8" fill="none" stroke="#000000" stroke-width="1"/><polyline id="SvgjsPolyline1996" points="388.95,435.07 375.26,428.95 361.24,423.62 349.78,420.06 338.11,417.29 329.22,415.87 320.26,415.05 290.27,414.55 281.29,413.98 269.44,412.11 263.65,410.55 258.01,408.5 249.99,404.45 245.04,401.06 240.5,397.13 236.47,392.7 233,387.81 230.15,382.53 227.96,376.95 226.45,371.15 225.61,365.21 225.44,359.21 225.91,353.23 226.97,347.33 228.58,341.55 230.7,335.94 233.27,330.53 236.26,325.32 243.26,315.59 251.36,306.74 262.57,296.78 286.07,278.14 292.54,271.89 296.43,267.32 301.48,259.88 305.53,251.85 308.61,243.4 311.38,231.73 312.61,222.82 313.34,210.84 313.32,201.84 312.72,189.86 311.6,177.91 309.68,163.04 299.67,100.84 295.9,71.08 294.36,53.15 293.56,38.17 293.17,20.17 293.36,2.18" fill="none" stroke="#000000" stroke-width="1"/><polyline id="SvgjsPolyline1997" points="430.94,598.31 437.98,592.71 444.54,586.56 450.56,579.86 455.94,572.66 460.61,564.96 464.45,556.83 467.38,548.33 469.29,539.54 469.96,533.58 469.99,524.58 468.84,515.66 466.55,506.97 463.2,498.62 458.91,490.71 453.82,483.29 448.08,476.36 441.81,469.91 432.8,461.99 423.22,454.77 413.2,448.17 400.21,440.67 389.52,435.22 378.61,430.23 364.67,424.68 356.16,421.78 347.51,419.27 332.84,416.18 317.92,414.71 290.93,414.35 278.96,413.5 273.03,412.6 267.17,411.3 261.44,409.53 255.89,407.26 250.59,404.45 245.63,401.08 241.09,397.16 237.05,392.73 233.59,387.83 230.77,382.54 228.63,376.94 227.19,371.12 226.46,365.17 226.42,359.17 227.04,353.21 228.29,347.34 230.12,341.63 232.48,336.12 236.91,328.29 240.38,323.4 246.25,316.58 250.55,312.39 255.1,308.48 262.34,303.14 267.39,299.91 275.26,295.54 291.53,287.84 299.49,283.64 306.98,278.67 311.48,274.7 317.31,267.86 321.97,260.17 325.53,251.91 327.36,246.2 328.79,240.38 330.32,231.51 331.37,219.56 331.53,207.56 330.78,192.58 329.62,180.64 327.68,165.77 317.61,103.58 313.73,73.83 312.11,55.9 311.11,37.93 310.73,19.94 310.93,1.94" fill="none" stroke="#000000" stroke-width="1"/><polyline id="SvgjsPolyline1998" points="438.17,466.3 431.27,460.52 421.61,453.4 411.54,446.89 401.14,440.9 390.48,435.39 379.6,430.34 368.5,425.77 357.2,421.73 342.77,417.65 333.95,415.88 328.01,415.03 316.05,414.12 289.05,413.75 277.11,412.7 271.2,411.65 265.39,410.17 256.97,407 251.66,404.21 246.7,400.85 242.17,396.92 238.17,392.45 233.35,384.87 231.01,379.34 229.44,373.56 228.64,367.62 228.62,361.62 229.35,355.67 231.78,347.02 234.22,341.54 238.97,333.9 242.76,329.26 249.26,323.04 256.56,317.78 261.78,314.84 270.05,311.3 275.79,309.56 281.66,308.33 287.62,307.62 302.61,307.29 311.56,306.44 317.41,305.11 323.11,303.25 328.6,300.84 331.21,299.37 336.1,295.89 340.47,291.79 344.29,287.17 347.57,282.14 350.32,276.81 352.6,271.27 354.46,265.56 357.11,253.87 358.82,238.97 359.19,223.98 358.55,208.99 357.51,197.04 355.28,179.18 343.65,108.13 339.37,75.41 337.79,57.48 336.81,39.51 336.45,21.51 336.75,0.52" fill="none" stroke="#000000" stroke-width="1"/><polyline id="SvgjsPolyline1999" points="465.59,505.25 462,497 459.09,491.75 455.82,486.72 450.34,479.59 442.13,470.84 433.15,462.89 423.58,455.65 411.01,447.48 397.92,440.15 384.44,433.59 370.61,427.78 356.45,422.84 341.95,419 330.13,416.98 321.17,416.14 291.18,415.64 282.19,415.15 270.31,413.49 261.61,411.21 255.99,409.11 250.59,406.5 245.47,403.38 240.7,399.74 236.35,395.61 232.49,391.03 229.15,386.05 226.37,380.73 223.28,372.29 221.94,366.45 221.14,360.5 220.87,354.51 221.08,348.51 221.73,342.55 222.78,336.64 225,327.92 228.91,316.58 233.55,305.52 245.83,278.15 249.15,269.79 252.05,261.27 254.45,252.59 256.78,240.83 258.15,228.91 258.59,219.92 258.23,201.93 256.23,181.03 253.67,163.21 244.35,106.98 241.92,89.14 240.29,74.23 238.89,56.29 238.11,38.31 237.93,23.31 238.32,2.31" fill="none" stroke="#000000" stroke-width="1"/><polyline id="SvgjsPolyline2000" points="430.51,598.33 437.56,592.73 444.13,586.59 450.15,579.9 455.54,572.69 460.2,565 464.03,556.86 466.94,548.35 468.82,539.56 469.58,530.59 469.17,521.61 468.24,515.69 465.88,507.01 462.45,498.69 458.09,490.82 452.94,483.44 447.14,476.57 440.81,470.17 431.73,462.33 422.08,455.2 412,448.7 401.58,442.75 388.18,436.02 374.41,430.06 363.16,425.9 348.79,421.6 334.1,418.62 319.17,417.18 289.18,416.75 277.22,415.86 265.42,413.71 259.66,412.02 254.06,409.89 248.66,407.27 243.53,404.16 238.73,400.56 234.31,396.51 230.33,392.02 226.82,387.16 223.79,381.98 220.19,373.74 217.68,365.11 216.18,356.24 215.58,347.26 215.73,338.26 216.51,329.3 217.74,320.38 224.42,285.01 227.05,267.21 228.36,249.26 228.27,231.26 227.24,216.3 224.83,195.44 221.56,174.7 212.32,121.49 209.75,103.68 207.7,85.8 206.06,64.86 205.26,43.88 205.27,22.88 205.96,1.89" fill="none" stroke="#000000" stroke-width="1"/><polyline id="SvgjsPolyline2001" points="506.86,599.79 518.45,586.03 523.85,578.83 530.65,568.94 536.98,558.75 541.43,550.92 550.82,532.14 558.86,512.75 562.87,501.44 566.47,489.99 572.5,466.77 576.59,446.17 578.91,431.35 581.09,413.49 582.71,395.56 584.02,374.6 585.15,341.62 586.6,245.63 587.63,215.65 588.87,191.69 592.22,146.81 599.87,69.19" fill="none" stroke="#000000" stroke-width="1"/><polyline id="SvgjsPolyline2002" points="501.64,598.6 513.2,584.8 518.56,577.57 525.27,567.63 531.48,557.36 535.81,549.47 541.15,538.73 544.83,530.51 552.36,510.92 558.44,490.82 563.15,470.36 566.96,446.67 568.83,428.77 569.81,413.8 570.52,389.81 570.49,371.81 569.47,338.83 565.77,269.93 564.37,236.96 563.72,203.97 563.98,173.97 565.12,143.99 567.06,114.05 577.21,0.51" fill="none" stroke="#000000" stroke-width="1"/><polyline id="SvgjsPolyline2003" points="488.47,599.85 500.56,586.52 506.14,579.46 513.09,569.68 517.93,562.09 523.87,551.67 529.24,540.94 532.89,532.71 537.24,521.53 540.12,513 542.67,504.37 545.58,492.73 547.39,483.91 549.32,472.07 550.72,460.15 551.62,448.19 552.07,430.2 551.71,415.2 550.51,397.24 548.62,379.34 544.35,349.65 530.34,269.87 525.13,237.29 520.14,198.61 518.38,180.7 517.02,162.75 515.98,141.77 515.62,126.78 515.6,108.78 516.02,90.78 517.98,54.84 522.54,1.03" fill="none" stroke="#000000" stroke-width="1"/><polyline id="SvgjsPolyline2004" points="497.9,598.52 509.59,584.84 515,577.65 521.76,567.74 528,557.49 532.33,549.6 536.38,541.56 541.32,530.63 545.74,519.47 548.72,510.98 554.59,490.82 558.98,470.29 560.87,458.44 562.33,446.53 563.59,431.58 564.36,413.6 564.42,395.6 563.9,377.61 561.59,341.69 554.85,266.99 552.58,237.08 550.72,201.13 550.12,168.13 550.73,135.14 552.49,102.19 554.85,72.28 561.36,0.58" fill="none" stroke="#000000" stroke-width="1"/><polyline id="SvgjsPolyline2005" points="438.98,591.77 445.47,585.53 451.39,578.76 456.66,571.47 461.2,563.71 464.91,555.51 467.68,546.95 469.42,538.13 469.95,532.15 469.79,523.16 469.02,517.21 466.91,508.47 463.73,500.06 461.06,494.68 456.35,487.02 450.91,479.85 444.89,473.17 438.39,466.95 429.13,459.31 419.37,452.35 409.2,445.97 398.73,440.11 385.28,433.47 371.5,427.56 360.23,423.43 345.85,419.19 331.13,416.32 319.19,415.2 292.19,414.82 280.22,414.09 268.39,412.11 262.62,410.48 257,408.37 251.61,405.74 246.53,402.57 241.82,398.85 237.56,394.62 233.84,389.92 230.7,384.81 228.19,379.37 226.33,373.67 224.77,364.81 224.52,358.82 224.88,352.83 225.81,346.91 227.26,341.09 229.19,335.41 231.54,329.89 237.35,319.4 244.31,309.63 252.09,300.49 272.61,278.62 278.21,271.58 281.57,266.61 287.38,256.11 290.87,247.82 293.52,239.22 295.87,227.46 296.85,218.52 297.29,209.53 297.15,197.53 296.38,185.56 293.53,161.73 283.96,102.5 280.14,72.74 278.58,54.81 277.64,36.84 277.32,18.84 277.57,0.84" fill="none" stroke="#000000" stroke-width="1"/><polyline id="SvgjsPolyline2006" points="466.42,507.35 463.09,498.99 460.33,493.67 457.2,488.55 451.89,481.29 443.87,472.37 435.02,464.27 425.56,456.89 413.09,448.56 400.08,441.09 383.94,433.14 370.11,427.35 355.94,422.41 341.45,418.59 332.59,416.98 320.66,415.76 293.66,415.34 281.68,414.74 269.82,412.98 261.14,410.6 255.56,408.42 250.2,405.72 245.14,402.5 240.46,398.75 236.23,394.5 232.5,389.8 229.33,384.71 226.76,379.3 224.03,370.73 222.96,364.83 222.47,358.85 222.53,352.85 223.09,346.88 224.13,340.97 225.59,335.15 228.46,326.63 233.32,315.66 239.01,305.1 254.28,279.28 258.41,271.28 262.01,263.04 264.99,254.55 267.31,245.85 268.98,237.01 270.27,225.08 270.63,216.09 270.55,207.09 269.98,195.11 268.57,180.17 265.68,159.38 256.46,103.13 254.07,85.29 252.21,67.38 250.95,49.43 250.39,34.44 250.24,19.44 250.58,1.45" fill="none" stroke="#000000" stroke-width="1"/><polyline id="SvgjsPolyline2007" points="523.98,598.32 531.28,588.8 538.18,578.98 544.69,568.9 550.8,558.58 556.53,548.03 561.89,537.3 571.5,515.31 579.73,492.77 587.45,466.9 591.1,452.35 594.34,437.71 599.73,408.2" fill="none" stroke="#000000" stroke-width="1"/><polyline id="SvgjsPolyline2008" points="519.41,598.98 528.54,587.07 537.01,574.7 544.84,561.91 552.04,548.75 558.62,535.27 564.59,521.51 569.97,507.51 575.68,490.44 580.63,473.14 584.2,458.57 587.31,443.9 590.5,426.18 593.16,408.38 595.73,387.54 597.86,366.65 599.85,342.73" fill="none" stroke="#000000" stroke-width="1"/><polyline id="SvgjsPolyline2009" points="517.84,598.29 528.76,583.98 537.12,571.53 544.83,558.66 553.23,542.74 560.72,526.38 567.33,509.64 573.09,492.59 578.06,475.29 582.28,457.79 585.83,440.15 589.2,419.42 591.53,401.57 593.98,377.7 595.65,356.76 599.85,284.89" fill="none" stroke="#000000" stroke-width="1"/><polyline id="SvgjsPolyline2010" points="516.56,598.25 527.53,583.98 537.53,569.01 546.57,553.45 554.67,537.38 561.86,520.88 569.13,501.18 574.45,483.99 579.67,463.65 583.36,446.03 586.86,425.33 589.61,404.51 591.73,383.62 594.51,344.72 599.89,239.86" fill="none" stroke="#000000" stroke-width="1"/><polyline id="SvgjsPolyline2011" points="515.64,598.44 526.65,584.2 536.68,569.26 545.75,553.72 555.14,534.93 563.27,515.58 569.28,498.61 574.46,481.38 579.51,460.99 583.05,443.35 586.39,422.62 588.98,401.78 590.96,380.87 593.34,344.95 597.32,258.04 599.86,216.12" fill="none" stroke="#000000" stroke-width="1"/><polyline id="SvgjsPolyline2012" points="506.34,597.97 517.69,584.01 524.66,574.25 529.58,566.71 534.23,559 540.01,548.49 548.99,529.51 556.57,509.93 562.8,489.88 565.77,478.26 568.34,466.53 572.36,442.88 574.17,427.99 575.73,410.06 576.7,392.08 577.24,371.09 577.24,344.09 575.72,266.11 575.51,239.11 575.9,206.11 576.68,182.12 578.12,155.16 580.11,128.24 588.34,41.63 591.46,2.75" fill="none" stroke="#000000" stroke-width="1"/><polyline id="SvgjsPolyline2013" points="539.09,598.41 549.16,583.49 558.48,568.09 565.69,554.94 573.69,538.82 581,522.37 587.64,505.64 594.6,485.83 599.92,468.63" fill="none" stroke="#000000" stroke-width="1"/><polyline id="SvgjsPolyline2014" points="509.46,598.66 520.73,584.63 525.97,577.32 532.56,567.29 542.99,549.07 552.05,530.13 559.76,510.6 566.19,490.61 571.41,470.27 576,446.72 578.21,431.88 580.26,414 581.94,393.07 583.02,372.1 583.84,339.11 584.73,246.11 585.55,219.13 586.85,192.16 590.39,144.29 599.98,45.76" fill="none" stroke="#000000" stroke-width="1"/><polyline id="SvgjsPolyline2015" points="554.17,597.72 567.78,574.41 580.09,550.38 589.94,528.5 599.84,503.38" fill="none" stroke="#000000" stroke-width="1"/><polyline id="SvgjsPolyline2016" points="567.57,598.81 577.3,580.2 585.2,564.03 592.67,547.65 599.68,531.08" fill="none" stroke="#000000" stroke-width="1"/><polyline id="SvgjsPolyline2017" points="581.01,599.15 599.16,557.97" fill="none" stroke="#000000" stroke-width="1"/><polyline id="SvgjsPolyline2018" points="594.42,598.65 599.76,584.64" fill="none" stroke="#000000" stroke-width="1"/></g></svg>